solid Plotter
facet normal 0.7933533402912392 0.6087614290087154 8.807991450546106e-17
outer loop
vertex 127.20588745030419 131.39171895547167 61.1851531944495
vertex 126.44307806183433 132.3858315051671 62.68515319444949
vertex 127.20588745030419 131.39171895547167 62.68515319444949
endloop
endfacet
facet normal 0.7933533402912392 0.6087614290087154 8.807991450546106e-17
outer loop
vertex 126.44307806183433 132.3858315051671 62.68515319444949
vertex 127.20588745030419 131.39171895547167 61.1851531944495
vertex 126.44307806183433 132.3858315051671 61.1851531944495
endloop
endfacet
facet normal -1.0 -6.123233995736766e-17 -1.1102230246251565e-16
outer loop
vertex 124.59999999999961 144.8858315051671 61.1851531944495
vertex 124.59999999999961 133.8858315051671 62.68515319444949
vertex 124.59999999999961 144.8858315051671 62.68515319444949
endloop
endfacet
facet normal -1.0 -6.123233995736766e-17 -1.1102230246251565e-16
outer loop
vertex 124.59999999999961 133.8858315051671 62.68515319444949
vertex 124.59999999999961 144.8858315051671 61.1851531944495
vertex 124.59999999999961 133.8858315051671 61.1851531944495
endloop
endfacet
facet normal -1.0 -6.123233995736766e-17 -1.1102230246251565e-16
outer loop
vertex 124.59999999999961 133.8858315051671 61.1851531944495
vertex 124.59999999999961 144.8858315051671 61.1851531944495
vertex 124.59999999999961 139.8858315051671 61.1851531944495
endloop
endfacet
facet normal 0.3826834323650925 0.9238795325112857 4.248639577543096e-17
outer loop
vertex 128.19999999999962 130.62890956700178 61.1851531944495
vertex 129.35766858350752 130.14938753897954 62.68515319444949
vertex 129.35766858350752 130.14938753897954 61.1851531944495
endloop
endfacet
facet normal 0.3826834323650925 0.9238795325112857 4.248639577543096e-17
outer loop
vertex 129.35766858350752 130.14938753897954 62.68515319444949
vertex 128.19999999999962 130.62890956700178 61.1851531944495
vertex 128.19999999999962 130.62890956700178 62.68515319444949
endloop
endfacet
facet normal -0.7933533402912349 -0.6087614290087212 -8.807991450546059e-17
outer loop
vertex 133.99411254969505 138.17994405486252 61.1851531944495
vertex 134.75692193816494 137.1858315051671 62.68515319444949
vertex 133.99411254969505 138.17994405486252 62.68515319444949
endloop
endfacet
facet normal -0.7933533402912349 -0.6087614290087212 -8.807991450546059e-17
outer loop
vertex 134.75692193816494 137.1858315051671 62.68515319444949
vertex 133.99411254969505 138.17994405486252 61.1851531944495
vertex 134.75692193816494 137.1858315051671 61.1851531944495
endloop
endfacet
facet normal 0.9238795325112852 -0.382683432365094 1.0257123289739547e-16
outer loop
vertex 125.9635560338121 136.0281629216592 61.1851531944495
vertex 126.44307806183433 137.1858315051671 62.68515319444949
vertex 125.9635560338121 136.0281629216592 62.68515319444949
endloop
endfacet
facet normal 0.9238795325112852 -0.382683432365094 1.0257123289739547e-16
outer loop
vertex 126.44307806183433 137.1858315051671 62.68515319444949
vertex 125.9635560338121 136.0281629216592 61.1851531944495
vertex 126.44307806183433 137.1858315051671 61.1851531944495
endloop
endfacet
facet normal 0.9914448613738114 0.13052619222004425 1.1007249127435019e-16
outer loop
vertex 125.9635560338121 133.543500088675 61.1851531944495
vertex 125.79999999999963 134.7858315051671 62.68515319444949
vertex 125.9635560338121 133.543500088675 62.68515319444949
endloop
endfacet
facet normal 0.9914448613738114 0.13052619222004425 1.1007249127435019e-16
outer loop
vertex 125.79999999999963 134.7858315051671 62.68515319444949
vertex 125.9635560338121 133.543500088675 61.1851531944495
vertex 125.79999999999963 134.7858315051671 61.1851531944495
endloop
endfacet
facet normal 0.6087614290087202 -0.7933533402912355 6.758609549891939e-17
outer loop
vertex 133.59999999999962 128.68967908246046 62.68515319444949
vertex 134.8426406871189 129.6431908180478 61.1851531944495
vertex 134.8426406871189 129.6431908180478 62.68515319444949
endloop
endfacet
facet normal 0.6087614290087202 -0.7933533402912355 6.758609549891939e-17
outer loop
vertex 134.8426406871189 129.6431908180478 61.1851531944495
vertex 133.59999999999962 128.68967908246046 62.68515319444949
vertex 133.59999999999962 128.68967908246046 61.1851531944495
endloop
endfacet
facet normal 0.7933533402912316 -0.6087614290087255 8.807991450546022e-17
outer loop
vertex 134.8426406871189 129.6431908180478 61.1851531944495
vertex 135.79615242270626 130.8858315051671 62.68515319444949
vertex 134.8426406871189 129.6431908180478 62.68515319444949
endloop
endfacet
facet normal 0.7933533402912316 -0.6087614290087255 8.807991450546022e-17
outer loop
vertex 135.79615242270626 130.8858315051671 62.68515319444949
vertex 134.8426406871189 129.6431908180478 61.1851531944495
vertex 135.79615242270626 130.8858315051671 61.1851531944495
endloop
endfacet
facet normal 2.040514357143922e-16 -0.5330376563645237 -0.846091518038927
outer loop
vertex 136.59999999999962 139.8858315051671 61.1851531944495
vertex 126.6999999999996 144.8858315051671 58.03515319444949
vertex 134.49999999999963 144.8858315051671 58.0351531944495
endloop
endfacet
facet normal 2.040514357143922e-16 -0.5330376563645237 -0.846091518038927
outer loop
vertex 126.6999999999996 144.8858315051671 58.03515319444949
vertex 136.59999999999962 139.8858315051671 61.1851531944495
vertex 124.59999999999961 139.8858315051671 61.1851531944495
endloop
endfacet
facet normal 0.38268343236509544 -0.9238795325112844 4.248639577543127e-17
outer loop
vertex 132.15291427061476 128.0902765474327 62.68515319444949
vertex 133.59999999999962 128.68967908246046 61.1851531944495
vertex 133.59999999999962 128.68967908246046 62.68515319444949
endloop
endfacet
facet normal 0.38268343236509544 -0.9238795325112844 4.248639577543127e-17
outer loop
vertex 133.59999999999962 128.68967908246046 61.1851531944495
vertex 132.15291427061476 128.0902765474327 62.68515319444949
vertex 132.15291427061476 128.0902765474327 61.1851531944495
endloop
endfacet
facet normal -0.38268343236508706 -0.9238795325112881 -4.2486395775430354e-17
outer loop
vertex 131.84233141649173 139.42227547135462 62.68515319444949
vertex 132.99999999999963 138.9427534433324 61.1851531944495
vertex 132.99999999999963 138.9427534433324 62.68515319444949
endloop
endfacet
facet normal -0.38268343236508706 -0.9238795325112881 -4.2486395775430354e-17
outer loop
vertex 132.99999999999963 138.9427534433324 61.1851531944495
vertex 131.84233141649173 139.42227547135462 62.68515319444949
vertex 131.84233141649173 139.42227547135462 61.1851531944495
endloop
endfacet
facet normal 6.123233995736762e-17 -1.0 -1.4750906925304665e-15
outer loop
vertex 125.6999999999996 144.8858315051671 61.1851531944495
vertex 126.6999999999996 144.8858315051671 58.03515319444949
vertex 126.6999999999996 144.8858315051671 61.1851531944495
endloop
endfacet
facet normal 6.123233995736762e-17 -1.0 -1.4750906925304665e-15
outer loop
vertex 134.49999999999963 144.8858315051671 61.1851531944495
vertex 135.49999999999963 144.8858315051671 54.885153194449494
vertex 135.49999999999963 144.8858315051671 61.1851531944495
endloop
endfacet
facet normal 6.123233995736762e-17 -1.0 -1.4750906925304665e-15
outer loop
vertex 135.49999999999963 144.8858315051671 54.885153194449494
vertex 134.49999999999963 144.8858315051671 61.1851531944495
vertex 134.49999999999963 144.8858315051671 58.0351531944495
endloop
endfacet
facet normal 6.123233995736762e-17 -1.0 -1.4750906925304665e-15
outer loop
vertex 135.49999999999963 144.8858315051671 54.885153194449494
vertex 134.49999999999963 144.8858315051671 58.0351531944495
vertex 125.6999999999996 144.8858315051671 54.885153194449494
endloop
endfacet
facet normal 6.123233995736762e-17 -1.0 -1.4750906925304665e-15
outer loop
vertex 125.6999999999996 144.8858315051671 54.885153194449494
vertex 134.49999999999963 144.8858315051671 58.0351531944495
vertex 126.6999999999996 144.8858315051671 58.03515319444949
endloop
endfacet
facet normal 6.123233995736762e-17 -1.0 -1.4750906925304665e-15
outer loop
vertex 125.6999999999996 144.8858315051671 54.885153194449494
vertex 126.6999999999996 144.8858315051671 58.03515319444949
vertex 125.6999999999996 144.8858315051671 61.1851531944495
endloop
endfacet
facet normal 1.1102230246251554e-16 1.762479051592436e-15 -1.0
outer loop
vertex 135.49999999999963 144.8858315051671 54.885153194449494
vertex 125.6999999999996 145.4858315051671 54.885153194449494
vertex 135.49999999999963 145.4858315051671 54.885153194449494
endloop
endfacet
facet normal 1.1102230246251554e-16 1.762479051592436e-15 -1.0
outer loop
vertex 125.6999999999996 145.4858315051671 54.885153194449494
vertex 135.49999999999963 144.8858315051671 54.885153194449494
vertex 125.6999999999996 144.8858315051671 54.885153194449494
endloop
endfacet
facet normal 0.9914448613738105 -0.13052619222005163 1.1007249127435009e-16
outer loop
vertex 136.39555495773405 132.33291723455196 61.1851531944495
vertex 136.59999999999962 133.8858315051671 62.68515319444949
vertex 136.39555495773405 132.33291723455196 62.68515319444949
endloop
endfacet
facet normal 0.9914448613738105 -0.13052619222005163 1.1007249127435009e-16
outer loop
vertex 136.59999999999962 133.8858315051671 62.68515319444949
vertex 136.39555495773405 132.33291723455196 61.1851531944495
vertex 136.59999999999962 133.8858315051671 61.1851531944495
endloop
endfacet
facet normal 0.13052619222005082 -0.9914448613738105 1.4491318391934934e-17
outer loop
vertex 130.59999999999962 127.88583150516709 62.68515319444949
vertex 132.15291427061476 128.0902765474327 61.1851531944495
vertex 132.15291427061476 128.0902765474327 62.68515319444949
endloop
endfacet
facet normal 0.13052619222005082 -0.9914448613738105 1.4491318391934934e-17
outer loop
vertex 132.15291427061476 128.0902765474327 61.1851531944495
vertex 130.59999999999962 127.88583150516709 62.68515319444949
vertex 130.59999999999962 127.88583150516709 61.1851531944495
endloop
endfacet
facet normal 0.13052619222004946 0.9914448613738107 1.4491318391934795e-17
outer loop
vertex 129.35766858350752 130.14938753897954 61.1851531944495
vertex 130.59999999999962 129.98583150516708 62.68515319444949
vertex 130.59999999999962 129.98583150516708 61.1851531944495
endloop
endfacet
facet normal 0.13052619222004946 0.9914448613738107 1.4491318391934795e-17
outer loop
vertex 130.59999999999962 129.98583150516708 62.68515319444949
vertex 129.35766858350752 130.14938753897954 61.1851531944495
vertex 129.35766858350752 130.14938753897954 62.68515319444949
endloop
endfacet
facet normal -0.9238795325112862 -0.3826834323650914 -1.0257123289739558e-16
outer loop
vertex 134.75692193816494 137.1858315051671 61.1851531944495
vertex 135.23644396618715 136.0281629216592 62.68515319444949
vertex 134.75692193816494 137.1858315051671 62.68515319444949
endloop
endfacet
facet normal -0.9238795325112862 -0.3826834323650914 -1.0257123289739558e-16
outer loop
vertex 135.23644396618715 136.0281629216592 62.68515319444949
vertex 134.75692193816494 137.1858315051671 61.1851531944495
vertex 135.23644396618715 136.0281629216592 61.1851531944495
endloop
endfacet
facet normal -0.9219821056073609 0.3872324843550929 2.343569811878363e-17
outer loop
vertex 126.6999999999996 144.8858315051671 58.03515319444949
vertex 124.59999999999961 139.8858315051671 61.1851531944495
vertex 126.6999999999996 144.8858315051671 61.1851531944495
endloop
endfacet
facet normal 0.9238795325112846 0.3826834323650953 1.0257123289739541e-16
outer loop
vertex 126.44307806183433 132.3858315051671 61.1851531944495
vertex 125.9635560338121 133.543500088675 62.68515319444949
vertex 126.44307806183433 132.3858315051671 62.68515319444949
endloop
endfacet
facet normal 0.9238795325112846 0.3826834323650953 1.0257123289739541e-16
outer loop
vertex 125.9635560338121 133.543500088675 62.68515319444949
vertex 126.44307806183433 132.3858315051671 61.1851531944495
vertex 125.9635560338121 133.543500088675 61.1851531944495
endloop
endfacet
facet normal -0.9238795325112878 0.38268343236508756 -1.0257123289739576e-16
outer loop
vertex 135.23644396618715 133.543500088675 61.1851531944495
vertex 134.75692193816494 132.3858315051671 62.68515319444949
vertex 135.23644396618715 133.543500088675 62.68515319444949
endloop
endfacet
facet normal -0.9238795325112878 0.38268343236508756 -1.0257123289739576e-16
outer loop
vertex 134.75692193816494 132.3858315051671 62.68515319444949
vertex 135.23644396618715 133.543500088675 61.1851531944495
vertex 134.75692193816494 132.3858315051671 61.1851531944495
endloop
endfacet
facet normal -0.7933533402912343 0.6087614290087218 -8.807991450546052e-17
outer loop
vertex 134.75692193816494 132.3858315051671 61.1851531944495
vertex 133.99411254969505 131.39171895547167 62.68515319444949
vertex 134.75692193816494 132.3858315051671 62.68515319444949
endloop
endfacet
facet normal -0.7933533402912343 0.6087614290087218 -8.807991450546052e-17
outer loop
vertex 133.99411254969505 131.39171895547167 62.68515319444949
vertex 134.75692193816494 132.3858315051671 61.1851531944495
vertex 133.99411254969505 131.39171895547167 61.1851531944495
endloop
endfacet
facet normal 0.923879532511289 -0.38268343236508456 1.0257123289739589e-16
outer loop
vertex 135.79615242270626 130.8858315051671 61.1851531944495
vertex 136.39555495773405 132.33291723455196 62.68515319444949
vertex 135.79615242270626 130.8858315051671 62.68515319444949
endloop
endfacet
facet normal 0.923879532511289 -0.38268343236508456 1.0257123289739589e-16
outer loop
vertex 136.39555495773405 132.33291723455196 62.68515319444949
vertex 135.79615242270626 130.8858315051671 61.1851531944495
vertex 136.39555495773405 132.33291723455196 61.1851531944495
endloop
endfacet
facet normal -0.608761429008723 0.7933533402912334 -6.75860954989197e-17
outer loop
vertex 132.99999999999963 130.62890956700178 61.1851531944495
vertex 133.99411254969505 131.39171895547167 62.68515319444949
vertex 133.99411254969505 131.39171895547167 61.1851531944495
endloop
endfacet
facet normal -0.608761429008723 0.7933533402912334 -6.75860954989197e-17
outer loop
vertex 133.99411254969505 131.39171895547167 62.68515319444949
vertex 132.99999999999963 130.62890956700178 61.1851531944495
vertex 132.99999999999963 130.62890956700178 62.68515319444949
endloop
endfacet
facet normal -0.38268343236509256 0.9238795325112857 -4.248639577543095e-17
outer loop
vertex 131.84233141649173 130.14938753897954 61.1851531944495
vertex 132.99999999999963 130.62890956700178 62.68515319444949
vertex 132.99999999999963 130.62890956700178 61.1851531944495
endloop
endfacet
facet normal -0.38268343236509256 0.9238795325112857 -4.248639577543095e-17
outer loop
vertex 132.99999999999963 130.62890956700178 62.68515319444949
vertex 131.84233141649173 130.14938753897954 61.1851531944495
vertex 131.84233141649173 130.14938753897954 62.68515319444949
endloop
endfacet
facet normal -0.1305261922200484 0.9914448613738109 -1.4491318391934666e-17
outer loop
vertex 130.59999999999962 129.98583150516708 61.1851531944495
vertex 131.84233141649173 130.14938753897954 62.68515319444949
vertex 131.84233141649173 130.14938753897954 61.1851531944495
endloop
endfacet
facet normal -0.1305261922200484 0.9914448613738109 -1.4491318391934666e-17
outer loop
vertex 131.84233141649173 130.14938753897954 62.68515319444949
vertex 130.59999999999962 129.98583150516708 61.1851531944495
vertex 130.59999999999962 129.98583150516708 62.68515319444949
endloop
endfacet
facet normal 0.9219821056073612 0.38723248435509233 1.023605761937675e-16
outer loop
vertex 134.49999999999963 144.8858315051671 58.0351531944495
vertex 134.49999999999963 144.8858315051671 61.1851531944495
vertex 136.59999999999962 139.8858315051671 61.1851531944495
endloop
endfacet
facet normal -1.149917423111469e-16 -5.514664770447435e-18 1.0
outer loop
vertex 124.59999999999961 133.8858315051671 62.68515319444949
vertex 125.6999999999996 144.8858315051671 62.68515319444949
vertex 124.59999999999961 144.8858315051671 62.68515319444949
endloop
endfacet
facet normal -1.149917423111469e-16 -5.514664770447435e-18 1.0
outer loop
vertex 125.6999999999996 144.8858315051671 62.68515319444949
vertex 124.59999999999961 133.8858315051671 62.68515319444949
vertex 126.44307806183433 137.1858315051671 62.68515319444949
endloop
endfacet
facet normal -1.149917423111469e-16 -5.514664770447435e-18 1.0
outer loop
vertex 125.6999999999996 144.8858315051671 62.68515319444949
vertex 126.44307806183433 137.1858315051671 62.68515319444949
vertex 127.20588745030417 138.17994405486252 62.68515319444949
endloop
endfacet
facet normal -1.149917423111469e-16 -5.514664770447435e-18 1.0
outer loop
vertex 125.6999999999996 144.8858315051671 62.68515319444949
vertex 127.20588745030417 138.17994405486252 62.68515319444949
vertex 135.49999999999963 144.8858315051671 62.68515319444949
endloop
endfacet
facet normal -1.149917423111469e-16 -5.514664770447435e-18 1.0
outer loop
vertex 135.49999999999963 144.8858315051671 62.68515319444949
vertex 127.20588745030417 138.17994405486252 62.68515319444949
vertex 128.19999999999962 138.9427534433324 62.68515319444949
endloop
endfacet
facet normal -1.149917423111469e-16 -5.514664770447435e-18 1.0
outer loop
vertex 135.49999999999963 144.8858315051671 62.68515319444949
vertex 128.19999999999962 138.9427534433324 62.68515319444949
vertex 136.59999999999962 144.8858315051671 62.68515319444949
endloop
endfacet
facet normal -1.149917423111469e-16 -5.514664770447435e-18 1.0
outer loop
vertex 136.59999999999962 144.8858315051671 62.68515319444949
vertex 128.19999999999962 138.9427534433324 62.68515319444949
vertex 129.35766858350752 139.42227547135462 62.68515319444949
endloop
endfacet
facet normal -1.149917423111469e-16 -5.514664770447435e-18 1.0
outer loop
vertex 136.59999999999962 144.8858315051671 62.68515319444949
vertex 129.35766858350752 139.42227547135462 62.68515319444949
vertex 130.59999999999962 139.58583150516708 62.68515319444949
endloop
endfacet
facet normal -1.149917423111469e-16 -5.514664770447435e-18 1.0
outer loop
vertex 126.44307806183433 137.1858315051671 62.68515319444949
vertex 124.59999999999961 133.8858315051671 62.68515319444949
vertex 125.9635560338121 136.0281629216592 62.68515319444949
endloop
endfacet
facet normal -1.149917423111469e-16 -5.514664770447435e-18 1.0
outer loop
vertex 125.9635560338121 136.0281629216592 62.68515319444949
vertex 124.59999999999961 133.8858315051671 62.68515319444949
vertex 125.79999999999963 134.7858315051671 62.68515319444949
endloop
endfacet
facet normal -1.149917423111469e-16 -5.514664770447435e-18 1.0
outer loop
vertex 125.79999999999963 134.7858315051671 62.68515319444949
vertex 124.59999999999961 133.8858315051671 62.68515319444949
vertex 125.9635560338121 133.543500088675 62.68515319444949
endloop
endfacet
facet normal -1.149917423111469e-16 -5.514664770447435e-18 1.0
outer loop
vertex 125.9635560338121 133.543500088675 62.68515319444949
vertex 124.59999999999961 133.8858315051671 62.68515319444949
vertex 124.80444504226521 132.33291723455196 62.68515319444949
endloop
endfacet
facet normal -1.149917423111469e-16 -5.514664770447435e-18 1.0
outer loop
vertex 125.9635560338121 133.543500088675 62.68515319444949
vertex 124.80444504226521 132.33291723455196 62.68515319444949
vertex 126.44307806183433 132.3858315051671 62.68515319444949
endloop
endfacet
facet normal -1.149917423111469e-16 -5.514664770447435e-18 1.0
outer loop
vertex 126.44307806183433 132.3858315051671 62.68515319444949
vertex 124.80444504226521 132.33291723455196 62.68515319444949
vertex 127.20588745030419 131.39171895547167 62.68515319444949
endloop
endfacet
facet normal -1.149917423111469e-16 -5.514664770447435e-18 1.0
outer loop
vertex 127.20588745030419 131.39171895547167 62.68515319444949
vertex 124.80444504226521 132.33291723455196 62.68515319444949
vertex 125.40384757729298 130.8858315051671 62.68515319444949
endloop
endfacet
facet normal -1.149917423111469e-16 -5.514664770447435e-18 1.0
outer loop
vertex 127.20588745030419 131.39171895547167 62.68515319444949
vertex 125.40384757729298 130.8858315051671 62.68515319444949
vertex 128.19999999999962 130.62890956700178 62.68515319444949
endloop
endfacet
facet normal -1.149917423111469e-16 -5.514664770447435e-18 1.0
outer loop
vertex 128.19999999999962 130.62890956700178 62.68515319444949
vertex 125.40384757729298 130.8858315051671 62.68515319444949
vertex 126.35735931288033 129.6431908180478 62.68515319444949
endloop
endfacet
facet normal -1.149917423111469e-16 -5.514664770447435e-18 1.0
outer loop
vertex 128.19999999999962 130.62890956700178 62.68515319444949
vertex 126.35735931288033 129.6431908180478 62.68515319444949
vertex 129.35766858350752 130.14938753897954 62.68515319444949
endloop
endfacet
facet normal -1.149917423111469e-16 -5.514664770447435e-18 1.0
outer loop
vertex 129.35766858350752 130.14938753897954 62.68515319444949
vertex 126.35735931288033 129.6431908180478 62.68515319444949
vertex 130.59999999999962 129.98583150516708 62.68515319444949
endloop
endfacet
facet normal -1.149917423111469e-16 -5.514664770447435e-18 1.0
outer loop
vertex 136.59999999999962 144.8858315051671 62.68515319444949
vertex 134.75692193816494 137.1858315051671 62.68515319444949
vertex 136.59999999999962 133.8858315051671 62.68515319444949
endloop
endfacet
facet normal -1.149917423111469e-16 -5.514664770447435e-18 1.0
outer loop
vertex 134.75692193816494 137.1858315051671 62.68515319444949
vertex 136.59999999999962 144.8858315051671 62.68515319444949
vertex 133.99411254969505 138.17994405486252 62.68515319444949
endloop
endfacet
facet normal -1.149917423111469e-16 -5.514664770447435e-18 1.0
outer loop
vertex 133.99411254969505 138.17994405486252 62.68515319444949
vertex 136.59999999999962 144.8858315051671 62.68515319444949
vertex 132.99999999999963 138.9427534433324 62.68515319444949
endloop
endfacet
facet normal -1.149917423111469e-16 -5.514664770447435e-18 1.0
outer loop
vertex 132.99999999999963 138.9427534433324 62.68515319444949
vertex 136.59999999999962 144.8858315051671 62.68515319444949
vertex 131.84233141649173 139.42227547135462 62.68515319444949
endloop
endfacet
facet normal -1.149917423111469e-16 -5.514664770447435e-18 1.0
outer loop
vertex 131.84233141649173 139.42227547135462 62.68515319444949
vertex 136.59999999999962 144.8858315051671 62.68515319444949
vertex 130.59999999999962 139.58583150516708 62.68515319444949
endloop
endfacet
facet normal -1.149917423111469e-16 -5.514664770447435e-18 1.0
outer loop
vertex 136.59999999999962 133.8858315051671 62.68515319444949
vertex 134.75692193816494 137.1858315051671 62.68515319444949
vertex 135.23644396618715 136.0281629216592 62.68515319444949
endloop
endfacet
facet normal -1.149917423111469e-16 -5.514664770447435e-18 1.0
outer loop
vertex 136.59999999999962 133.8858315051671 62.68515319444949
vertex 135.23644396618715 136.0281629216592 62.68515319444949
vertex 135.3999999999996 134.7858315051671 62.68515319444949
endloop
endfacet
facet normal -1.149917423111469e-16 -5.514664770447435e-18 1.0
outer loop
vertex 136.59999999999962 133.8858315051671 62.68515319444949
vertex 135.3999999999996 134.7858315051671 62.68515319444949
vertex 135.23644396618715 133.543500088675 62.68515319444949
endloop
endfacet
facet normal -1.149917423111469e-16 -5.514664770447435e-18 1.0
outer loop
vertex 136.59999999999962 133.8858315051671 62.68515319444949
vertex 135.23644396618715 133.543500088675 62.68515319444949
vertex 136.39555495773405 132.33291723455196 62.68515319444949
endloop
endfacet
facet normal -1.149917423111469e-16 -5.514664770447435e-18 1.0
outer loop
vertex 136.39555495773405 132.33291723455196 62.68515319444949
vertex 135.23644396618715 133.543500088675 62.68515319444949
vertex 134.75692193816494 132.3858315051671 62.68515319444949
endloop
endfacet
facet normal -1.149917423111469e-16 -5.514664770447435e-18 1.0
outer loop
vertex 136.39555495773405 132.33291723455196 62.68515319444949
vertex 134.75692193816494 132.3858315051671 62.68515319444949
vertex 133.99411254969505 131.39171895547167 62.68515319444949
endloop
endfacet
facet normal -1.149917423111469e-16 -5.514664770447435e-18 1.0
outer loop
vertex 136.39555495773405 132.33291723455196 62.68515319444949
vertex 133.99411254969505 131.39171895547167 62.68515319444949
vertex 135.79615242270626 130.8858315051671 62.68515319444949
endloop
endfacet
facet normal -1.149917423111469e-16 -5.514664770447435e-18 1.0
outer loop
vertex 135.79615242270626 130.8858315051671 62.68515319444949
vertex 133.99411254969505 131.39171895547167 62.68515319444949
vertex 132.99999999999963 130.62890956700178 62.68515319444949
endloop
endfacet
facet normal -1.149917423111469e-16 -5.514664770447435e-18 1.0
outer loop
vertex 135.79615242270626 130.8858315051671 62.68515319444949
vertex 132.99999999999963 130.62890956700178 62.68515319444949
vertex 134.8426406871189 129.6431908180478 62.68515319444949
endloop
endfacet
facet normal -1.149917423111469e-16 -5.514664770447435e-18 1.0
outer loop
vertex 134.8426406871189 129.6431908180478 62.68515319444949
vertex 132.99999999999963 130.62890956700178 62.68515319444949
vertex 131.84233141649173 130.14938753897954 62.68515319444949
endloop
endfacet
facet normal -1.149917423111469e-16 -5.514664770447435e-18 1.0
outer loop
vertex 134.8426406871189 129.6431908180478 62.68515319444949
vertex 131.84233141649173 130.14938753897954 62.68515319444949
vertex 130.59999999999962 129.98583150516708 62.68515319444949
endloop
endfacet
facet normal -1.149917423111469e-16 -5.514664770447435e-18 1.0
outer loop
vertex 134.8426406871189 129.6431908180478 62.68515319444949
vertex 130.59999999999962 129.98583150516708 62.68515319444949
vertex 126.35735931288033 129.6431908180478 62.68515319444949
endloop
endfacet
facet normal -1.149917423111469e-16 -5.514664770447435e-18 1.0
outer loop
vertex 134.8426406871189 129.6431908180478 62.68515319444949
vertex 126.35735931288033 129.6431908180478 62.68515319444949
vertex 127.59999999999962 128.68967908246046 62.68515319444949
endloop
endfacet
facet normal -1.149917423111469e-16 -5.514664770447435e-18 1.0
outer loop
vertex 134.8426406871189 129.6431908180478 62.68515319444949
vertex 127.59999999999962 128.68967908246046 62.68515319444949
vertex 133.59999999999962 128.68967908246046 62.68515319444949
endloop
endfacet
facet normal -1.149917423111469e-16 -5.514664770447435e-18 1.0
outer loop
vertex 133.59999999999962 128.68967908246046 62.68515319444949
vertex 127.59999999999962 128.68967908246046 62.68515319444949
vertex 129.04708572938452 128.0902765474327 62.68515319444949
endloop
endfacet
facet normal -1.149917423111469e-16 -5.514664770447435e-18 1.0
outer loop
vertex 133.59999999999962 128.68967908246046 62.68515319444949
vertex 129.04708572938452 128.0902765474327 62.68515319444949
vertex 132.15291427061476 128.0902765474327 62.68515319444949
endloop
endfacet
facet normal -1.149917423111469e-16 -5.514664770447435e-18 1.0
outer loop
vertex 132.15291427061476 128.0902765474327 62.68515319444949
vertex 129.04708572938452 128.0902765474327 62.68515319444949
vertex 130.59999999999962 127.88583150516709 62.68515319444949
endloop
endfacet
facet normal -1.149917423111469e-16 -5.514664770447435e-18 1.0
outer loop
vertex 125.6999999999996 144.8858315051671 62.68515319444949
vertex 135.49999999999963 145.4858315051671 62.68515319444949
vertex 125.6999999999996 145.4858315051671 62.68515319444949
endloop
endfacet
facet normal -1.149917423111469e-16 -5.514664770447435e-18 1.0
outer loop
vertex 135.49999999999963 145.4858315051671 62.68515319444949
vertex 125.6999999999996 144.8858315051671 62.68515319444949
vertex 135.49999999999963 144.8858315051671 62.68515319444949
endloop
endfacet
facet normal -0.9914448613738103 -0.1305261922200534 -1.1007249127435007e-16
outer loop
vertex 135.23644396618715 136.0281629216592 61.1851531944495
vertex 135.3999999999996 134.7858315051671 62.68515319444949
vertex 135.23644396618715 136.0281629216592 62.68515319444949
endloop
endfacet
facet normal -0.9914448613738103 -0.1305261922200534 -1.1007249127435007e-16
outer loop
vertex 135.3999999999996 134.7858315051671 62.68515319444949
vertex 135.23644396618715 136.0281629216592 61.1851531944495
vertex 135.3999999999996 134.7858315051671 61.1851531944495
endloop
endfacet
facet normal -0.9914448613738103 0.13052619222005346 -1.1007249127435007e-16
outer loop
vertex 135.3999999999996 134.7858315051671 61.1851531944495
vertex 135.23644396618715 133.543500088675 62.68515319444949
vertex 135.3999999999996 134.7858315051671 62.68515319444949
endloop
endfacet
facet normal -0.9914448613738103 0.13052619222005346 -1.1007249127435007e-16
outer loop
vertex 135.23644396618715 133.543500088675 62.68515319444949
vertex 135.3999999999996 134.7858315051671 61.1851531944495
vertex 135.23644396618715 133.543500088675 61.1851531944495
endloop
endfacet
facet normal 1.0 6.123233995736766e-17 1.1102230246251565e-16
outer loop
vertex 135.49999999999963 144.8858315051671 61.1851531944495
vertex 135.49999999999963 145.4858315051671 62.68515319444949
vertex 135.49999999999963 144.8858315051671 62.68515319444949
endloop
endfacet
facet normal 1.0 6.123233995736766e-17 1.1102230246251565e-16
outer loop
vertex 135.49999999999963 145.4858315051671 62.68515319444949
vertex 135.49999999999963 144.8858315051671 61.1851531944495
vertex 135.49999999999963 145.4858315051671 54.885153194449494
endloop
endfacet
facet normal 1.0 6.123233995736766e-17 1.1102230246251565e-16
outer loop
vertex 135.49999999999963 145.4858315051671 54.885153194449494
vertex 135.49999999999963 144.8858315051671 61.1851531944495
vertex 135.49999999999963 144.8858315051671 54.885153194449494
endloop
endfacet
facet normal -0.13052619222005257 -0.9914448613738103 -1.449131839193514e-17
outer loop
vertex 129.04708572938452 128.0902765474327 62.68515319444949
vertex 130.59999999999962 127.88583150516709 61.1851531944495
vertex 130.59999999999962 127.88583150516709 62.68515319444949
endloop
endfacet
facet normal -0.13052619222005257 -0.9914448613738103 -1.449131839193514e-17
outer loop
vertex 130.59999999999962 127.88583150516709 61.1851531944495
vertex 129.04708572938452 128.0902765474327 62.68515319444949
vertex 129.04708572938452 128.0902765474327 61.1851531944495
endloop
endfacet
facet normal -0.9914448613738105 -0.13052619222005152 -1.1007249127435009e-16
outer loop
vertex 124.59999999999961 133.8858315051671 61.1851531944495
vertex 124.80444504226521 132.33291723455196 62.68515319444949
vertex 124.59999999999961 133.8858315051671 62.68515319444949
endloop
endfacet
facet normal -0.9914448613738105 -0.13052619222005152 -1.1007249127435009e-16
outer loop
vertex 124.80444504226521 132.33291723455196 62.68515319444949
vertex 124.59999999999961 133.8858315051671 61.1851531944495
vertex 124.80444504226521 132.33291723455196 61.1851531944495
endloop
endfacet
facet normal -0.9238795325112871 -0.382683432365089 -1.0257123289739568e-16
outer loop
vertex 124.80444504226521 132.33291723455196 61.1851531944495
vertex 125.40384757729298 130.8858315051671 62.68515319444949
vertex 124.80444504226521 132.33291723455196 62.68515319444949
endloop
endfacet
facet normal -0.9238795325112871 -0.382683432365089 -1.0257123289739568e-16
outer loop
vertex 125.40384757729298 130.8858315051671 62.68515319444949
vertex 124.80444504226521 132.33291723455196 61.1851531944495
vertex 125.40384757729298 130.8858315051671 61.1851531944495
endloop
endfacet
facet normal -0.7933533402912345 -0.6087614290087217 -8.807991450546054e-17
outer loop
vertex 125.40384757729298 130.8858315051671 61.1851531944495
vertex 126.35735931288033 129.6431908180478 62.68515319444949
vertex 125.40384757729298 130.8858315051671 62.68515319444949
endloop
endfacet
facet normal -0.7933533402912345 -0.6087614290087217 -8.807991450546054e-17
outer loop
vertex 126.35735931288033 129.6431908180478 62.68515319444949
vertex 125.40384757729298 130.8858315051671 61.1851531944495
vertex 126.35735931288033 129.6431908180478 61.1851531944495
endloop
endfacet
facet normal -0.6087614290087197 -0.7933533402912359 -6.758609549891932e-17
outer loop
vertex 126.35735931288033 129.6431908180478 62.68515319444949
vertex 127.59999999999962 128.68967908246046 61.1851531944495
vertex 127.59999999999962 128.68967908246046 62.68515319444949
endloop
endfacet
facet normal -0.6087614290087197 -0.7933533402912359 -6.758609549891932e-17
outer loop
vertex 127.59999999999962 128.68967908246046 61.1851531944495
vertex 126.35735931288033 129.6431908180478 62.68515319444949
vertex 126.35735931288033 129.6431908180478 61.1851531944495
endloop
endfacet
facet normal -0.38268343236508706 -0.9238795325112881 -4.2486395775430354e-17
outer loop
vertex 127.59999999999962 128.68967908246046 62.68515319444949
vertex 129.04708572938452 128.0902765474327 61.1851531944495
vertex 129.04708572938452 128.0902765474327 62.68515319444949
endloop
endfacet
facet normal -0.38268343236508706 -0.9238795325112881 -4.2486395775430354e-17
outer loop
vertex 129.04708572938452 128.0902765474327 61.1851531944495
vertex 127.59999999999962 128.68967908246046 62.68515319444949
vertex 127.59999999999962 128.68967908246046 61.1851531944495
endloop
endfacet
facet normal -1.0 -6.123233995736766e-17 -1.1102230246251565e-16
outer loop
vertex 125.6999999999996 145.4858315051671 54.885153194449494
vertex 125.6999999999996 144.8858315051671 62.68515319444949
vertex 125.6999999999996 145.4858315051671 62.68515319444949
endloop
endfacet
facet normal -1.0 -6.123233995736766e-17 -1.1102230246251565e-16
outer loop
vertex 125.6999999999996 144.8858315051671 62.68515319444949
vertex 125.6999999999996 145.4858315051671 54.885153194449494
vertex 125.6999999999996 144.8858315051671 61.1851531944495
endloop
endfacet
facet normal -1.0 -6.123233995736766e-17 -1.1102230246251565e-16
outer loop
vertex 125.6999999999996 144.8858315051671 61.1851531944495
vertex 125.6999999999996 145.4858315051671 54.885153194449494
vertex 125.6999999999996 144.8858315051671 54.885153194449494
endloop
endfacet
facet normal 0.7933533402912392 -0.6087614290087154 8.807991450546106e-17
outer loop
vertex 126.44307806183433 137.1858315051671 61.1851531944495
vertex 127.20588745030417 138.17994405486252 62.68515319444949
vertex 126.44307806183433 137.1858315051671 62.68515319444949
endloop
endfacet
facet normal 0.7933533402912392 -0.6087614290087154 8.807991450546106e-17
outer loop
vertex 127.20588745030417 138.17994405486252 62.68515319444949
vertex 126.44307806183433 137.1858315051671 61.1851531944495
vertex 127.20588745030417 138.17994405486252 61.1851531944495
endloop
endfacet
facet normal 0.6087614290087214 -0.7933533402912345 6.758609549891952e-17
outer loop
vertex 127.20588745030417 138.17994405486252 62.68515319444949
vertex 128.19999999999962 138.9427534433324 61.1851531944495
vertex 128.19999999999962 138.9427534433324 62.68515319444949
endloop
endfacet
facet normal 0.6087614290087214 -0.7933533402912345 6.758609549891952e-17
outer loop
vertex 128.19999999999962 138.9427534433324 61.1851531944495
vertex 127.20588745030417 138.17994405486252 62.68515319444949
vertex 127.20588745030417 138.17994405486252 61.1851531944495
endloop
endfacet
facet normal 0.3826834323650874 -0.9238795325112878 4.248639577543038e-17
outer loop
vertex 128.19999999999962 138.9427534433324 62.68515319444949
vertex 129.35766858350752 139.42227547135462 61.1851531944495
vertex 129.35766858350752 139.42227547135462 62.68515319444949
endloop
endfacet
facet normal 0.3826834323650874 -0.9238795325112878 4.248639577543038e-17
outer loop
vertex 129.35766858350752 139.42227547135462 61.1851531944495
vertex 128.19999999999962 138.9427534433324 62.68515319444949
vertex 128.19999999999962 138.9427534433324 61.1851531944495
endloop
endfacet
facet normal 1.1138368383860377e-16 8.838279294113054e-18 -1.0
outer loop
vertex 136.59999999999962 139.8858315051671 61.1851531944495
vertex 130.59999999999962 139.58583150516708 61.1851531944495
vertex 124.59999999999961 139.8858315051671 61.1851531944495
endloop
endfacet
facet normal 1.1138368383860377e-16 8.838279294113054e-18 -1.0
outer loop
vertex 130.59999999999962 139.58583150516708 61.1851531944495
vertex 136.59999999999962 139.8858315051671 61.1851531944495
vertex 131.84233141649173 139.42227547135462 61.1851531944495
endloop
endfacet
facet normal 1.1138368383860377e-16 8.838279294113054e-18 -1.0
outer loop
vertex 131.84233141649173 139.42227547135462 61.1851531944495
vertex 136.59999999999962 139.8858315051671 61.1851531944495
vertex 132.99999999999963 138.9427534433324 61.1851531944495
endloop
endfacet
facet normal 1.1138368383860377e-16 8.838279294113054e-18 -1.0
outer loop
vertex 132.99999999999963 138.9427534433324 61.1851531944495
vertex 136.59999999999962 139.8858315051671 61.1851531944495
vertex 133.99411254969505 138.17994405486252 61.1851531944495
endloop
endfacet
facet normal 1.1138368383860377e-16 8.838279294113054e-18 -1.0
outer loop
vertex 133.99411254969505 138.17994405486252 61.1851531944495
vertex 136.59999999999962 139.8858315051671 61.1851531944495
vertex 134.75692193816494 137.1858315051671 61.1851531944495
endloop
endfacet
facet normal 1.1138368383860377e-16 8.838279294113054e-18 -1.0
outer loop
vertex 134.75692193816494 137.1858315051671 61.1851531944495
vertex 136.59999999999962 139.8858315051671 61.1851531944495
vertex 136.59999999999962 133.8858315051671 61.1851531944495
endloop
endfacet
facet normal 1.1138368383860377e-16 8.838279294113054e-18 -1.0
outer loop
vertex 134.75692193816494 137.1858315051671 61.1851531944495
vertex 136.59999999999962 133.8858315051671 61.1851531944495
vertex 135.23644396618715 136.0281629216592 61.1851531944495
endloop
endfacet
facet normal 1.1138368383860377e-16 8.838279294113054e-18 -1.0
outer loop
vertex 135.23644396618715 136.0281629216592 61.1851531944495
vertex 136.59999999999962 133.8858315051671 61.1851531944495
vertex 135.3999999999996 134.7858315051671 61.1851531944495
endloop
endfacet
facet normal 1.1138368383860377e-16 8.838279294113054e-18 -1.0
outer loop
vertex 135.3999999999996 134.7858315051671 61.1851531944495
vertex 136.59999999999962 133.8858315051671 61.1851531944495
vertex 135.23644396618715 133.543500088675 61.1851531944495
endloop
endfacet
facet normal 1.1138368383860377e-16 8.838279294113054e-18 -1.0
outer loop
vertex 135.23644396618715 133.543500088675 61.1851531944495
vertex 136.59999999999962 133.8858315051671 61.1851531944495
vertex 136.39555495773405 132.33291723455196 61.1851531944495
endloop
endfacet
facet normal 1.1138368383860377e-16 8.838279294113054e-18 -1.0
outer loop
vertex 135.23644396618715 133.543500088675 61.1851531944495
vertex 136.39555495773405 132.33291723455196 61.1851531944495
vertex 134.75692193816494 132.3858315051671 61.1851531944495
endloop
endfacet
facet normal 1.1138368383860377e-16 8.838279294113054e-18 -1.0
outer loop
vertex 134.75692193816494 132.3858315051671 61.1851531944495
vertex 136.39555495773405 132.33291723455196 61.1851531944495
vertex 133.99411254969505 131.39171895547167 61.1851531944495
endloop
endfacet
facet normal 1.1138368383860377e-16 8.838279294113054e-18 -1.0
outer loop
vertex 133.99411254969505 131.39171895547167 61.1851531944495
vertex 136.39555495773405 132.33291723455196 61.1851531944495
vertex 135.79615242270626 130.8858315051671 61.1851531944495
endloop
endfacet
facet normal 1.1138368383860377e-16 8.838279294113054e-18 -1.0
outer loop
vertex 133.99411254969505 131.39171895547167 61.1851531944495
vertex 135.79615242270626 130.8858315051671 61.1851531944495
vertex 132.99999999999963 130.62890956700178 61.1851531944495
endloop
endfacet
facet normal 1.1138368383860377e-16 8.838279294113054e-18 -1.0
outer loop
vertex 132.99999999999963 130.62890956700178 61.1851531944495
vertex 135.79615242270626 130.8858315051671 61.1851531944495
vertex 134.8426406871189 129.6431908180478 61.1851531944495
endloop
endfacet
facet normal 1.1138368383860377e-16 8.838279294113054e-18 -1.0
outer loop
vertex 132.99999999999963 130.62890956700178 61.1851531944495
vertex 134.8426406871189 129.6431908180478 61.1851531944495
vertex 131.84233141649173 130.14938753897954 61.1851531944495
endloop
endfacet
facet normal 1.1138368383860377e-16 8.838279294113054e-18 -1.0
outer loop
vertex 131.84233141649173 130.14938753897954 61.1851531944495
vertex 134.8426406871189 129.6431908180478 61.1851531944495
vertex 130.59999999999962 129.98583150516708 61.1851531944495
endloop
endfacet
facet normal 1.1138368383860377e-16 8.838279294113054e-18 -1.0
outer loop
vertex 124.59999999999961 139.8858315051671 61.1851531944495
vertex 126.44307806183433 137.1858315051671 61.1851531944495
vertex 124.59999999999961 133.8858315051671 61.1851531944495
endloop
endfacet
facet normal 1.1138368383860377e-16 8.838279294113054e-18 -1.0
outer loop
vertex 126.44307806183433 137.1858315051671 61.1851531944495
vertex 124.59999999999961 139.8858315051671 61.1851531944495
vertex 127.20588745030417 138.17994405486252 61.1851531944495
endloop
endfacet
facet normal 1.1138368383860377e-16 8.838279294113054e-18 -1.0
outer loop
vertex 127.20588745030417 138.17994405486252 61.1851531944495
vertex 124.59999999999961 139.8858315051671 61.1851531944495
vertex 128.19999999999962 138.9427534433324 61.1851531944495
endloop
endfacet
facet normal 1.1138368383860377e-16 8.838279294113054e-18 -1.0
outer loop
vertex 128.19999999999962 138.9427534433324 61.1851531944495
vertex 124.59999999999961 139.8858315051671 61.1851531944495
vertex 129.35766858350752 139.42227547135462 61.1851531944495
endloop
endfacet
facet normal 1.1138368383860377e-16 8.838279294113054e-18 -1.0
outer loop
vertex 129.35766858350752 139.42227547135462 61.1851531944495
vertex 124.59999999999961 139.8858315051671 61.1851531944495
vertex 130.59999999999962 139.58583150516708 61.1851531944495
endloop
endfacet
facet normal 1.1138368383860377e-16 8.838279294113054e-18 -1.0
outer loop
vertex 124.59999999999961 133.8858315051671 61.1851531944495
vertex 126.44307806183433 137.1858315051671 61.1851531944495
vertex 125.9635560338121 136.0281629216592 61.1851531944495
endloop
endfacet
facet normal 1.1138368383860377e-16 8.838279294113054e-18 -1.0
outer loop
vertex 124.59999999999961 133.8858315051671 61.1851531944495
vertex 125.9635560338121 136.0281629216592 61.1851531944495
vertex 125.79999999999963 134.7858315051671 61.1851531944495
endloop
endfacet
facet normal 1.1138368383860377e-16 8.838279294113054e-18 -1.0
outer loop
vertex 124.59999999999961 133.8858315051671 61.1851531944495
vertex 125.79999999999963 134.7858315051671 61.1851531944495
vertex 125.9635560338121 133.543500088675 61.1851531944495
endloop
endfacet
facet normal 1.1138368383860377e-16 8.838279294113054e-18 -1.0
outer loop
vertex 124.59999999999961 133.8858315051671 61.1851531944495
vertex 125.9635560338121 133.543500088675 61.1851531944495
vertex 124.80444504226521 132.33291723455196 61.1851531944495
endloop
endfacet
facet normal 1.1138368383860377e-16 8.838279294113054e-18 -1.0
outer loop
vertex 124.80444504226521 132.33291723455196 61.1851531944495
vertex 125.9635560338121 133.543500088675 61.1851531944495
vertex 126.44307806183433 132.3858315051671 61.1851531944495
endloop
endfacet
facet normal 1.1138368383860377e-16 8.838279294113054e-18 -1.0
outer loop
vertex 124.80444504226521 132.33291723455196 61.1851531944495
vertex 126.44307806183433 132.3858315051671 61.1851531944495
vertex 127.20588745030419 131.39171895547167 61.1851531944495
endloop
endfacet
facet normal 1.1138368383860377e-16 8.838279294113054e-18 -1.0
outer loop
vertex 124.80444504226521 132.33291723455196 61.1851531944495
vertex 127.20588745030419 131.39171895547167 61.1851531944495
vertex 125.40384757729298 130.8858315051671 61.1851531944495
endloop
endfacet
facet normal 1.1138368383860377e-16 8.838279294113054e-18 -1.0
outer loop
vertex 125.40384757729298 130.8858315051671 61.1851531944495
vertex 127.20588745030419 131.39171895547167 61.1851531944495
vertex 128.19999999999962 130.62890956700178 61.1851531944495
endloop
endfacet
facet normal 1.1138368383860377e-16 8.838279294113054e-18 -1.0
outer loop
vertex 125.40384757729298 130.8858315051671 61.1851531944495
vertex 128.19999999999962 130.62890956700178 61.1851531944495
vertex 126.35735931288033 129.6431908180478 61.1851531944495
endloop
endfacet
facet normal 1.1138368383860377e-16 8.838279294113054e-18 -1.0
outer loop
vertex 126.35735931288033 129.6431908180478 61.1851531944495
vertex 128.19999999999962 130.62890956700178 61.1851531944495
vertex 129.35766858350752 130.14938753897954 61.1851531944495
endloop
endfacet
facet normal 1.1138368383860377e-16 8.838279294113054e-18 -1.0
outer loop
vertex 126.35735931288033 129.6431908180478 61.1851531944495
vertex 129.35766858350752 130.14938753897954 61.1851531944495
vertex 130.59999999999962 129.98583150516708 61.1851531944495
endloop
endfacet
facet normal 1.1138368383860377e-16 8.838279294113054e-18 -1.0
outer loop
vertex 126.35735931288033 129.6431908180478 61.1851531944495
vertex 130.59999999999962 129.98583150516708 61.1851531944495
vertex 134.8426406871189 129.6431908180478 61.1851531944495
endloop
endfacet
facet normal 1.1138368383860377e-16 8.838279294113054e-18 -1.0
outer loop
vertex 126.35735931288033 129.6431908180478 61.1851531944495
vertex 134.8426406871189 129.6431908180478 61.1851531944495
vertex 133.59999999999962 128.68967908246046 61.1851531944495
endloop
endfacet
facet normal 1.1138368383860377e-16 8.838279294113054e-18 -1.0
outer loop
vertex 126.35735931288033 129.6431908180478 61.1851531944495
vertex 133.59999999999962 128.68967908246046 61.1851531944495
vertex 127.59999999999962 128.68967908246046 61.1851531944495
endloop
endfacet
facet normal 1.1138368383860377e-16 8.838279294113054e-18 -1.0
outer loop
vertex 127.59999999999962 128.68967908246046 61.1851531944495
vertex 133.59999999999962 128.68967908246046 61.1851531944495
vertex 132.15291427061476 128.0902765474327 61.1851531944495
endloop
endfacet
facet normal 1.1138368383860377e-16 8.838279294113054e-18 -1.0
outer loop
vertex 127.59999999999962 128.68967908246046 61.1851531944495
vertex 132.15291427061476 128.0902765474327 61.1851531944495
vertex 129.04708572938452 128.0902765474327 61.1851531944495
endloop
endfacet
facet normal 1.1138368383860377e-16 8.838279294113054e-18 -1.0
outer loop
vertex 129.04708572938452 128.0902765474327 61.1851531944495
vertex 132.15291427061476 128.0902765474327 61.1851531944495
vertex 130.59999999999962 127.88583150516709 61.1851531944495
endloop
endfacet
facet normal 0.13052619222005177 -0.9914448613738105 1.449131839193504e-17
outer loop
vertex 129.35766858350752 139.42227547135462 62.68515319444949
vertex 130.59999999999962 139.58583150516708 61.1851531944495
vertex 130.59999999999962 139.58583150516708 62.68515319444949
endloop
endfacet
facet normal 0.13052619222005177 -0.9914448613738105 1.449131839193504e-17
outer loop
vertex 130.59999999999962 139.58583150516708 61.1851531944495
vertex 129.35766858350752 139.42227547135462 62.68515319444949
vertex 129.35766858350752 139.42227547135462 61.1851531944495
endloop
endfacet
facet normal 1.0 6.123233995736766e-17 1.1102230246251565e-16
outer loop
vertex 136.59999999999962 133.8858315051671 61.1851531944495
vertex 136.59999999999962 144.8858315051671 62.68515319444949
vertex 136.59999999999962 133.8858315051671 62.68515319444949
endloop
endfacet
facet normal 1.0 6.123233995736766e-17 1.1102230246251565e-16
outer loop
vertex 136.59999999999962 144.8858315051671 62.68515319444949
vertex 136.59999999999962 133.8858315051671 61.1851531944495
vertex 136.59999999999962 144.8858315051671 61.1851531944495
endloop
endfacet
facet normal 1.0 6.123233995736766e-17 1.1102230246251565e-16
outer loop
vertex 136.59999999999962 144.8858315051671 61.1851531944495
vertex 136.59999999999962 133.8858315051671 61.1851531944495
vertex 136.59999999999962 139.8858315051671 61.1851531944495
endloop
endfacet
facet normal -0.1305261922200511 -0.9914448613738105 -1.4491318391934977e-17
outer loop
vertex 130.59999999999962 139.58583150516708 62.68515319444949
vertex 131.84233141649173 139.42227547135462 61.1851531944495
vertex 131.84233141649173 139.42227547135462 62.68515319444949
endloop
endfacet
facet normal -0.1305261922200511 -0.9914448613738105 -1.4491318391934977e-17
outer loop
vertex 131.84233141649173 139.42227547135462 61.1851531944495
vertex 130.59999999999962 139.58583150516708 62.68515319444949
vertex 130.59999999999962 139.58583150516708 61.1851531944495
endloop
endfacet
facet normal -6.123233995736766e-17 1.0 -0.0
outer loop
vertex 135.49999999999963 144.8858315051671 61.1851531944495
vertex 136.59999999999962 144.8858315051671 62.68515319444949
vertex 136.59999999999962 144.8858315051671 61.1851531944495
endloop
endfacet
facet normal -6.123233995736766e-17 1.0 -0.0
outer loop
vertex 136.59999999999962 144.8858315051671 62.68515319444949
vertex 135.49999999999963 144.8858315051671 61.1851531944495
vertex 135.49999999999963 144.8858315051671 62.68515319444949
endloop
endfacet
facet normal -6.123233995736781e-17 1.0 1.334569474162542e-15
outer loop
vertex 125.6999999999996 145.4858315051671 54.885153194449494
vertex 135.49999999999963 145.4858315051671 62.68515319444949
vertex 135.49999999999963 145.4858315051671 54.885153194449494
endloop
endfacet
facet normal -6.123233995736781e-17 1.0 1.334569474162542e-15
outer loop
vertex 135.49999999999963 145.4858315051671 62.68515319444949
vertex 125.6999999999996 145.4858315051671 54.885153194449494
vertex 125.6999999999996 145.4858315051671 62.68515319444949
endloop
endfacet
facet normal 1.1102230246251565e-16 6.798155367234455e-33 -1.0
outer loop
vertex 136.59999999999962 139.8858315051671 61.1851531944495
vertex 135.49999999999963 144.8858315051671 61.1851531944495
vertex 136.59999999999962 144.8858315051671 61.1851531944495
endloop
endfacet
facet normal 1.1102230246251565e-16 6.798155367234455e-33 -1.0
outer loop
vertex 135.49999999999963 144.8858315051671 61.1851531944495
vertex 136.59999999999962 139.8858315051671 61.1851531944495
vertex 134.49999999999963 144.8858315051671 61.1851531944495
endloop
endfacet
facet normal -6.123233995736766e-17 1.0 -0.0
outer loop
vertex 124.59999999999961 144.8858315051671 61.1851531944495
vertex 125.6999999999996 144.8858315051671 62.68515319444949
vertex 125.6999999999996 144.8858315051671 61.1851531944495
endloop
endfacet
facet normal -6.123233995736766e-17 1.0 -0.0
outer loop
vertex 125.6999999999996 144.8858315051671 62.68515319444949
vertex 124.59999999999961 144.8858315051671 61.1851531944495
vertex 124.59999999999961 144.8858315051671 62.68515319444949
endloop
endfacet
facet normal -0.6087614290087244 -0.7933533402912323 -6.758609549891985e-17
outer loop
vertex 132.99999999999963 138.9427534433324 62.68515319444949
vertex 133.99411254969505 138.17994405486252 61.1851531944495
vertex 133.99411254969505 138.17994405486252 62.68515319444949
endloop
endfacet
facet normal -0.6087614290087244 -0.7933533402912323 -6.758609549891985e-17
outer loop
vertex 133.99411254969505 138.17994405486252 61.1851531944495
vertex 132.99999999999963 138.9427534433324 62.68515319444949
vertex 132.99999999999963 138.9427534433324 61.1851531944495
endloop
endfacet
facet normal 1.1102230246251565e-16 6.798155367234455e-33 -1.0
outer loop
vertex 124.59999999999961 139.8858315051671 61.1851531944495
vertex 125.6999999999996 144.8858315051671 61.1851531944495
vertex 126.6999999999996 144.8858315051671 61.1851531944495
endloop
endfacet
facet normal 1.1102230246251565e-16 6.798155367234455e-33 -1.0
outer loop
vertex 125.6999999999996 144.8858315051671 61.1851531944495
vertex 124.59999999999961 139.8858315051671 61.1851531944495
vertex 124.59999999999961 144.8858315051671 61.1851531944495
endloop
endfacet
facet normal 0.9914448613738114 -0.1305261922200449 1.1007249127435019e-16
outer loop
vertex 125.79999999999963 134.7858315051671 61.1851531944495
vertex 125.9635560338121 136.0281629216592 62.68515319444949
vertex 125.79999999999963 134.7858315051671 62.68515319444949
endloop
endfacet
facet normal 0.9914448613738114 -0.1305261922200449 1.1007249127435019e-16
outer loop
vertex 125.9635560338121 136.0281629216592 62.68515319444949
vertex 125.79999999999963 134.7858315051671 61.1851531944495
vertex 125.9635560338121 136.0281629216592 61.1851531944495
endloop
endfacet
facet normal 0.6087614290087165 0.7933533402912385 6.758609549891898e-17
outer loop
vertex 127.20588745030419 131.39171895547167 61.1851531944495
vertex 128.19999999999962 130.62890956700178 62.68515319444949
vertex 128.19999999999962 130.62890956700178 61.1851531944495
endloop
endfacet
facet normal 0.6087614290087165 0.7933533402912385 6.758609549891898e-17
outer loop
vertex 128.19999999999962 130.62890956700178 62.68515319444949
vertex 127.20588745030419 131.39171895547167 61.1851531944495
vertex 127.20588745030419 131.39171895547167 62.68515319444949
endloop
endfacet
endsolid Plotter
