solid Plotter
facet normal -0.9238795325112892 -0.38268343236508406 0.0
outer loop
vertex 135.18814767487268 137.0152219694041 80.48515319444974
vertex 134.7136206679757 138.16083150516715 76.48515319444972
vertex 135.18814767487268 137.0152219694041 76.48515319444972
endloop
endfacet
facet normal -0.9238795325112892 -0.38268343236508406 0.0
outer loop
vertex 134.7136206679757 138.16083150516715 76.48515319444972
vertex 135.18814767487268 137.0152219694041 80.48515319444974
vertex 134.7136206679757 138.16083150516715 80.48515319444974
endloop
endfacet
facet normal -0.99144486137381 -0.13052619222005554 0.0
outer loop
vertex 135.34999999999962 135.78583150516715 80.48515319444974
vertex 135.18814767487268 137.0152219694041 76.48515319444972
vertex 135.34999999999962 135.78583150516715 76.48515319444972
endloop
endfacet
facet normal -0.99144486137381 -0.13052619222005554 0.0
outer loop
vertex 135.18814767487268 137.0152219694041 76.48515319444972
vertex 135.34999999999962 135.78583150516715 80.48515319444974
vertex 135.18814767487268 137.0152219694041 80.48515319444974
endloop
endfacet
facet normal -1.0 6.123233995736766e-17 0.0
outer loop
vertex 131.5999999999996 129.41748400275452 77.98515319444972
vertex 131.5999999999996 131.16748400275452 76.48515319444972
vertex 131.5999999999996 129.41748400275452 76.48515319444972
endloop
endfacet
facet normal -1.0 6.123233995736766e-17 0.0
outer loop
vertex 131.5999999999996 131.16748400275452 76.48515319444972
vertex 131.5999999999996 129.41748400275452 77.98515319444972
vertex 131.5999999999996 130.16748400275452 77.98515319444972
endloop
endfacet
facet normal -1.0 6.123233995736766e-17 0.0
outer loop
vertex 131.5999999999996 131.16748400275452 76.48515319444972
vertex 131.5999999999996 130.16748400275452 77.98515319444972
vertex 131.5999999999996 131.16748400275452 80.48515319444974
endloop
endfacet
facet normal -1.0 6.123233995736766e-17 0.0
outer loop
vertex 131.5999999999996 131.16748400275452 80.48515319444974
vertex 131.5999999999996 130.16748400275452 77.98515319444972
vertex 131.5999999999996 130.16748400275452 80.48515319444974
endloop
endfacet
facet normal -0.7933533402912344 0.6087614290087217 9.681998618856315e-32
outer loop
vertex 125.62035392823907 138.66083150516712 80.48515319444974
vertex 126.53413600817696 139.85169549698978 77.98515319444972
vertex 125.62035392823907 138.66083150516712 77.98515319444972
endloop
endfacet
facet normal -0.7933533402912344 0.6087614290087217 9.681998618856315e-32
outer loop
vertex 126.53413600817696 139.85169549698978 77.98515319444972
vertex 125.62035392823907 138.66083150516712 80.48515319444974
vertex 126.53413600817696 139.85169549698978 80.48515319444974
endloop
endfacet
facet normal 0.1305261922200535 -0.9914448613738103 7.304077323234739e-19
outer loop
vertex 131.5999999999996 130.16748400275452 80.48515319444974
vertex 132.0882095093391 130.231758004005 77.98515319444972
vertex 132.0882095093391 130.231758004005 80.48515319444974
endloop
endfacet
facet normal 0.1305261922200535 -0.9914448613738103 7.304077323234739e-19
outer loop
vertex 132.0882095093391 130.231758004005 77.98515319444972
vertex 131.5999999999996 130.16748400275452 80.48515319444974
vertex 131.5999999999996 130.16748400275452 77.98515319444972
endloop
endfacet
facet normal 0.9238795325112827 -0.38268343236509983 0.0
outer loop
vertex 126.48637933202353 138.16083150516715 80.48515319444974
vertex 126.01185232512654 137.0152219694041 76.48515319444972
vertex 126.48637933202353 138.16083150516715 76.48515319444972
endloop
endfacet
facet normal 0.9238795325112827 -0.38268343236509983 0.0
outer loop
vertex 126.01185232512654 137.0152219694041 76.48515319444972
vertex 126.48637933202353 138.16083150516715 80.48515319444974
vertex 126.01185232512654 137.0152219694041 80.48515319444974
endloop
endfacet
facet normal 0.7933533402912379 -0.6087614290087172 0.0
outer loop
vertex 127.24124278936351 139.14458871580325 80.48515319444974
vertex 126.48637933202353 138.16083150516715 76.48515319444972
vertex 127.24124278936351 139.14458871580325 76.48515319444972
endloop
endfacet
facet normal 0.7933533402912379 -0.6087614290087172 0.0
outer loop
vertex 126.48637933202353 138.16083150516715 76.48515319444972
vertex 127.24124278936351 139.14458871580325 80.48515319444974
vertex 126.48637933202353 138.16083150516715 80.48515319444974
endloop
endfacet
facet normal 0.6087614290087223 -0.7933533402912339 6.30891312995351e-32
outer loop
vertex 133.4749999999996 130.80618543340663 80.48515319444974
vertex 134.66586399182225 131.71996751334447 77.98515319444972
vertex 134.66586399182225 131.71996751334447 80.48515319444974
endloop
endfacet
facet normal 0.6087614290087223 -0.7933533402912339 6.30891312995351e-32
outer loop
vertex 134.66586399182225 131.71996751334447 77.98515319444972
vertex 133.4749999999996 130.80618543340663 80.48515319444974
vertex 133.4749999999996 130.80618543340663 77.98515319444972
endloop
endfacet
facet normal 0.9914448613738105 -0.13052619222005116 0.0
outer loop
vertex 126.01185232512654 137.0152219694041 80.48515319444974
vertex 125.8499999999996 135.78583150516715 76.48515319444972
vertex 126.01185232512654 137.0152219694041 76.48515319444972
endloop
endfacet
facet normal 0.9914448613738105 -0.13052619222005116 0.0
outer loop
vertex 125.8499999999996 135.78583150516715 76.48515319444972
vertex 126.01185232512654 137.0152219694041 80.48515319444974
vertex 125.8499999999996 135.78583150516715 80.48515319444974
endloop
endfacet
facet normal 0.9914448613738107 0.13052619222005046 0.0
outer loop
vertex 125.8499999999996 135.78583150516715 80.48515319444974
vertex 126.01185232512654 134.55644104093014 76.48515319444972
vertex 125.8499999999996 135.78583150516715 76.48515319444972
endloop
endfacet
facet normal 0.9914448613738107 0.13052619222005046 0.0
outer loop
vertex 126.01185232512654 134.55644104093014 76.48515319444972
vertex 125.8499999999996 135.78583150516715 80.48515319444974
vertex 126.01185232512654 134.55644104093014 80.48515319444974
endloop
endfacet
facet normal 0.9238795325112822 0.3826834323651012 0.0
outer loop
vertex 126.01185232512654 134.55644104093014 80.48515319444974
vertex 126.48637933202353 133.41083150516715 76.48515319444972
vertex 126.01185232512654 134.55644104093014 76.48515319444972
endloop
endfacet
facet normal 0.9238795325112822 0.3826834323651012 0.0
outer loop
vertex 126.48637933202353 133.41083150516715 76.48515319444972
vertex 126.01185232512654 134.55644104093014 80.48515319444974
vertex 126.48637933202353 133.41083150516715 80.48515319444974
endloop
endfacet
facet normal 0.793353340291243 0.6087614290087104 0.0
outer loop
vertex 126.48637933202353 133.41083150516715 80.48515319444974
vertex 127.24124278936351 132.42707429453105 76.48515319444972
vertex 126.48637933202353 133.41083150516715 76.48515319444972
endloop
endfacet
facet normal 0.793353340291243 0.6087614290087104 0.0
outer loop
vertex 127.24124278936351 132.42707429453105 76.48515319444972
vertex 126.48637933202353 133.41083150516715 80.48515319444974
vertex 127.24124278936351 132.42707429453105 80.48515319444974
endloop
endfacet
facet normal 0.6087614290087184 0.7933533402912368 0.0
outer loop
vertex 127.24124278936351 132.42707429453105 76.48515319444972
vertex 128.2249999999996 131.67221083719105 80.48515319444974
vertex 128.2249999999996 131.67221083719105 76.48515319444972
endloop
endfacet
facet normal 0.6087614290087184 0.7933533402912368 0.0
outer loop
vertex 128.2249999999996 131.67221083719105 80.48515319444974
vertex 127.24124278936351 132.42707429453105 76.48515319444972
vertex 127.24124278936351 132.42707429453105 80.48515319444974
endloop
endfacet
facet normal 0.3826834323650913 0.9238795325112862 0.0
outer loop
vertex 128.2249999999996 131.67221083719105 76.48515319444972
vertex 129.37060953576264 131.19768383029404 80.48515319444974
vertex 129.37060953576264 131.19768383029404 76.48515319444972
endloop
endfacet
facet normal 0.3826834323650913 0.9238795325112862 0.0
outer loop
vertex 129.37060953576264 131.19768383029404 80.48515319444974
vertex 128.2249999999996 131.67221083719105 76.48515319444972
vertex 128.2249999999996 131.67221083719105 80.48515319444974
endloop
endfacet
facet normal 0.1305261922200504 0.9914448613738107 0.0
outer loop
vertex 129.37060953576264 131.19768383029404 76.48515319444972
vertex 129.5999999999996 131.16748400275452 80.48515319444974
vertex 129.5999999999996 131.16748400275452 76.48515319444972
endloop
endfacet
facet normal 0.1305261922200504 0.9914448613738107 0.0
outer loop
vertex 129.5999999999996 131.16748400275452 80.48515319444974
vertex 129.37060953576264 131.19768383029404 76.48515319444972
vertex 129.37060953576264 131.19768383029404 80.48515319444974
endloop
endfacet
facet normal -0.13052619222005624 -0.9914448613738098 0.0
outer loop
vertex 129.1117904906601 130.231758004005 80.48515319444974
vertex 129.5999999999996 130.16748400275452 77.98515319444972
vertex 129.5999999999996 130.16748400275452 80.48515319444974
endloop
endfacet
facet normal -0.13052619222005624 -0.9914448613738098 0.0
outer loop
vertex 129.5999999999996 130.16748400275452 77.98515319444972
vertex 129.1117904906601 130.231758004005 80.48515319444974
vertex 129.1117904906601 130.231758004005 77.98515319444972
endloop
endfacet
facet normal 0.9238795325112863 0.3826834323650908 0.0
outer loop
vertex 135.57964607176012 138.66083150516712 80.48515319444974
vertex 136.15407350116175 137.27404101450662 77.98515319444972
vertex 135.57964607176012 138.66083150516712 77.98515319444972
endloop
endfacet
facet normal 0.9238795325112863 0.3826834323650908 0.0
outer loop
vertex 136.15407350116175 137.27404101450662 77.98515319444972
vertex 135.57964607176012 138.66083150516712 80.48515319444974
vertex 136.15407350116175 137.27404101450662 80.48515319444974
endloop
endfacet
facet normal 0.9914448613738105 0.1305261922200515 1.3692413757664156e-31
outer loop
vertex 136.15407350116175 137.27404101450662 80.48515319444974
vertex 136.3499999999996 135.78583150516715 77.98515319444972
vertex 136.15407350116175 137.27404101450662 77.98515319444972
endloop
endfacet
facet normal 0.9914448613738105 0.1305261922200515 1.3692413757664156e-31
outer loop
vertex 136.3499999999996 135.78583150516715 77.98515319444972
vertex 136.15407350116175 137.27404101450662 80.48515319444974
vertex 136.3499999999996 135.78583150516715 80.48515319444974
endloop
endfacet
facet normal 0.9914448613738107 -0.13052619222005013 -1.5768357391046043e-31
outer loop
vertex 136.3499999999996 135.78583150516715 80.48515319444974
vertex 136.15407350116175 134.29762199582763 77.98515319444972
vertex 136.3499999999996 135.78583150516715 77.98515319444972
endloop
endfacet
facet normal 0.9914448613738107 -0.13052619222005013 -1.5768357391046043e-31
outer loop
vertex 136.15407350116175 134.29762199582763 77.98515319444972
vertex 136.3499999999996 135.78583150516715 80.48515319444974
vertex 136.15407350116175 134.29762199582763 80.48515319444974
endloop
endfacet
facet normal 1.0 -6.123233995736766e-17 0.0
outer loop
vertex 129.5999999999996 131.16748400275452 76.48515319444972
vertex 129.5999999999996 130.16748400275452 77.98515319444972
vertex 129.5999999999996 129.41748400275452 76.48515319444972
endloop
endfacet
facet normal 1.0 -6.123233995736766e-17 0.0
outer loop
vertex 129.5999999999996 130.16748400275452 77.98515319444972
vertex 129.5999999999996 131.16748400275452 76.48515319444972
vertex 129.5999999999996 131.16748400275452 80.48515319444974
endloop
endfacet
facet normal 1.0 -6.123233995736766e-17 0.0
outer loop
vertex 129.5999999999996 130.16748400275452 77.98515319444972
vertex 129.5999999999996 131.16748400275452 80.48515319444974
vertex 129.5999999999996 130.16748400275452 80.48515319444974
endloop
endfacet
facet normal 1.0 -6.123233995736766e-17 0.0
outer loop
vertex 129.5999999999996 129.41748400275452 77.98515319444972
vertex 129.5999999999996 129.41748400275452 76.48515319444972
vertex 129.5999999999996 130.16748400275452 77.98515319444972
endloop
endfacet
facet normal -0.38268343236508895 0.9238795325112871 0.0
outer loop
vertex 126.59999999999961 142.71403473544262 76.48515319444972
vertex 128.52944763917944 143.51323811547968 77.98515319444972
vertex 128.52944763917944 143.51323811547968 76.48515319444972
endloop
endfacet
facet normal -0.38268343236508895 0.9238795325112871 0.0
outer loop
vertex 128.52944763917944 143.51323811547968 77.98515319444972
vertex 126.59999999999961 142.71403473544262 76.48515319444972
vertex 126.59999999999961 142.71403473544262 77.98515319444972
endloop
endfacet
facet normal -0.13052619222004944 0.9914448613738107 0.0
outer loop
vertex 128.52944763917944 143.51323811547968 76.48515319444972
vertex 130.5999999999996 143.78583150516712 77.98515319444972
vertex 130.5999999999996 143.78583150516712 76.48515319444972
endloop
endfacet
facet normal -0.13052619222004944 0.9914448613738107 0.0
outer loop
vertex 130.5999999999996 143.78583150516712 77.98515319444972
vertex 128.52944763917944 143.51323811547968 76.48515319444972
vertex 128.52944763917944 143.51323811547968 77.98515319444972
endloop
endfacet
facet normal 0.13052619222004885 0.9914448613738107 0.0
outer loop
vertex 130.5999999999996 143.78583150516712 76.48515319444972
vertex 132.67055236081978 143.51323811547968 77.98515319444972
vertex 132.67055236081978 143.51323811547968 76.48515319444972
endloop
endfacet
facet normal 0.13052619222004885 0.9914448613738107 0.0
outer loop
vertex 132.67055236081978 143.51323811547968 77.98515319444972
vertex 130.5999999999996 143.78583150516712 76.48515319444972
vertex 130.5999999999996 143.78583150516712 77.98515319444972
endloop
endfacet
facet normal 0.38268343236508906 0.9238795325112871 0.0
outer loop
vertex 132.67055236081978 143.51323811547968 76.48515319444972
vertex 134.59999999999962 142.71403473544262 77.98515319444972
vertex 134.59999999999962 142.71403473544262 76.48515319444972
endloop
endfacet
facet normal 0.38268343236508906 0.9238795325112871 0.0
outer loop
vertex 134.59999999999962 142.71403473544262 77.98515319444972
vertex 132.67055236081978 143.51323811547968 76.48515319444972
vertex 132.67055236081978 143.51323811547968 77.98515319444972
endloop
endfacet
facet normal 0.6087614290087213 0.7933533402912347 0.0
outer loop
vertex 134.59999999999962 142.71403473544262 76.48515319444972
vertex 136.256854249492 141.44268575465952 77.98515319444972
vertex 136.256854249492 141.44268575465952 76.48515319444972
endloop
endfacet
facet normal 0.6087614290087213 0.7933533402912347 0.0
outer loop
vertex 136.256854249492 141.44268575465952 77.98515319444972
vertex 134.59999999999962 142.71403473544262 76.48515319444972
vertex 134.59999999999962 142.71403473544262 77.98515319444972
endloop
endfacet
facet normal 0.7933533402912343 0.6087614290087218 0.0
outer loop
vertex 136.256854249492 141.44268575465952 77.98515319444972
vertex 137.52820323027512 139.78583150516712 76.48515319444972
vertex 136.256854249492 141.44268575465952 76.48515319444972
endloop
endfacet
facet normal 0.7933533402912343 0.6087614290087218 0.0
outer loop
vertex 137.52820323027512 139.78583150516712 76.48515319444972
vertex 136.256854249492 141.44268575465952 77.98515319444972
vertex 137.52820323027512 139.78583150516712 77.98515319444972
endloop
endfacet
facet normal 0.9238795325112886 0.38268343236508534 0.0
outer loop
vertex 137.52820323027512 139.78583150516712 77.98515319444972
vertex 138.32740661031215 137.8563838659873 76.48515319444972
vertex 137.52820323027512 139.78583150516712 76.48515319444972
endloop
endfacet
facet normal 0.9238795325112886 0.38268343236508534 0.0
outer loop
vertex 138.32740661031215 137.8563838659873 76.48515319444972
vertex 137.52820323027512 139.78583150516712 77.98515319444972
vertex 138.32740661031215 137.8563838659873 77.98515319444972
endloop
endfacet
facet normal 1.4712155812313189e-15 1.0 0.0
outer loop
vertex 129.5999999999996 129.41748400275452 76.48515319444972
vertex 131.5999999999996 129.41748400275452 77.98515319444972
vertex 131.5999999999996 129.41748400275452 76.48515319444972
endloop
endfacet
facet normal 1.4712155812313189e-15 1.0 0.0
outer loop
vertex 131.5999999999996 129.41748400275452 77.98515319444972
vertex 129.5999999999996 129.41748400275452 76.48515319444972
vertex 129.5999999999996 129.41748400275452 77.98515319444972
endloop
endfacet
facet normal 0.99144486137381 -0.13052619222005418 0.0
outer loop
vertex 138.59999999999962 135.78583150516715 77.98515319444972
vertex 138.32740661031215 133.71527914434697 76.48515319444972
vertex 138.59999999999962 135.78583150516715 76.48515319444972
endloop
endfacet
facet normal 0.99144486137381 -0.13052619222005418 0.0
outer loop
vertex 138.32740661031215 133.71527914434697 76.48515319444972
vertex 138.59999999999962 135.78583150516715 77.98515319444972
vertex 138.32740661031215 133.71527914434697 77.98515319444972
endloop
endfacet
facet normal -0.7933533402912331 -0.6087614290087235 0.0
outer loop
vertex 126.53413600817696 131.7199675133445 80.48515319444974
vertex 125.62035392823907 132.91083150516715 77.98515319444972
vertex 126.53413600817696 131.7199675133445 77.98515319444972
endloop
endfacet
facet normal -0.7933533402912331 -0.6087614290087235 0.0
outer loop
vertex 125.62035392823907 132.91083150516715 77.98515319444972
vertex 126.53413600817696 131.7199675133445 80.48515319444974
vertex 125.62035392823907 132.91083150516715 80.48515319444974
endloop
endfacet
facet normal 0.0 0.0 -1.0
outer loop
vertex 126.59999999999961 128.85762827489162 76.48515319444972
vertex 129.5999999999996 129.41748400275452 76.48515319444972
vertex 131.5999999999996 129.41748400275452 76.48515319444972
endloop
endfacet
facet normal 0.0 0.0 -1.0
outer loop
vertex 129.5999999999996 129.41748400275452 76.48515319444972
vertex 126.59999999999961 128.85762827489162 76.48515319444972
vertex 124.94314575050723 130.12897725567476 76.48515319444972
endloop
endfacet
facet normal 0.0 0.0 -1.0
outer loop
vertex 129.5999999999996 129.41748400275452 76.48515319444972
vertex 124.94314575050723 130.12897725567476 76.48515319444972
vertex 129.5999999999996 131.16748400275452 76.48515319444972
endloop
endfacet
facet normal 0.0 0.0 -1.0
outer loop
vertex 129.5999999999996 131.16748400275452 76.48515319444972
vertex 124.94314575050723 130.12897725567476 76.48515319444972
vertex 123.6717967697241 131.78583150516715 76.48515319444972
endloop
endfacet
facet normal 0.0 0.0 -1.0
outer loop
vertex 129.5999999999996 131.16748400275452 76.48515319444972
vertex 123.6717967697241 131.78583150516715 76.48515319444972
vertex 129.37060953576264 131.19768383029404 76.48515319444972
endloop
endfacet
facet normal 0.0 0.0 -1.0
outer loop
vertex 129.37060953576264 131.19768383029404 76.48515319444972
vertex 123.6717967697241 131.78583150516715 76.48515319444972
vertex 128.2249999999996 131.67221083719105 76.48515319444972
endloop
endfacet
facet normal 0.0 0.0 -1.0
outer loop
vertex 128.2249999999996 131.67221083719105 76.48515319444972
vertex 123.6717967697241 131.78583150516715 76.48515319444972
vertex 127.24124278936351 132.42707429453105 76.48515319444972
endloop
endfacet
facet normal 0.0 0.0 -1.0
outer loop
vertex 127.24124278936351 132.42707429453105 76.48515319444972
vertex 123.6717967697241 131.78583150516715 76.48515319444972
vertex 122.87259338968707 133.715279144347 76.48515319444972
endloop
endfacet
facet normal 0.0 0.0 -1.0
outer loop
vertex 127.24124278936351 132.42707429453105 76.48515319444972
vertex 122.87259338968707 133.715279144347 76.48515319444972
vertex 126.48637933202353 133.41083150516715 76.48515319444972
endloop
endfacet
facet normal 0.0 0.0 -1.0
outer loop
vertex 126.48637933202353 133.41083150516715 76.48515319444972
vertex 122.87259338968707 133.715279144347 76.48515319444972
vertex 126.01185232512654 134.55644104093014 76.48515319444972
endloop
endfacet
facet normal 0.0 0.0 -1.0
outer loop
vertex 126.01185232512654 134.55644104093014 76.48515319444972
vertex 122.87259338968707 133.715279144347 76.48515319444972
vertex 122.59999999999961 135.78583150516715 76.48515319444972
endloop
endfacet
facet normal 0.0 0.0 -1.0
outer loop
vertex 126.01185232512654 134.55644104093014 76.48515319444972
vertex 122.59999999999961 135.78583150516715 76.48515319444972
vertex 125.8499999999996 135.78583150516715 76.48515319444972
endloop
endfacet
facet normal 0.0 0.0 -1.0
outer loop
vertex 125.8499999999996 135.78583150516715 76.48515319444972
vertex 122.59999999999961 135.78583150516715 76.48515319444972
vertex 122.87259338968707 137.8563838659873 76.48515319444972
endloop
endfacet
facet normal 0.0 0.0 -1.0
outer loop
vertex 125.8499999999996 135.78583150516715 76.48515319444972
vertex 122.87259338968707 137.8563838659873 76.48515319444972
vertex 126.01185232512654 137.0152219694041 76.48515319444972
endloop
endfacet
facet normal 0.0 0.0 -1.0
outer loop
vertex 126.01185232512654 137.0152219694041 76.48515319444972
vertex 122.87259338968707 137.8563838659873 76.48515319444972
vertex 126.48637933202353 138.16083150516715 76.48515319444972
endloop
endfacet
facet normal 0.0 0.0 -1.0
outer loop
vertex 126.48637933202353 138.16083150516715 76.48515319444972
vertex 122.87259338968707 137.8563838659873 76.48515319444972
vertex 123.67179676972411 139.78583150516712 76.48515319444972
endloop
endfacet
facet normal 0.0 0.0 -1.0
outer loop
vertex 126.48637933202353 138.16083150516715 76.48515319444972
vertex 123.67179676972411 139.78583150516712 76.48515319444972
vertex 127.24124278936351 139.14458871580325 76.48515319444972
endloop
endfacet
facet normal 0.0 0.0 -1.0
outer loop
vertex 127.24124278936351 139.14458871580325 76.48515319444972
vertex 123.67179676972411 139.78583150516712 76.48515319444972
vertex 128.2249999999996 139.8994521731432 76.48515319444972
endloop
endfacet
facet normal 0.0 0.0 -1.0
outer loop
vertex 128.2249999999996 139.8994521731432 76.48515319444972
vertex 123.67179676972411 139.78583150516712 76.48515319444972
vertex 124.94314575050726 141.44268575465952 76.48515319444972
endloop
endfacet
facet normal 0.0 0.0 -1.0
outer loop
vertex 128.2249999999996 139.8994521731432 76.48515319444972
vertex 124.94314575050726 141.44268575465952 76.48515319444972
vertex 129.37060953576264 140.3739791800402 76.48515319444972
endloop
endfacet
facet normal 0.0 0.0 -1.0
outer loop
vertex 129.37060953576264 140.3739791800402 76.48515319444972
vertex 124.94314575050726 141.44268575465952 76.48515319444972
vertex 130.5999999999996 140.53583150516715 76.48515319444972
endloop
endfacet
facet normal 0.0 0.0 -1.0
outer loop
vertex 130.5999999999996 140.53583150516715 76.48515319444972
vertex 124.94314575050726 141.44268575465952 76.48515319444972
vertex 136.256854249492 141.44268575465952 76.48515319444972
endloop
endfacet
facet normal 0.0 0.0 -1.0
outer loop
vertex 136.256854249492 141.44268575465952 76.48515319444972
vertex 124.94314575050726 141.44268575465952 76.48515319444972
vertex 134.59999999999962 142.71403473544262 76.48515319444972
endloop
endfacet
facet normal 0.0 0.0 -1.0
outer loop
vertex 134.59999999999962 142.71403473544262 76.48515319444972
vertex 124.94314575050726 141.44268575465952 76.48515319444972
vertex 126.59999999999961 142.71403473544262 76.48515319444972
endloop
endfacet
facet normal 0.0 0.0 -1.0
outer loop
vertex 134.59999999999962 142.71403473544262 76.48515319444972
vertex 126.59999999999961 142.71403473544262 76.48515319444972
vertex 128.52944763917944 143.51323811547968 76.48515319444972
endloop
endfacet
facet normal 0.0 0.0 -1.0
outer loop
vertex 134.59999999999962 142.71403473544262 76.48515319444972
vertex 128.52944763917944 143.51323811547968 76.48515319444972
vertex 132.67055236081978 143.51323811547968 76.48515319444972
endloop
endfacet
facet normal 0.0 0.0 -1.0
outer loop
vertex 132.67055236081978 143.51323811547968 76.48515319444972
vertex 128.52944763917944 143.51323811547968 76.48515319444972
vertex 130.5999999999996 143.78583150516712 76.48515319444972
endloop
endfacet
facet normal 0.0 0.0 -1.0
outer loop
vertex 128.52944763917944 128.0584248948546 76.48515319444972
vertex 132.67055236081978 128.0584248948546 76.48515319444972
vertex 130.5999999999996 127.78583150516714 76.48515319444972
endloop
endfacet
facet normal 0.0 0.0 -1.0
outer loop
vertex 132.67055236081978 128.0584248948546 76.48515319444972
vertex 128.52944763917944 128.0584248948546 76.48515319444972
vertex 126.59999999999961 128.85762827489162 76.48515319444972
endloop
endfacet
facet normal 0.0 0.0 -1.0
outer loop
vertex 132.67055236081978 128.0584248948546 76.48515319444972
vertex 126.59999999999961 128.85762827489162 76.48515319444972
vertex 134.59999999999962 128.85762827489162 76.48515319444972
endloop
endfacet
facet normal 0.0 0.0 -1.0
outer loop
vertex 134.59999999999962 128.85762827489162 76.48515319444972
vertex 126.59999999999961 128.85762827489162 76.48515319444972
vertex 131.5999999999996 129.41748400275452 76.48515319444972
endloop
endfacet
facet normal 0.0 0.0 -1.0
outer loop
vertex 134.59999999999962 128.85762827489162 76.48515319444972
vertex 131.5999999999996 129.41748400275452 76.48515319444972
vertex 136.25685424949197 130.12897725567476 76.48515319444972
endloop
endfacet
facet normal 0.0 0.0 -1.0
outer loop
vertex 136.25685424949197 130.12897725567476 76.48515319444972
vertex 131.5999999999996 129.41748400275452 76.48515319444972
vertex 131.5999999999996 131.16748400275452 76.48515319444972
endloop
endfacet
facet normal 0.0 0.0 -1.0
outer loop
vertex 136.25685424949197 130.12897725567476 76.48515319444972
vertex 131.5999999999996 131.16748400275452 76.48515319444972
vertex 137.52820323027512 131.78583150516712 76.48515319444972
endloop
endfacet
facet normal 0.0 0.0 -1.0
outer loop
vertex 137.52820323027512 131.78583150516712 76.48515319444972
vertex 131.5999999999996 131.16748400275452 76.48515319444972
vertex 131.82939046423658 131.19768383029404 76.48515319444972
endloop
endfacet
facet normal 0.0 0.0 -1.0
outer loop
vertex 137.52820323027512 131.78583150516712 76.48515319444972
vertex 131.82939046423658 131.19768383029404 76.48515319444972
vertex 132.9749999999996 131.67221083719105 76.48515319444972
endloop
endfacet
facet normal 0.0 0.0 -1.0
outer loop
vertex 137.52820323027512 131.78583150516712 76.48515319444972
vertex 132.9749999999996 131.67221083719105 76.48515319444972
vertex 133.9587572106357 132.42707429453102 76.48515319444972
endloop
endfacet
facet normal 0.0 0.0 -1.0
outer loop
vertex 137.52820323027512 131.78583150516712 76.48515319444972
vertex 133.9587572106357 132.42707429453102 76.48515319444972
vertex 138.32740661031215 133.71527914434697 76.48515319444972
endloop
endfacet
facet normal 0.0 0.0 -1.0
outer loop
vertex 138.32740661031215 133.71527914434697 76.48515319444972
vertex 133.9587572106357 132.42707429453102 76.48515319444972
vertex 134.7136206679757 133.41083150516715 76.48515319444972
endloop
endfacet
facet normal 0.0 0.0 -1.0
outer loop
vertex 138.32740661031215 133.71527914434697 76.48515319444972
vertex 134.7136206679757 133.41083150516715 76.48515319444972
vertex 135.18814767487268 134.55644104093014 76.48515319444972
endloop
endfacet
facet normal 0.0 0.0 -1.0
outer loop
vertex 138.32740661031215 133.71527914434697 76.48515319444972
vertex 135.18814767487268 134.55644104093014 76.48515319444972
vertex 138.59999999999962 135.78583150516715 76.48515319444972
endloop
endfacet
facet normal 0.0 0.0 -1.0
outer loop
vertex 138.59999999999962 135.78583150516715 76.48515319444972
vertex 135.18814767487268 134.55644104093014 76.48515319444972
vertex 135.34999999999962 135.78583150516715 76.48515319444972
endloop
endfacet
facet normal 0.0 0.0 -1.0
outer loop
vertex 138.59999999999962 135.78583150516715 76.48515319444972
vertex 135.34999999999962 135.78583150516715 76.48515319444972
vertex 135.18814767487268 137.0152219694041 76.48515319444972
endloop
endfacet
facet normal 0.0 0.0 -1.0
outer loop
vertex 138.59999999999962 135.78583150516715 76.48515319444972
vertex 135.18814767487268 137.0152219694041 76.48515319444972
vertex 138.32740661031215 137.8563838659873 76.48515319444972
endloop
endfacet
facet normal 0.0 0.0 -1.0
outer loop
vertex 138.32740661031215 137.8563838659873 76.48515319444972
vertex 135.18814767487268 137.0152219694041 76.48515319444972
vertex 134.7136206679757 138.16083150516715 76.48515319444972
endloop
endfacet
facet normal 0.0 0.0 -1.0
outer loop
vertex 138.32740661031215 137.8563838659873 76.48515319444972
vertex 134.7136206679757 138.16083150516715 76.48515319444972
vertex 137.52820323027512 139.78583150516712 76.48515319444972
endloop
endfacet
facet normal 0.0 0.0 -1.0
outer loop
vertex 137.52820323027512 139.78583150516712 76.48515319444972
vertex 134.7136206679757 138.16083150516715 76.48515319444972
vertex 133.9587572106357 139.14458871580325 76.48515319444972
endloop
endfacet
facet normal 0.0 0.0 -1.0
outer loop
vertex 137.52820323027512 139.78583150516712 76.48515319444972
vertex 133.9587572106357 139.14458871580325 76.48515319444972
vertex 132.9749999999996 139.8994521731432 76.48515319444972
endloop
endfacet
facet normal 0.0 0.0 -1.0
outer loop
vertex 137.52820323027512 139.78583150516712 76.48515319444972
vertex 132.9749999999996 139.8994521731432 76.48515319444972
vertex 136.256854249492 141.44268575465952 76.48515319444972
endloop
endfacet
facet normal 0.0 0.0 -1.0
outer loop
vertex 136.256854249492 141.44268575465952 76.48515319444972
vertex 132.9749999999996 139.8994521731432 76.48515319444972
vertex 131.82939046423658 140.3739791800402 76.48515319444972
endloop
endfacet
facet normal 0.0 0.0 -1.0
outer loop
vertex 136.256854249492 141.44268575465952 76.48515319444972
vertex 131.82939046423658 140.3739791800402 76.48515319444972
vertex 130.5999999999996 140.53583150516715 76.48515319444972
endloop
endfacet
facet normal 0.9238795325112867 -0.3826834323650901 0.0
outer loop
vertex 138.32740661031215 133.71527914434697 77.98515319444972
vertex 137.52820323027512 131.78583150516712 76.48515319444972
vertex 138.32740661031215 133.71527914434697 76.48515319444972
endloop
endfacet
facet normal 0.9238795325112867 -0.3826834323650901 0.0
outer loop
vertex 137.52820323027512 131.78583150516712 76.48515319444972
vertex 138.32740661031215 133.71527914434697 77.98515319444972
vertex 137.52820323027512 131.78583150516712 77.98515319444972
endloop
endfacet
facet normal 0.7933533402912357 -0.6087614290087201 0.0
outer loop
vertex 137.52820323027512 131.78583150516712 77.98515319444972
vertex 136.25685424949197 130.12897725567476 76.48515319444972
vertex 137.52820323027512 131.78583150516712 76.48515319444972
endloop
endfacet
facet normal 0.7933533402912357 -0.6087614290087201 0.0
outer loop
vertex 136.25685424949197 130.12897725567476 76.48515319444972
vertex 137.52820323027512 131.78583150516712 77.98515319444972
vertex 136.25685424949197 130.12897725567476 77.98515319444972
endloop
endfacet
facet normal 0.6087614290087219 -0.7933533402912343 0.0
outer loop
vertex 134.59999999999962 128.85762827489162 77.98515319444972
vertex 136.25685424949197 130.12897725567476 76.48515319444972
vertex 136.25685424949197 130.12897725567476 77.98515319444972
endloop
endfacet
facet normal 0.6087614290087219 -0.7933533402912343 0.0
outer loop
vertex 136.25685424949197 130.12897725567476 76.48515319444972
vertex 134.59999999999962 128.85762827489162 77.98515319444972
vertex 134.59999999999962 128.85762827489162 76.48515319444972
endloop
endfacet
facet normal 0.38268343236508895 -0.9238795325112871 0.0
outer loop
vertex 132.67055236081978 128.0584248948546 77.98515319444972
vertex 134.59999999999962 128.85762827489162 76.48515319444972
vertex 134.59999999999962 128.85762827489162 77.98515319444972
endloop
endfacet
facet normal 0.38268343236508895 -0.9238795325112871 0.0
outer loop
vertex 134.59999999999962 128.85762827489162 76.48515319444972
vertex 132.67055236081978 128.0584248948546 77.98515319444972
vertex 132.67055236081978 128.0584248948546 76.48515319444972
endloop
endfacet
facet normal 0.1305261922200514 -0.9914448613738105 0.0
outer loop
vertex 130.5999999999996 127.78583150516714 77.98515319444972
vertex 132.67055236081978 128.0584248948546 76.48515319444972
vertex 132.67055236081978 128.0584248948546 77.98515319444972
endloop
endfacet
facet normal 0.1305261922200514 -0.9914448613738105 0.0
outer loop
vertex 132.67055236081978 128.0584248948546 76.48515319444972
vertex 130.5999999999996 127.78583150516714 77.98515319444972
vertex 130.5999999999996 127.78583150516714 76.48515319444972
endloop
endfacet
facet normal -0.13052619222005152 -0.9914448613738105 0.0
outer loop
vertex 128.52944763917944 128.0584248948546 77.98515319444972
vertex 130.5999999999996 127.78583150516714 76.48515319444972
vertex 130.5999999999996 127.78583150516714 77.98515319444972
endloop
endfacet
facet normal -0.13052619222005152 -0.9914448613738105 0.0
outer loop
vertex 130.5999999999996 127.78583150516714 76.48515319444972
vertex 128.52944763917944 128.0584248948546 77.98515319444972
vertex 128.52944763917944 128.0584248948546 76.48515319444972
endloop
endfacet
facet normal -0.38268343236509317 -0.9238795325112854 0.0
outer loop
vertex 126.59999999999961 128.85762827489162 77.98515319444972
vertex 128.52944763917944 128.0584248948546 76.48515319444972
vertex 128.52944763917944 128.0584248948546 77.98515319444972
endloop
endfacet
facet normal -0.38268343236509317 -0.9238795325112854 0.0
outer loop
vertex 128.52944763917944 128.0584248948546 76.48515319444972
vertex 126.59999999999961 128.85762827489162 77.98515319444972
vertex 126.59999999999961 128.85762827489162 76.48515319444972
endloop
endfacet
facet normal -0.9238795325112882 -0.3826834323650862 0.0
outer loop
vertex 123.6717967697241 131.78583150516715 77.98515319444972
vertex 122.87259338968707 133.715279144347 76.48515319444972
vertex 123.6717967697241 131.78583150516715 76.48515319444972
endloop
endfacet
facet normal -0.9238795325112882 -0.3826834323650862 0.0
outer loop
vertex 122.87259338968707 133.715279144347 76.48515319444972
vertex 123.6717967697241 131.78583150516715 77.98515319444972
vertex 122.87259338968707 133.715279144347 77.98515319444972
endloop
endfacet
facet normal -0.7933533402912291 -0.6087614290087285 0.0
outer loop
vertex 134.7136206679757 138.16083150516715 80.48515319444974
vertex 133.9587572106357 139.14458871580325 76.48515319444972
vertex 134.7136206679757 138.16083150516715 76.48515319444972
endloop
endfacet
facet normal -0.7933533402912291 -0.6087614290087285 0.0
outer loop
vertex 133.9587572106357 139.14458871580325 76.48515319444972
vertex 134.7136206679757 138.16083150516715 80.48515319444974
vertex 133.9587572106357 139.14458871580325 80.48515319444974
endloop
endfacet
facet normal -0.6087614290087258 -0.7933533402912314 0.0
outer loop
vertex 132.9749999999996 139.8994521731432 80.48515319444974
vertex 133.9587572106357 139.14458871580325 76.48515319444972
vertex 133.9587572106357 139.14458871580325 80.48515319444974
endloop
endfacet
facet normal -0.6087614290087258 -0.7933533402912314 0.0
outer loop
vertex 133.9587572106357 139.14458871580325 76.48515319444972
vertex 132.9749999999996 139.8994521731432 80.48515319444974
vertex 132.9749999999996 139.8994521731432 76.48515319444972
endloop
endfacet
facet normal -0.3826834323650913 -0.9238795325112862 0.0
outer loop
vertex 131.82939046423658 140.3739791800402 80.48515319444974
vertex 132.9749999999996 139.8994521731432 76.48515319444972
vertex 132.9749999999996 139.8994521731432 80.48515319444974
endloop
endfacet
facet normal -0.3826834323650913 -0.9238795325112862 0.0
outer loop
vertex 132.9749999999996 139.8994521731432 76.48515319444972
vertex 131.82939046423658 140.3739791800402 80.48515319444974
vertex 131.82939046423658 140.3739791800402 76.48515319444972
endloop
endfacet
facet normal -0.13052619222005002 -0.9914448613738107 0.0
outer loop
vertex 130.5999999999996 140.53583150516715 80.48515319444974
vertex 131.82939046423658 140.3739791800402 76.48515319444972
vertex 131.82939046423658 140.3739791800402 80.48515319444974
endloop
endfacet
facet normal -0.13052619222005002 -0.9914448613738107 0.0
outer loop
vertex 131.82939046423658 140.3739791800402 76.48515319444972
vertex 130.5999999999996 140.53583150516715 80.48515319444974
vertex 130.5999999999996 140.53583150516715 76.48515319444972
endloop
endfacet
facet normal 0.13052619222005105 -0.9914448613738105 0.0
outer loop
vertex 129.37060953576264 140.3739791800402 80.48515319444974
vertex 130.5999999999996 140.53583150516715 76.48515319444972
vertex 130.5999999999996 140.53583150516715 80.48515319444974
endloop
endfacet
facet normal 0.13052619222005105 -0.9914448613738105 0.0
outer loop
vertex 130.5999999999996 140.53583150516715 76.48515319444972
vertex 129.37060953576264 140.3739791800402 80.48515319444974
vertex 129.37060953576264 140.3739791800402 76.48515319444972
endloop
endfacet
facet normal 0.38268343236508795 -0.9238795325112875 0.0
outer loop
vertex 128.2249999999996 139.8994521731432 80.48515319444974
vertex 129.37060953576264 140.3739791800402 76.48515319444972
vertex 129.37060953576264 140.3739791800402 80.48515319444974
endloop
endfacet
facet normal 0.38268343236508795 -0.9238795325112875 0.0
outer loop
vertex 129.37060953576264 140.3739791800402 76.48515319444972
vertex 128.2249999999996 139.8994521731432 80.48515319444974
vertex 128.2249999999996 139.8994521731432 76.48515319444972
endloop
endfacet
facet normal 0.6087614290087258 -0.7933533402912314 0.0
outer loop
vertex 127.24124278936351 139.14458871580325 80.48515319444974
vertex 128.2249999999996 139.8994521731432 76.48515319444972
vertex 128.2249999999996 139.8994521731432 80.48515319444974
endloop
endfacet
facet normal 0.6087614290087258 -0.7933533402912314 0.0
outer loop
vertex 128.2249999999996 139.8994521731432 76.48515319444972
vertex 127.24124278936351 139.14458871580325 80.48515319444974
vertex 127.24124278936351 139.14458871580325 76.48515319444972
endloop
endfacet
facet normal -0.9914448613738112 -0.1305261922200468 0.0
outer loop
vertex 122.87259338968707 133.715279144347 77.98515319444972
vertex 122.59999999999961 135.78583150516715 76.48515319444972
vertex 122.87259338968707 133.715279144347 76.48515319444972
endloop
endfacet
facet normal -0.9914448613738112 -0.1305261922200468 0.0
outer loop
vertex 122.59999999999961 135.78583150516715 76.48515319444972
vertex 122.87259338968707 133.715279144347 77.98515319444972
vertex 122.59999999999961 135.78583150516715 77.98515319444972
endloop
endfacet
facet normal -0.9914448613738112 0.1305261922200462 0.0
outer loop
vertex 122.59999999999961 135.78583150516715 77.98515319444972
vertex 122.87259338968707 137.8563838659873 76.48515319444972
vertex 122.59999999999961 135.78583150516715 76.48515319444972
endloop
endfacet
facet normal -0.9914448613738112 0.1305261922200462 0.0
outer loop
vertex 122.87259338968707 137.8563838659873 76.48515319444972
vertex 122.59999999999961 135.78583150516715 77.98515319444972
vertex 122.87259338968707 137.8563838659873 77.98515319444972
endloop
endfacet
facet normal -0.9238795325112857 0.38268343236509234 0.0
outer loop
vertex 122.87259338968707 137.8563838659873 77.98515319444972
vertex 123.67179676972411 139.78583150516712 76.48515319444972
vertex 122.87259338968707 137.8563838659873 76.48515319444972
endloop
endfacet
facet normal -0.9238795325112857 0.38268343236509234 0.0
outer loop
vertex 123.67179676972411 139.78583150516712 76.48515319444972
vertex 122.87259338968707 137.8563838659873 77.98515319444972
vertex 123.67179676972411 139.78583150516712 77.98515319444972
endloop
endfacet
facet normal -0.7933533402912331 0.6087614290087235 0.0
outer loop
vertex 123.67179676972411 139.78583150516712 77.98515319444972
vertex 124.94314575050726 141.44268575465952 76.48515319444972
vertex 123.67179676972411 139.78583150516712 76.48515319444972
endloop
endfacet
facet normal -0.7933533402912331 0.6087614290087235 0.0
outer loop
vertex 124.94314575050726 141.44268575465952 76.48515319444972
vertex 123.67179676972411 139.78583150516712 77.98515319444972
vertex 124.94314575050726 141.44268575465952 77.98515319444972
endloop
endfacet
facet normal -0.6087614290087223 0.7933533402912339 0.0
outer loop
vertex 124.94314575050726 141.44268575465952 76.48515319444972
vertex 126.59999999999961 142.71403473544262 77.98515319444972
vertex 126.59999999999961 142.71403473544262 76.48515319444972
endloop
endfacet
facet normal -0.6087614290087223 0.7933533402912339 0.0
outer loop
vertex 126.59999999999961 142.71403473544262 77.98515319444972
vertex 124.94314575050726 141.44268575465952 76.48515319444972
vertex 124.94314575050726 141.44268575465952 77.98515319444972
endloop
endfacet
facet normal -0.13052619222003262 0.9914448613738129 0.0
outer loop
vertex 131.5999999999996 131.16748400275452 76.48515319444972
vertex 131.82939046423658 131.19768383029404 80.48515319444974
vertex 131.82939046423658 131.19768383029404 76.48515319444972
endloop
endfacet
facet normal -0.13052619222003262 0.9914448613738129 0.0
outer loop
vertex 131.82939046423658 131.19768383029404 80.48515319444974
vertex 131.5999999999996 131.16748400275452 76.48515319444972
vertex 131.5999999999996 131.16748400275452 80.48515319444974
endloop
endfacet
facet normal -0.38268343236509 0.9238795325112867 0.0
outer loop
vertex 131.82939046423658 131.19768383029404 76.48515319444972
vertex 132.9749999999996 131.67221083719105 80.48515319444974
vertex 132.9749999999996 131.67221083719105 76.48515319444972
endloop
endfacet
facet normal -0.38268343236509 0.9238795325112867 0.0
outer loop
vertex 132.9749999999996 131.67221083719105 80.48515319444974
vertex 131.82939046423658 131.19768383029404 76.48515319444972
vertex 131.82939046423658 131.19768383029404 80.48515319444974
endloop
endfacet
facet normal -0.6087614290087214 0.7933533402912347 0.0
outer loop
vertex 132.9749999999996 131.67221083719105 76.48515319444972
vertex 133.9587572106357 132.42707429453102 80.48515319444974
vertex 133.9587572106357 132.42707429453102 76.48515319444972
endloop
endfacet
facet normal -0.6087614290087214 0.7933533402912347 0.0
outer loop
vertex 133.9587572106357 132.42707429453102 80.48515319444974
vertex 132.9749999999996 131.67221083719105 76.48515319444972
vertex 132.9749999999996 131.67221083719105 80.48515319444974
endloop
endfacet
facet normal -0.7933533402912316 0.6087614290087253 0.0
outer loop
vertex 133.9587572106357 132.42707429453102 80.48515319444974
vertex 134.7136206679757 133.41083150516715 76.48515319444972
vertex 133.9587572106357 132.42707429453102 76.48515319444972
endloop
endfacet
facet normal -0.7933533402912316 0.6087614290087253 0.0
outer loop
vertex 134.7136206679757 133.41083150516715 76.48515319444972
vertex 133.9587572106357 132.42707429453102 80.48515319444974
vertex 134.7136206679757 133.41083150516715 80.48515319444974
endloop
endfacet
facet normal -0.9238795325112878 0.38268343236508745 0.0
outer loop
vertex 134.7136206679757 133.41083150516715 80.48515319444974
vertex 135.18814767487268 134.55644104093014 76.48515319444972
vertex 134.7136206679757 133.41083150516715 76.48515319444972
endloop
endfacet
facet normal -0.9238795325112878 0.38268343236508745 0.0
outer loop
vertex 135.18814767487268 134.55644104093014 76.48515319444972
vertex 134.7136206679757 133.41083150516715 80.48515319444974
vertex 135.18814767487268 134.55644104093014 80.48515319444974
endloop
endfacet
facet normal -0.99144486137381 0.13052619222005443 0.0
outer loop
vertex 135.18814767487268 134.55644104093014 80.48515319444974
vertex 135.34999999999962 135.78583150516715 76.48515319444972
vertex 135.18814767487268 134.55644104093014 76.48515319444972
endloop
endfacet
facet normal -0.99144486137381 0.13052619222005443 0.0
outer loop
vertex 135.34999999999962 135.78583150516715 76.48515319444972
vertex 135.18814767487268 134.55644104093014 80.48515319444974
vertex 135.34999999999962 135.78583150516715 80.48515319444974
endloop
endfacet
facet normal -0.6087614290087235 0.7933533402912331 0.0
outer loop
vertex 126.53413600817696 139.85169549698978 77.98515319444972
vertex 127.7249999999996 140.76547757692768 80.48515319444974
vertex 127.7249999999996 140.76547757692768 77.98515319444972
endloop
endfacet
facet normal -0.6087614290087235 0.7933533402912331 0.0
outer loop
vertex 127.7249999999996 140.76547757692768 80.48515319444974
vertex 126.53413600817696 139.85169549698978 77.98515319444972
vertex 126.53413600817696 139.85169549698978 80.48515319444974
endloop
endfacet
facet normal -0.38268343236508756 0.9238795325112876 -8.565788468274043e-18
outer loop
vertex 127.7249999999996 140.76547757692768 77.98515319444972
vertex 129.11179049066013 141.33990500632927 80.48515319444974
vertex 129.11179049066013 141.33990500632927 77.98515319444972
endloop
endfacet
facet normal -0.38268343236508756 0.9238795325112876 -8.565788468274043e-18
outer loop
vertex 129.11179049066013 141.33990500632927 80.48515319444974
vertex 127.7249999999996 140.76547757692768 77.98515319444972
vertex 127.7249999999996 140.76547757692768 80.48515319444974
endloop
endfacet
facet normal -0.130526192220051 0.9914448613738105 2.921630929293392e-18
outer loop
vertex 129.11179049066013 141.33990500632927 77.98515319444972
vertex 130.5999999999996 141.53583150516715 80.48515319444974
vertex 130.5999999999996 141.53583150516715 77.98515319444972
endloop
endfacet
facet normal -0.130526192220051 0.9914448613738105 2.921630929293392e-18
outer loop
vertex 130.5999999999996 141.53583150516715 80.48515319444974
vertex 129.11179049066013 141.33990500632927 77.98515319444972
vertex 129.11179049066013 141.33990500632927 80.48515319444974
endloop
endfacet
facet normal -0.99144486137381 0.1305261922200543 3.3612658415473986e-31
outer loop
vertex 124.8499999999996 135.78583150516715 80.48515319444974
vertex 125.04592649883747 137.27404101450662 77.98515319444972
vertex 124.8499999999996 135.78583150516715 77.98515319444972
endloop
endfacet
facet normal -0.99144486137381 0.1305261922200543 3.3612658415473986e-31
outer loop
vertex 125.04592649883747 137.27404101450662 77.98515319444972
vertex 124.8499999999996 135.78583150516715 80.48515319444974
vertex 125.04592649883747 137.27404101450662 80.48515319444974
endloop
endfacet
facet normal -0.9238795325112878 0.3826834323650871 -2.9387539786577884e-31
outer loop
vertex 125.04592649883747 137.27404101450662 80.48515319444974
vertex 125.62035392823907 138.66083150516712 77.98515319444972
vertex 125.04592649883747 137.27404101450662 77.98515319444972
endloop
endfacet
facet normal -0.9238795325112878 0.3826834323650871 -2.9387539786577884e-31
outer loop
vertex 125.62035392823907 138.66083150516712 77.98515319444972
vertex 125.04592649883747 137.27404101450662 80.48515319444974
vertex 125.62035392823907 138.66083150516712 80.48515319444974
endloop
endfacet
facet normal -0.382683432365092 -0.923879532511286 -7.346884946644456e-32
outer loop
vertex 127.7249999999996 130.80618543340663 80.48515319444974
vertex 129.1117904906601 130.231758004005 77.98515319444972
vertex 129.1117904906601 130.231758004005 80.48515319444974
endloop
endfacet
facet normal -0.382683432365092 -0.923879532511286 -7.346884946644456e-32
outer loop
vertex 129.1117904906601 130.231758004005 77.98515319444972
vertex 127.7249999999996 130.80618543340663 80.48515319444974
vertex 127.7249999999996 130.80618543340663 77.98515319444972
endloop
endfacet
facet normal -0.6087614290087211 -0.7933533402912348 1.2617826259907035e-31
outer loop
vertex 126.53413600817696 131.7199675133445 80.48515319444974
vertex 127.7249999999996 130.80618543340663 77.98515319444972
vertex 127.7249999999996 130.80618543340663 80.48515319444974
endloop
endfacet
facet normal -0.6087614290087211 -0.7933533402912348 1.2617826259907035e-31
outer loop
vertex 127.7249999999996 130.80618543340663 77.98515319444972
vertex 126.53413600817696 131.7199675133445 80.48515319444974
vertex 126.53413600817696 131.7199675133445 77.98515319444972
endloop
endfacet
facet normal 1.2812087410370458e-32 -1.2236379322062395e-32 1.0
outer loop
vertex 132.67055236081978 128.0584248948546 77.98515319444972
vertex 128.52944763917944 128.0584248948546 77.98515319444972
vertex 130.5999999999996 127.78583150516714 77.98515319444972
endloop
endfacet
facet normal 1.2812087410370458e-32 -1.2236379322062395e-32 1.0
outer loop
vertex 128.52944763917944 128.0584248948546 77.98515319444972
vertex 132.67055236081978 128.0584248948546 77.98515319444972
vertex 134.59999999999962 128.85762827489162 77.98515319444972
endloop
endfacet
facet normal 1.2812087410370458e-32 -1.2236379322062395e-32 1.0
outer loop
vertex 128.52944763917944 128.0584248948546 77.98515319444972
vertex 134.59999999999962 128.85762827489162 77.98515319444972
vertex 126.59999999999961 128.85762827489162 77.98515319444972
endloop
endfacet
facet normal 1.2812087410370458e-32 -1.2236379322062395e-32 1.0
outer loop
vertex 126.59999999999961 128.85762827489162 77.98515319444972
vertex 134.59999999999962 128.85762827489162 77.98515319444972
vertex 131.5999999999996 129.41748400275452 77.98515319444972
endloop
endfacet
facet normal 1.2812087410370458e-32 -1.2236379322062395e-32 1.0
outer loop
vertex 131.5999999999996 129.41748400275452 77.98515319444972
vertex 134.59999999999962 128.85762827489162 77.98515319444972
vertex 136.25685424949197 130.12897725567476 77.98515319444972
endloop
endfacet
facet normal 1.2812087410370458e-32 -1.2236379322062395e-32 1.0
outer loop
vertex 131.5999999999996 129.41748400275452 77.98515319444972
vertex 136.25685424949197 130.12897725567476 77.98515319444972
vertex 131.5999999999996 130.16748400275452 77.98515319444972
endloop
endfacet
facet normal 1.2812087410370458e-32 -1.2236379322062395e-32 1.0
outer loop
vertex 131.5999999999996 130.16748400275452 77.98515319444972
vertex 136.25685424949197 130.12897725567476 77.98515319444972
vertex 132.0882095093391 130.231758004005 77.98515319444972
endloop
endfacet
facet normal 1.2812087410370458e-32 -1.2236379322062395e-32 1.0
outer loop
vertex 132.0882095093391 130.231758004005 77.98515319444972
vertex 136.25685424949197 130.12897725567476 77.98515319444972
vertex 137.52820323027512 131.78583150516712 77.98515319444972
endloop
endfacet
facet normal 1.2812087410370458e-32 -1.2236379322062395e-32 1.0
outer loop
vertex 132.0882095093391 130.231758004005 77.98515319444972
vertex 137.52820323027512 131.78583150516712 77.98515319444972
vertex 133.4749999999996 130.80618543340663 77.98515319444972
endloop
endfacet
facet normal 1.2812087410370458e-32 -1.2236379322062395e-32 1.0
outer loop
vertex 133.4749999999996 130.80618543340663 77.98515319444972
vertex 137.52820323027512 131.78583150516712 77.98515319444972
vertex 134.66586399182225 131.71996751334447 77.98515319444972
endloop
endfacet
facet normal 1.2812087410370458e-32 -1.2236379322062395e-32 1.0
outer loop
vertex 134.66586399182225 131.71996751334447 77.98515319444972
vertex 137.52820323027512 131.78583150516712 77.98515319444972
vertex 135.57964607176012 132.91083150516715 77.98515319444972
endloop
endfacet
facet normal 1.2812087410370458e-32 -1.2236379322062395e-32 1.0
outer loop
vertex 135.57964607176012 132.91083150516715 77.98515319444972
vertex 137.52820323027512 131.78583150516712 77.98515319444972
vertex 138.32740661031215 133.71527914434697 77.98515319444972
endloop
endfacet
facet normal 1.2812087410370458e-32 -1.2236379322062395e-32 1.0
outer loop
vertex 135.57964607176012 132.91083150516715 77.98515319444972
vertex 138.32740661031215 133.71527914434697 77.98515319444972
vertex 136.15407350116175 134.29762199582763 77.98515319444972
endloop
endfacet
facet normal 1.2812087410370458e-32 -1.2236379322062395e-32 1.0
outer loop
vertex 136.15407350116175 134.29762199582763 77.98515319444972
vertex 138.32740661031215 133.71527914434697 77.98515319444972
vertex 138.59999999999962 135.78583150516715 77.98515319444972
endloop
endfacet
facet normal 1.2812087410370458e-32 -1.2236379322062395e-32 1.0
outer loop
vertex 136.15407350116175 134.29762199582763 77.98515319444972
vertex 138.59999999999962 135.78583150516715 77.98515319444972
vertex 136.3499999999996 135.78583150516715 77.98515319444972
endloop
endfacet
facet normal 1.2812087410370458e-32 -1.2236379322062395e-32 1.0
outer loop
vertex 136.3499999999996 135.78583150516715 77.98515319444972
vertex 138.59999999999962 135.78583150516715 77.98515319444972
vertex 138.32740661031215 137.8563838659873 77.98515319444972
endloop
endfacet
facet normal 1.2812087410370458e-32 -1.2236379322062395e-32 1.0
outer loop
vertex 136.3499999999996 135.78583150516715 77.98515319444972
vertex 138.32740661031215 137.8563838659873 77.98515319444972
vertex 136.15407350116175 137.27404101450662 77.98515319444972
endloop
endfacet
facet normal 1.2812087410370458e-32 -1.2236379322062395e-32 1.0
outer loop
vertex 136.15407350116175 137.27404101450662 77.98515319444972
vertex 138.32740661031215 137.8563838659873 77.98515319444972
vertex 135.57964607176012 138.66083150516712 77.98515319444972
endloop
endfacet
facet normal 1.2812087410370458e-32 -1.2236379322062395e-32 1.0
outer loop
vertex 135.57964607176012 138.66083150516712 77.98515319444972
vertex 138.32740661031215 137.8563838659873 77.98515319444972
vertex 137.52820323027512 139.78583150516712 77.98515319444972
endloop
endfacet
facet normal 1.2812087410370458e-32 -1.2236379322062395e-32 1.0
outer loop
vertex 135.57964607176012 138.66083150516712 77.98515319444972
vertex 137.52820323027512 139.78583150516712 77.98515319444972
vertex 134.66586399182225 139.85169549698978 77.98515319444972
endloop
endfacet
facet normal 1.2812087410370458e-32 -1.2236379322062395e-32 1.0
outer loop
vertex 134.66586399182225 139.85169549698978 77.98515319444972
vertex 137.52820323027512 139.78583150516712 77.98515319444972
vertex 136.256854249492 141.44268575465952 77.98515319444972
endloop
endfacet
facet normal 1.2812087410370458e-32 -1.2236379322062395e-32 1.0
outer loop
vertex 134.66586399182225 139.85169549698978 77.98515319444972
vertex 136.256854249492 141.44268575465952 77.98515319444972
vertex 133.4749999999996 140.76547757692765 77.98515319444972
endloop
endfacet
facet normal 1.2812087410370458e-32 -1.2236379322062395e-32 1.0
outer loop
vertex 133.4749999999996 140.76547757692765 77.98515319444972
vertex 136.256854249492 141.44268575465952 77.98515319444972
vertex 132.0882095093391 141.33990500632927 77.98515319444972
endloop
endfacet
facet normal 1.2812087410370458e-32 -1.2236379322062395e-32 1.0
outer loop
vertex 132.0882095093391 141.33990500632927 77.98515319444972
vertex 136.256854249492 141.44268575465952 77.98515319444972
vertex 130.5999999999996 141.53583150516715 77.98515319444972
endloop
endfacet
facet normal 1.2812087410370458e-32 -1.2236379322062395e-32 1.0
outer loop
vertex 130.5999999999996 141.53583150516715 77.98515319444972
vertex 136.256854249492 141.44268575465952 77.98515319444972
vertex 134.59999999999962 142.71403473544262 77.98515319444972
endloop
endfacet
facet normal 1.2812087410370458e-32 -1.2236379322062395e-32 1.0
outer loop
vertex 126.59999999999961 128.85762827489162 77.98515319444972
vertex 129.5999999999996 129.41748400275452 77.98515319444972
vertex 124.94314575050723 130.12897725567476 77.98515319444972
endloop
endfacet
facet normal 1.2812087410370458e-32 -1.2236379322062395e-32 1.0
outer loop
vertex 129.5999999999996 129.41748400275452 77.98515319444972
vertex 126.59999999999961 128.85762827489162 77.98515319444972
vertex 131.5999999999996 129.41748400275452 77.98515319444972
endloop
endfacet
facet normal 1.2812087410370458e-32 -1.2236379322062395e-32 1.0
outer loop
vertex 124.94314575050723 130.12897725567476 77.98515319444972
vertex 129.5999999999996 129.41748400275452 77.98515319444972
vertex 129.5999999999996 130.16748400275452 77.98515319444972
endloop
endfacet
facet normal 1.2812087410370458e-32 -1.2236379322062395e-32 1.0
outer loop
vertex 124.94314575050723 130.12897725567476 77.98515319444972
vertex 129.5999999999996 130.16748400275452 77.98515319444972
vertex 129.1117904906601 130.231758004005 77.98515319444972
endloop
endfacet
facet normal 1.2812087410370458e-32 -1.2236379322062395e-32 1.0
outer loop
vertex 124.94314575050723 130.12897725567476 77.98515319444972
vertex 129.1117904906601 130.231758004005 77.98515319444972
vertex 123.6717967697241 131.78583150516715 77.98515319444972
endloop
endfacet
facet normal 1.2812087410370458e-32 -1.2236379322062395e-32 1.0
outer loop
vertex 123.6717967697241 131.78583150516715 77.98515319444972
vertex 129.1117904906601 130.231758004005 77.98515319444972
vertex 127.7249999999996 130.80618543340663 77.98515319444972
endloop
endfacet
facet normal 1.2812087410370458e-32 -1.2236379322062395e-32 1.0
outer loop
vertex 123.6717967697241 131.78583150516715 77.98515319444972
vertex 127.7249999999996 130.80618543340663 77.98515319444972
vertex 126.53413600817696 131.7199675133445 77.98515319444972
endloop
endfacet
facet normal 1.2812087410370458e-32 -1.2236379322062395e-32 1.0
outer loop
vertex 123.6717967697241 131.78583150516715 77.98515319444972
vertex 126.53413600817696 131.7199675133445 77.98515319444972
vertex 125.62035392823907 132.91083150516715 77.98515319444972
endloop
endfacet
facet normal 1.2812087410370458e-32 -1.2236379322062395e-32 1.0
outer loop
vertex 123.6717967697241 131.78583150516715 77.98515319444972
vertex 125.62035392823907 132.91083150516715 77.98515319444972
vertex 122.87259338968707 133.715279144347 77.98515319444972
endloop
endfacet
facet normal 1.2812087410370458e-32 -1.2236379322062395e-32 1.0
outer loop
vertex 122.87259338968707 133.715279144347 77.98515319444972
vertex 125.62035392823907 132.91083150516715 77.98515319444972
vertex 125.04592649883747 134.29762199582763 77.98515319444972
endloop
endfacet
facet normal 1.2812087410370458e-32 -1.2236379322062395e-32 1.0
outer loop
vertex 122.87259338968707 133.715279144347 77.98515319444972
vertex 125.04592649883747 134.29762199582763 77.98515319444972
vertex 122.59999999999961 135.78583150516715 77.98515319444972
endloop
endfacet
facet normal 1.2812087410370458e-32 -1.2236379322062395e-32 1.0
outer loop
vertex 122.59999999999961 135.78583150516715 77.98515319444972
vertex 125.04592649883747 134.29762199582763 77.98515319444972
vertex 124.8499999999996 135.78583150516715 77.98515319444972
endloop
endfacet
facet normal 1.2812087410370458e-32 -1.2236379322062395e-32 1.0
outer loop
vertex 122.59999999999961 135.78583150516715 77.98515319444972
vertex 124.8499999999996 135.78583150516715 77.98515319444972
vertex 125.04592649883747 137.27404101450662 77.98515319444972
endloop
endfacet
facet normal 1.2812087410370458e-32 -1.2236379322062395e-32 1.0
outer loop
vertex 122.59999999999961 135.78583150516715 77.98515319444972
vertex 125.04592649883747 137.27404101450662 77.98515319444972
vertex 122.87259338968707 137.8563838659873 77.98515319444972
endloop
endfacet
facet normal 1.2812087410370458e-32 -1.2236379322062395e-32 1.0
outer loop
vertex 122.87259338968707 137.8563838659873 77.98515319444972
vertex 125.04592649883747 137.27404101450662 77.98515319444972
vertex 125.62035392823907 138.66083150516712 77.98515319444972
endloop
endfacet
facet normal 1.2812087410370458e-32 -1.2236379322062395e-32 1.0
outer loop
vertex 122.87259338968707 137.8563838659873 77.98515319444972
vertex 125.62035392823907 138.66083150516712 77.98515319444972
vertex 123.67179676972411 139.78583150516712 77.98515319444972
endloop
endfacet
facet normal 1.2812087410370458e-32 -1.2236379322062395e-32 1.0
outer loop
vertex 123.67179676972411 139.78583150516712 77.98515319444972
vertex 125.62035392823907 138.66083150516712 77.98515319444972
vertex 126.53413600817696 139.85169549698978 77.98515319444972
endloop
endfacet
facet normal 1.2812087410370458e-32 -1.2236379322062395e-32 1.0
outer loop
vertex 123.67179676972411 139.78583150516712 77.98515319444972
vertex 126.53413600817696 139.85169549698978 77.98515319444972
vertex 124.94314575050726 141.44268575465952 77.98515319444972
endloop
endfacet
facet normal 1.2812087410370458e-32 -1.2236379322062395e-32 1.0
outer loop
vertex 124.94314575050726 141.44268575465952 77.98515319444972
vertex 126.53413600817696 139.85169549698978 77.98515319444972
vertex 127.7249999999996 140.76547757692768 77.98515319444972
endloop
endfacet
facet normal 1.2812087410370458e-32 -1.2236379322062395e-32 1.0
outer loop
vertex 124.94314575050726 141.44268575465952 77.98515319444972
vertex 127.7249999999996 140.76547757692768 77.98515319444972
vertex 129.11179049066013 141.33990500632927 77.98515319444972
endloop
endfacet
facet normal 1.2812087410370458e-32 -1.2236379322062395e-32 1.0
outer loop
vertex 124.94314575050726 141.44268575465952 77.98515319444972
vertex 129.11179049066013 141.33990500632927 77.98515319444972
vertex 130.5999999999996 141.53583150516715 77.98515319444972
endloop
endfacet
facet normal 1.2812087410370458e-32 -1.2236379322062395e-32 1.0
outer loop
vertex 124.94314575050726 141.44268575465952 77.98515319444972
vertex 130.5999999999996 141.53583150516715 77.98515319444972
vertex 126.59999999999961 142.71403473544262 77.98515319444972
endloop
endfacet
facet normal 1.2812087410370458e-32 -1.2236379322062395e-32 1.0
outer loop
vertex 126.59999999999961 142.71403473544262 77.98515319444972
vertex 130.5999999999996 141.53583150516715 77.98515319444972
vertex 134.59999999999962 142.71403473544262 77.98515319444972
endloop
endfacet
facet normal 1.2812087410370458e-32 -1.2236379322062395e-32 1.0
outer loop
vertex 126.59999999999961 142.71403473544262 77.98515319444972
vertex 134.59999999999962 142.71403473544262 77.98515319444972
vertex 132.67055236081978 143.51323811547968 77.98515319444972
endloop
endfacet
facet normal 1.2812087410370458e-32 -1.2236379322062395e-32 1.0
outer loop
vertex 126.59999999999961 142.71403473544262 77.98515319444972
vertex 132.67055236081978 143.51323811547968 77.98515319444972
vertex 128.52944763917944 143.51323811547968 77.98515319444972
endloop
endfacet
facet normal 1.2812087410370458e-32 -1.2236379322062395e-32 1.0
outer loop
vertex 128.52944763917944 143.51323811547968 77.98515319444972
vertex 132.67055236081978 143.51323811547968 77.98515319444972
vertex 130.5999999999996 143.78583150516712 77.98515319444972
endloop
endfacet
facet normal -0.9238795325112892 -0.38268343236508445 -2.9387539786577923e-31
outer loop
vertex 125.62035392823907 132.91083150516715 80.48515319444974
vertex 125.04592649883747 134.29762199582763 77.98515319444972
vertex 125.62035392823907 132.91083150516715 77.98515319444972
endloop
endfacet
facet normal -0.9238795325112892 -0.38268343236508445 -2.9387539786577923e-31
outer loop
vertex 125.04592649883747 134.29762199582763 77.98515319444972
vertex 125.62035392823907 132.91083150516715 80.48515319444974
vertex 125.04592649883747 134.29762199582763 80.48515319444974
endloop
endfacet
facet normal -0.99144486137381 -0.13052619222005468 3.153671478209206e-31
outer loop
vertex 125.04592649883747 134.29762199582763 80.48515319444974
vertex 124.8499999999996 135.78583150516715 77.98515319444972
vertex 125.04592649883747 134.29762199582763 77.98515319444972
endloop
endfacet
facet normal -0.99144486137381 -0.13052619222005468 3.153671478209206e-31
outer loop
vertex 124.8499999999996 135.78583150516715 77.98515319444972
vertex 125.04592649883747 134.29762199582763 80.48515319444974
vertex 124.8499999999996 135.78583150516715 80.48515319444974
endloop
endfacet
facet normal 0.382683432365086 -0.9238795325112884 8.565788468273886e-18
outer loop
vertex 132.0882095093391 130.231758004005 80.48515319444974
vertex 133.4749999999996 130.80618543340663 77.98515319444972
vertex 133.4749999999996 130.80618543340663 80.48515319444974
endloop
endfacet
facet normal 0.382683432365086 -0.9238795325112884 8.565788468273886e-18
outer loop
vertex 133.4749999999996 130.80618543340663 77.98515319444972
vertex 132.0882095093391 130.231758004005 80.48515319444974
vertex 132.0882095093391 130.231758004005 77.98515319444972
endloop
endfacet
facet normal 0.9238795325112852 -0.38268343236509356 0.0
outer loop
vertex 136.15407350116175 134.29762199582763 80.48515319444974
vertex 135.57964607176012 132.91083150516715 77.98515319444972
vertex 136.15407350116175 134.29762199582763 77.98515319444972
endloop
endfacet
facet normal 0.9238795325112852 -0.38268343236509356 0.0
outer loop
vertex 135.57964607176012 132.91083150516715 77.98515319444972
vertex 136.15407350116175 134.29762199582763 80.48515319444974
vertex 135.57964607176012 132.91083150516715 80.48515319444974
endloop
endfacet
facet normal 0.7933533402912363 -0.6087614290087193 2.935827641050778e-32
outer loop
vertex 135.57964607176012 132.91083150516715 80.48515319444974
vertex 134.66586399182225 131.71996751334447 77.98515319444972
vertex 135.57964607176012 132.91083150516715 77.98515319444972
endloop
endfacet
facet normal 0.7933533402912363 -0.6087614290087193 2.935827641050778e-32
outer loop
vertex 134.66586399182225 131.71996751334447 77.98515319444972
vertex 135.57964607176012 132.91083150516715 80.48515319444974
vertex 134.66586399182225 131.71996751334447 80.48515319444974
endloop
endfacet
facet normal 0.1305261922200511 0.9914448613738105 2.921630929293392e-18
outer loop
vertex 130.5999999999996 141.53583150516715 77.98515319444972
vertex 132.0882095093391 141.33990500632927 80.48515319444974
vertex 132.0882095093391 141.33990500632927 77.98515319444972
endloop
endfacet
facet normal 0.1305261922200511 0.9914448613738105 2.921630929293392e-18
outer loop
vertex 132.0882095093391 141.33990500632927 80.48515319444974
vertex 130.5999999999996 141.53583150516715 77.98515319444972
vertex 130.5999999999996 141.53583150516715 80.48515319444974
endloop
endfacet
facet normal 0.3826834323650909 0.9238795325112863 -8.565788468273677e-18
outer loop
vertex 132.0882095093391 141.33990500632927 77.98515319444972
vertex 133.4749999999996 140.76547757692765 80.48515319444974
vertex 133.4749999999996 140.76547757692765 77.98515319444972
endloop
endfacet
facet normal 0.3826834323650909 0.9238795325112863 -8.565788468273677e-18
outer loop
vertex 133.4749999999996 140.76547757692765 80.48515319444974
vertex 132.0882095093391 141.33990500632927 77.98515319444972
vertex 132.0882095093391 141.33990500632927 80.48515319444974
endloop
endfacet
facet normal 0.6087614290087211 0.7933533402912348 -3.7853478779721106e-31
outer loop
vertex 133.4749999999996 140.76547757692765 77.98515319444972
vertex 134.66586399182225 139.85169549698978 80.48515319444974
vertex 134.66586399182225 139.85169549698978 77.98515319444972
endloop
endfacet
facet normal 0.6087614290087211 0.7933533402912348 -3.7853478779721106e-31
outer loop
vertex 134.66586399182225 139.85169549698978 80.48515319444974
vertex 133.4749999999996 140.76547757692765 77.98515319444972
vertex 133.4749999999996 140.76547757692765 80.48515319444974
endloop
endfacet
facet normal 0.7933533402912363 0.6087614290087193 -2.935827641050778e-32
outer loop
vertex 134.66586399182225 139.85169549698978 80.48515319444974
vertex 135.57964607176012 138.66083150516712 77.98515319444972
vertex 134.66586399182225 139.85169549698978 77.98515319444972
endloop
endfacet
facet normal 0.7933533402912363 0.6087614290087193 -2.935827641050778e-32
outer loop
vertex 135.57964607176012 138.66083150516712 77.98515319444972
vertex 134.66586399182225 139.85169549698978 80.48515319444974
vertex 135.57964607176012 138.66083150516712 80.48515319444974
endloop
endfacet
facet normal 0.0 0.0 1.0
outer loop
vertex 132.0882095093391 130.231758004005 80.48515319444974
vertex 131.5999999999996 131.16748400275452 80.48515319444974
vertex 131.5999999999996 130.16748400275452 80.48515319444974
endloop
endfacet
facet normal 0.0 0.0 1.0
outer loop
vertex 131.5999999999996 131.16748400275452 80.48515319444974
vertex 132.0882095093391 130.231758004005 80.48515319444974
vertex 133.4749999999996 130.80618543340663 80.48515319444974
endloop
endfacet
facet normal 0.0 0.0 1.0
outer loop
vertex 131.5999999999996 131.16748400275452 80.48515319444974
vertex 133.4749999999996 130.80618543340663 80.48515319444974
vertex 131.82939046423658 131.19768383029404 80.48515319444974
endloop
endfacet
facet normal 0.0 0.0 1.0
outer loop
vertex 131.82939046423658 131.19768383029404 80.48515319444974
vertex 133.4749999999996 130.80618543340663 80.48515319444974
vertex 134.66586399182225 131.71996751334447 80.48515319444974
endloop
endfacet
facet normal 0.0 0.0 1.0
outer loop
vertex 131.82939046423658 131.19768383029404 80.48515319444974
vertex 134.66586399182225 131.71996751334447 80.48515319444974
vertex 132.9749999999996 131.67221083719105 80.48515319444974
endloop
endfacet
facet normal 0.0 0.0 1.0
outer loop
vertex 132.9749999999996 131.67221083719105 80.48515319444974
vertex 134.66586399182225 131.71996751334447 80.48515319444974
vertex 133.9587572106357 132.42707429453102 80.48515319444974
endloop
endfacet
facet normal 0.0 0.0 1.0
outer loop
vertex 133.9587572106357 132.42707429453102 80.48515319444974
vertex 134.66586399182225 131.71996751334447 80.48515319444974
vertex 135.57964607176012 132.91083150516715 80.48515319444974
endloop
endfacet
facet normal 0.0 0.0 1.0
outer loop
vertex 133.9587572106357 132.42707429453102 80.48515319444974
vertex 135.57964607176012 132.91083150516715 80.48515319444974
vertex 134.7136206679757 133.41083150516715 80.48515319444974
endloop
endfacet
facet normal 0.0 0.0 1.0
outer loop
vertex 134.7136206679757 133.41083150516715 80.48515319444974
vertex 135.57964607176012 132.91083150516715 80.48515319444974
vertex 136.15407350116175 134.29762199582763 80.48515319444974
endloop
endfacet
facet normal 0.0 0.0 1.0
outer loop
vertex 134.7136206679757 133.41083150516715 80.48515319444974
vertex 136.15407350116175 134.29762199582763 80.48515319444974
vertex 135.18814767487268 134.55644104093014 80.48515319444974
endloop
endfacet
facet normal 0.0 0.0 1.0
outer loop
vertex 135.18814767487268 134.55644104093014 80.48515319444974
vertex 136.15407350116175 134.29762199582763 80.48515319444974
vertex 136.3499999999996 135.78583150516715 80.48515319444974
endloop
endfacet
facet normal 0.0 0.0 1.0
outer loop
vertex 135.18814767487268 134.55644104093014 80.48515319444974
vertex 136.3499999999996 135.78583150516715 80.48515319444974
vertex 135.34999999999962 135.78583150516715 80.48515319444974
endloop
endfacet
facet normal 0.0 0.0 1.0
outer loop
vertex 135.34999999999962 135.78583150516715 80.48515319444974
vertex 136.3499999999996 135.78583150516715 80.48515319444974
vertex 136.15407350116175 137.27404101450662 80.48515319444974
endloop
endfacet
facet normal 0.0 0.0 1.0
outer loop
vertex 135.34999999999962 135.78583150516715 80.48515319444974
vertex 136.15407350116175 137.27404101450662 80.48515319444974
vertex 135.18814767487268 137.0152219694041 80.48515319444974
endloop
endfacet
facet normal 0.0 0.0 1.0
outer loop
vertex 135.18814767487268 137.0152219694041 80.48515319444974
vertex 136.15407350116175 137.27404101450662 80.48515319444974
vertex 134.7136206679757 138.16083150516715 80.48515319444974
endloop
endfacet
facet normal 0.0 0.0 1.0
outer loop
vertex 134.7136206679757 138.16083150516715 80.48515319444974
vertex 136.15407350116175 137.27404101450662 80.48515319444974
vertex 135.57964607176012 138.66083150516712 80.48515319444974
endloop
endfacet
facet normal 0.0 0.0 1.0
outer loop
vertex 134.7136206679757 138.16083150516715 80.48515319444974
vertex 135.57964607176012 138.66083150516712 80.48515319444974
vertex 133.9587572106357 139.14458871580325 80.48515319444974
endloop
endfacet
facet normal 0.0 0.0 1.0
outer loop
vertex 133.9587572106357 139.14458871580325 80.48515319444974
vertex 135.57964607176012 138.66083150516712 80.48515319444974
vertex 134.66586399182225 139.85169549698978 80.48515319444974
endloop
endfacet
facet normal 0.0 0.0 1.0
outer loop
vertex 133.9587572106357 139.14458871580325 80.48515319444974
vertex 134.66586399182225 139.85169549698978 80.48515319444974
vertex 132.9749999999996 139.8994521731432 80.48515319444974
endloop
endfacet
facet normal 0.0 0.0 1.0
outer loop
vertex 132.9749999999996 139.8994521731432 80.48515319444974
vertex 134.66586399182225 139.85169549698978 80.48515319444974
vertex 133.4749999999996 140.76547757692765 80.48515319444974
endloop
endfacet
facet normal 0.0 0.0 1.0
outer loop
vertex 132.9749999999996 139.8994521731432 80.48515319444974
vertex 133.4749999999996 140.76547757692765 80.48515319444974
vertex 131.82939046423658 140.3739791800402 80.48515319444974
endloop
endfacet
facet normal 0.0 0.0 1.0
outer loop
vertex 131.82939046423658 140.3739791800402 80.48515319444974
vertex 133.4749999999996 140.76547757692765 80.48515319444974
vertex 130.5999999999996 140.53583150516715 80.48515319444974
endloop
endfacet
facet normal 0.0 0.0 1.0
outer loop
vertex 129.5999999999996 131.16748400275452 80.48515319444974
vertex 129.1117904906601 130.231758004005 80.48515319444974
vertex 129.5999999999996 130.16748400275452 80.48515319444974
endloop
endfacet
facet normal 0.0 0.0 1.0
outer loop
vertex 129.1117904906601 130.231758004005 80.48515319444974
vertex 129.5999999999996 131.16748400275452 80.48515319444974
vertex 127.7249999999996 130.80618543340663 80.48515319444974
endloop
endfacet
facet normal 0.0 0.0 1.0
outer loop
vertex 127.7249999999996 130.80618543340663 80.48515319444974
vertex 129.5999999999996 131.16748400275452 80.48515319444974
vertex 129.37060953576264 131.19768383029404 80.48515319444974
endloop
endfacet
facet normal 0.0 0.0 1.0
outer loop
vertex 127.7249999999996 130.80618543340663 80.48515319444974
vertex 129.37060953576264 131.19768383029404 80.48515319444974
vertex 126.53413600817696 131.7199675133445 80.48515319444974
endloop
endfacet
facet normal 0.0 0.0 1.0
outer loop
vertex 126.53413600817696 131.7199675133445 80.48515319444974
vertex 129.37060953576264 131.19768383029404 80.48515319444974
vertex 128.2249999999996 131.67221083719105 80.48515319444974
endloop
endfacet
facet normal 0.0 0.0 1.0
outer loop
vertex 126.53413600817696 131.7199675133445 80.48515319444974
vertex 128.2249999999996 131.67221083719105 80.48515319444974
vertex 127.24124278936351 132.42707429453105 80.48515319444974
endloop
endfacet
facet normal 0.0 0.0 1.0
outer loop
vertex 126.53413600817696 131.7199675133445 80.48515319444974
vertex 127.24124278936351 132.42707429453105 80.48515319444974
vertex 125.62035392823907 132.91083150516715 80.48515319444974
endloop
endfacet
facet normal 0.0 0.0 1.0
outer loop
vertex 125.62035392823907 132.91083150516715 80.48515319444974
vertex 127.24124278936351 132.42707429453105 80.48515319444974
vertex 126.48637933202353 133.41083150516715 80.48515319444974
endloop
endfacet
facet normal 0.0 0.0 1.0
outer loop
vertex 125.62035392823907 132.91083150516715 80.48515319444974
vertex 126.48637933202353 133.41083150516715 80.48515319444974
vertex 125.04592649883747 134.29762199582763 80.48515319444974
endloop
endfacet
facet normal 0.0 0.0 1.0
outer loop
vertex 125.04592649883747 134.29762199582763 80.48515319444974
vertex 126.48637933202353 133.41083150516715 80.48515319444974
vertex 126.01185232512654 134.55644104093014 80.48515319444974
endloop
endfacet
facet normal 0.0 0.0 1.0
outer loop
vertex 125.04592649883747 134.29762199582763 80.48515319444974
vertex 126.01185232512654 134.55644104093014 80.48515319444974
vertex 124.8499999999996 135.78583150516715 80.48515319444974
endloop
endfacet
facet normal 0.0 0.0 1.0
outer loop
vertex 124.8499999999996 135.78583150516715 80.48515319444974
vertex 126.01185232512654 134.55644104093014 80.48515319444974
vertex 125.8499999999996 135.78583150516715 80.48515319444974
endloop
endfacet
facet normal 0.0 0.0 1.0
outer loop
vertex 124.8499999999996 135.78583150516715 80.48515319444974
vertex 125.8499999999996 135.78583150516715 80.48515319444974
vertex 126.01185232512654 137.0152219694041 80.48515319444974
endloop
endfacet
facet normal 0.0 0.0 1.0
outer loop
vertex 124.8499999999996 135.78583150516715 80.48515319444974
vertex 126.01185232512654 137.0152219694041 80.48515319444974
vertex 125.04592649883747 137.27404101450662 80.48515319444974
endloop
endfacet
facet normal 0.0 0.0 1.0
outer loop
vertex 125.04592649883747 137.27404101450662 80.48515319444974
vertex 126.01185232512654 137.0152219694041 80.48515319444974
vertex 126.48637933202353 138.16083150516715 80.48515319444974
endloop
endfacet
facet normal 0.0 0.0 1.0
outer loop
vertex 125.04592649883747 137.27404101450662 80.48515319444974
vertex 126.48637933202353 138.16083150516715 80.48515319444974
vertex 125.62035392823907 138.66083150516712 80.48515319444974
endloop
endfacet
facet normal 0.0 0.0 1.0
outer loop
vertex 125.62035392823907 138.66083150516712 80.48515319444974
vertex 126.48637933202353 138.16083150516715 80.48515319444974
vertex 127.24124278936351 139.14458871580325 80.48515319444974
endloop
endfacet
facet normal 0.0 0.0 1.0
outer loop
vertex 125.62035392823907 138.66083150516712 80.48515319444974
vertex 127.24124278936351 139.14458871580325 80.48515319444974
vertex 126.53413600817696 139.85169549698978 80.48515319444974
endloop
endfacet
facet normal 0.0 0.0 1.0
outer loop
vertex 126.53413600817696 139.85169549698978 80.48515319444974
vertex 127.24124278936351 139.14458871580325 80.48515319444974
vertex 128.2249999999996 139.8994521731432 80.48515319444974
endloop
endfacet
facet normal 0.0 0.0 1.0
outer loop
vertex 126.53413600817696 139.85169549698978 80.48515319444974
vertex 128.2249999999996 139.8994521731432 80.48515319444974
vertex 127.7249999999996 140.76547757692768 80.48515319444974
endloop
endfacet
facet normal 0.0 0.0 1.0
outer loop
vertex 127.7249999999996 140.76547757692768 80.48515319444974
vertex 128.2249999999996 139.8994521731432 80.48515319444974
vertex 129.37060953576264 140.3739791800402 80.48515319444974
endloop
endfacet
facet normal 0.0 0.0 1.0
outer loop
vertex 127.7249999999996 140.76547757692768 80.48515319444974
vertex 129.37060953576264 140.3739791800402 80.48515319444974
vertex 130.5999999999996 140.53583150516715 80.48515319444974
endloop
endfacet
facet normal 0.0 0.0 1.0
outer loop
vertex 127.7249999999996 140.76547757692768 80.48515319444974
vertex 130.5999999999996 140.53583150516715 80.48515319444974
vertex 133.4749999999996 140.76547757692765 80.48515319444974
endloop
endfacet
facet normal 0.0 0.0 1.0
outer loop
vertex 127.7249999999996 140.76547757692768 80.48515319444974
vertex 133.4749999999996 140.76547757692765 80.48515319444974
vertex 132.0882095093391 141.33990500632927 80.48515319444974
endloop
endfacet
facet normal 0.0 0.0 1.0
outer loop
vertex 127.7249999999996 140.76547757692768 80.48515319444974
vertex 132.0882095093391 141.33990500632927 80.48515319444974
vertex 129.11179049066013 141.33990500632927 80.48515319444974
endloop
endfacet
facet normal 0.0 0.0 1.0
outer loop
vertex 129.11179049066013 141.33990500632927 80.48515319444974
vertex 132.0882095093391 141.33990500632927 80.48515319444974
vertex 130.5999999999996 141.53583150516715 80.48515319444974
endloop
endfacet
facet normal -0.7933533402912352 -0.6087614290087205 0.0
outer loop
vertex 124.94314575050723 130.12897725567476 77.98515319444972
vertex 123.6717967697241 131.78583150516715 76.48515319444972
vertex 124.94314575050723 130.12897725567476 76.48515319444972
endloop
endfacet
facet normal -0.7933533402912352 -0.6087614290087205 0.0
outer loop
vertex 123.6717967697241 131.78583150516715 76.48515319444972
vertex 124.94314575050723 130.12897725567476 77.98515319444972
vertex 123.6717967697241 131.78583150516715 77.98515319444972
endloop
endfacet
facet normal -0.6087614290087179 -0.7933533402912374 0.0
outer loop
vertex 124.94314575050723 130.12897725567476 77.98515319444972
vertex 126.59999999999961 128.85762827489162 76.48515319444972
vertex 126.59999999999961 128.85762827489162 77.98515319444972
endloop
endfacet
facet normal -0.6087614290087179 -0.7933533402912374 0.0
outer loop
vertex 126.59999999999961 128.85762827489162 76.48515319444972
vertex 124.94314575050723 130.12897725567476 77.98515319444972
vertex 124.94314575050723 130.12897725567476 76.48515319444972
endloop
endfacet
facet normal 0.99144486137381 0.13052619222005438 0.0
outer loop
vertex 138.32740661031215 137.8563838659873 77.98515319444972
vertex 138.59999999999962 135.78583150516715 76.48515319444972
vertex 138.32740661031215 137.8563838659873 76.48515319444972
endloop
endfacet
facet normal 0.99144486137381 0.13052619222005438 0.0
outer loop
vertex 138.59999999999962 135.78583150516715 76.48515319444972
vertex 138.32740661031215 137.8563838659873 77.98515319444972
vertex 138.59999999999962 135.78583150516715 77.98515319444972
endloop
endfacet
endsolid Plotter
