solid Plotter
facet normal -0.7933533402912392 0.6087614290087154 0.0
outer loop
vertex 133.99411254969505 131.39171895547167 45.49552371562941
vertex 134.7569219381649 132.3858315051671 43.99552371562941
vertex 133.99411254969505 131.39171895547167 43.99552371562941
endloop
endfacet
facet normal -0.7933533402912392 0.6087614290087154 0.0
outer loop
vertex 134.7569219381649 132.3858315051671 43.99552371562941
vertex 133.99411254969505 131.39171895547167 45.49552371562941
vertex 134.7569219381649 132.3858315051671 45.49552371562941
endloop
endfacet
facet normal 1.0 6.123233995736766e-17 0.0
outer loop
vertex 136.5999999999996 144.8858315051671 45.49552371562941
vertex 136.5999999999996 133.8858315051671 43.99552371562941
vertex 136.5999999999996 144.8858315051671 43.99552371562941
endloop
endfacet
facet normal 1.0 6.123233995736766e-17 0.0
outer loop
vertex 136.5999999999996 133.8858315051671 43.99552371562941
vertex 136.5999999999996 144.8858315051671 45.49552371562941
vertex 136.5999999999996 133.8858315051671 45.49552371562941
endloop
endfacet
facet normal 1.0 6.123233995736766e-17 0.0
outer loop
vertex 136.5999999999996 133.8858315051671 45.49552371562941
vertex 136.5999999999996 144.8858315051671 45.49552371562941
vertex 136.5999999999996 139.8858315051671 45.49552371562941
endloop
endfacet
facet normal -0.3826834323650926 0.9238795325112857 0.0
outer loop
vertex 132.9999999999996 130.62890956700178 45.49552371562941
vertex 131.8423314164917 130.14938753897954 43.99552371562941
vertex 131.8423314164917 130.14938753897954 45.49552371562941
endloop
endfacet
facet normal -0.3826834323650926 0.9238795325112857 0.0
outer loop
vertex 131.8423314164917 130.14938753897954 43.99552371562941
vertex 132.9999999999996 130.62890956700178 45.49552371562941
vertex 132.9999999999996 130.62890956700178 43.99552371562941
endloop
endfacet
facet normal 0.7933533402912347 -0.6087614290087211 0.0
outer loop
vertex 127.20588745030417 138.17994405486252 45.49552371562941
vertex 126.44307806183429 137.1858315051671 43.99552371562941
vertex 127.20588745030417 138.17994405486252 43.99552371562941
endloop
endfacet
facet normal 0.7933533402912347 -0.6087614290087211 0.0
outer loop
vertex 126.44307806183429 137.1858315051671 43.99552371562941
vertex 127.20588745030417 138.17994405486252 45.49552371562941
vertex 126.44307806183429 137.1858315051671 45.49552371562941
endloop
endfacet
facet normal -0.923879532511285 -0.382683432365094 0.0
outer loop
vertex 135.2364439661871 136.0281629216592 45.49552371562941
vertex 134.75692193816488 137.1858315051671 43.99552371562941
vertex 135.2364439661871 136.0281629216592 43.99552371562941
endloop
endfacet
facet normal -0.923879532511285 -0.382683432365094 0.0
outer loop
vertex 134.75692193816488 137.1858315051671 43.99552371562941
vertex 135.2364439661871 136.0281629216592 45.49552371562941
vertex 134.75692193816488 137.1858315051671 45.49552371562941
endloop
endfacet
facet normal -0.9914448613738114 0.13052619222004413 0.0
outer loop
vertex 135.23644396618712 133.543500088675 45.49552371562941
vertex 135.3999999999996 134.7858315051671 43.99552371562941
vertex 135.23644396618712 133.543500088675 43.99552371562941
endloop
endfacet
facet normal -0.9914448613738114 0.13052619222004413 0.0
outer loop
vertex 135.3999999999996 134.7858315051671 43.99552371562941
vertex 135.23644396618712 133.543500088675 45.49552371562941
vertex 135.3999999999996 134.7858315051671 45.49552371562941
endloop
endfacet
facet normal -0.6087614290087202 -0.7933533402912355 0.0
outer loop
vertex 127.59999999999958 128.68967908246046 43.99552371562941
vertex 126.3573593128803 129.6431908180478 45.49552371562941
vertex 126.3573593128803 129.6431908180478 43.99552371562941
endloop
endfacet
facet normal -0.6087614290087202 -0.7933533402912355 0.0
outer loop
vertex 126.3573593128803 129.6431908180478 45.49552371562941
vertex 127.59999999999958 128.68967908246046 43.99552371562941
vertex 127.59999999999958 128.68967908246046 45.49552371562941
endloop
endfacet
facet normal -0.7933533402912316 -0.6087614290087255 0.0
outer loop
vertex 126.3573593128803 129.6431908180478 45.49552371562941
vertex 125.40384757729295 130.8858315051671 43.99552371562941
vertex 126.3573593128803 129.6431908180478 43.99552371562941
endloop
endfacet
facet normal -0.7933533402912316 -0.6087614290087255 0.0
outer loop
vertex 125.40384757729295 130.8858315051671 43.99552371562941
vertex 126.3573593128803 129.6431908180478 45.49552371562941
vertex 125.40384757729295 130.8858315051671 45.49552371562941
endloop
endfacet
facet normal -4.483812131852338e-17 -0.5330376563645237 0.846091518038927
outer loop
vertex 124.5999999999996 139.8858315051671 45.49552371562941
vertex 134.4999999999996 144.8858315051671 48.64552371562941
vertex 126.69999999999959 144.8858315051671 48.64552371562941
endloop
endfacet
facet normal -4.483812131852338e-17 -0.5330376563645237 0.846091518038927
outer loop
vertex 134.4999999999996 144.8858315051671 48.64552371562941
vertex 124.5999999999996 139.8858315051671 45.49552371562941
vertex 136.5999999999996 139.8858315051671 45.49552371562941
endloop
endfacet
facet normal -0.38268343236509544 -0.9238795325112846 0.0
outer loop
vertex 129.04708572938446 128.0902765474327 43.99552371562941
vertex 127.59999999999958 128.68967908246046 45.49552371562941
vertex 127.59999999999958 128.68967908246046 43.99552371562941
endloop
endfacet
facet normal -0.38268343236509544 -0.9238795325112846 0.0
outer loop
vertex 127.59999999999958 128.68967908246046 45.49552371562941
vertex 129.04708572938446 128.0902765474327 43.99552371562941
vertex 129.04708572938446 128.0902765474327 45.49552371562941
endloop
endfacet
facet normal 0.38268343236508706 -0.9238795325112878 0.0
outer loop
vertex 129.3576685835075 139.42227547135462 43.99552371562941
vertex 128.1999999999996 138.9427534433324 45.49552371562941
vertex 128.1999999999996 138.9427534433324 43.99552371562941
endloop
endfacet
facet normal 0.38268343236508706 -0.9238795325112878 0.0
outer loop
vertex 128.1999999999996 138.9427534433324 45.49552371562941
vertex 129.3576685835075 139.42227547135462 43.99552371562941
vertex 129.3576685835075 139.42227547135462 45.49552371562941
endloop
endfacet
facet normal 6.123233995736786e-17 -1.0 1.4750906925304665e-15
outer loop
vertex 135.4999999999996 144.8858315051671 45.49552371562941
vertex 134.4999999999996 144.8858315051671 48.64552371562941
vertex 134.4999999999996 144.8858315051671 45.49552371562941
endloop
endfacet
facet normal 6.123233995736786e-17 -1.0 1.4750906925304665e-15
outer loop
vertex 126.69999999999959 144.8858315051671 45.49552371562941
vertex 125.69999999999959 144.8858315051671 51.79552371562941
vertex 125.69999999999959 144.8858315051671 45.49552371562941
endloop
endfacet
facet normal 6.123233995736786e-17 -1.0 1.4750906925304665e-15
outer loop
vertex 125.69999999999959 144.8858315051671 51.79552371562941
vertex 126.69999999999959 144.8858315051671 45.49552371562941
vertex 126.69999999999959 144.8858315051671 48.64552371562941
endloop
endfacet
facet normal 6.123233995736786e-17 -1.0 1.4750906925304665e-15
outer loop
vertex 125.69999999999959 144.8858315051671 51.79552371562941
vertex 126.69999999999959 144.8858315051671 48.64552371562941
vertex 135.4999999999996 144.8858315051671 51.79552371562941
endloop
endfacet
facet normal 6.123233995736786e-17 -1.0 1.4750906925304665e-15
outer loop
vertex 135.4999999999996 144.8858315051671 51.79552371562941
vertex 126.69999999999959 144.8858315051671 48.64552371562941
vertex 134.4999999999996 144.8858315051671 48.64552371562941
endloop
endfacet
facet normal 6.123233995736786e-17 -1.0 1.4750906925304665e-15
outer loop
vertex 135.4999999999996 144.8858315051671 51.79552371562941
vertex 134.4999999999996 144.8858315051671 48.64552371562941
vertex 135.4999999999996 144.8858315051671 45.49552371562941
endloop
endfacet
facet normal -1.0792071645484698e-31 1.762479051592436e-15 1.0
outer loop
vertex 125.69999999999959 144.8858315051671 51.79552371562941
vertex 135.4999999999996 145.4858315051671 51.79552371562941
vertex 125.69999999999959 145.4858315051671 51.79552371562941
endloop
endfacet
facet normal -1.0792071645484698e-31 1.762479051592436e-15 1.0
outer loop
vertex 135.4999999999996 145.4858315051671 51.79552371562941
vertex 125.69999999999959 144.8858315051671 51.79552371562941
vertex 135.4999999999996 144.8858315051671 51.79552371562941
endloop
endfacet
facet normal -0.9914448613738105 -0.13052619222005174 0.0
outer loop
vertex 124.80444504226519 132.33291723455196 45.49552371562941
vertex 124.5999999999996 133.8858315051671 43.99552371562941
vertex 124.80444504226519 132.33291723455196 43.99552371562941
endloop
endfacet
facet normal -0.9914448613738105 -0.13052619222005174 0.0
outer loop
vertex 124.5999999999996 133.8858315051671 43.99552371562941
vertex 124.80444504226519 132.33291723455196 45.49552371562941
vertex 124.5999999999996 133.8858315051671 45.49552371562941
endloop
endfacet
facet normal -0.1305261922200507 -0.9914448613738105 0.0
outer loop
vertex 130.5999999999996 127.88583150516709 43.99552371562941
vertex 129.04708572938446 128.0902765474327 45.49552371562941
vertex 129.04708572938446 128.0902765474327 43.99552371562941
endloop
endfacet
facet normal -0.1305261922200507 -0.9914448613738105 0.0
outer loop
vertex 129.04708572938446 128.0902765474327 45.49552371562941
vertex 130.5999999999996 127.88583150516709 43.99552371562941
vertex 130.5999999999996 127.88583150516709 45.49552371562941
endloop
endfacet
facet normal -0.13052619222004957 0.9914448613738107 0.0
outer loop
vertex 131.8423314164917 130.14938753897954 45.49552371562941
vertex 130.5999999999996 129.98583150516708 43.99552371562941
vertex 130.5999999999996 129.98583150516708 45.49552371562941
endloop
endfacet
facet normal -0.13052619222004957 0.9914448613738107 0.0
outer loop
vertex 130.5999999999996 129.98583150516708 43.99552371562941
vertex 131.8423314164917 130.14938753897954 45.49552371562941
vertex 131.8423314164917 130.14938753897954 43.99552371562941
endloop
endfacet
facet normal 0.9238795325112862 -0.3826834323650913 0.0
outer loop
vertex 126.44307806183429 137.1858315051671 45.49552371562941
vertex 125.96355603381207 136.0281629216592 43.99552371562941
vertex 126.44307806183429 137.1858315051671 43.99552371562941
endloop
endfacet
facet normal 0.9238795325112862 -0.3826834323650913 0.0
outer loop
vertex 125.96355603381207 136.0281629216592 43.99552371562941
vertex 126.44307806183429 137.1858315051671 45.49552371562941
vertex 125.96355603381207 136.0281629216592 45.49552371562941
endloop
endfacet
facet normal 0.9219821056073609 0.387232484355093 -1.257962743125511e-16
outer loop
vertex 134.4999999999996 144.8858315051671 48.64552371562941
vertex 136.5999999999996 139.8858315051671 45.49552371562941
vertex 134.4999999999996 144.8858315051671 45.49552371562941
endloop
endfacet
facet normal -0.9238795325112846 0.38268343236509517 0.0
outer loop
vertex 134.7569219381649 132.3858315051671 45.49552371562941
vertex 135.23644396618712 133.543500088675 43.99552371562941
vertex 134.7569219381649 132.3858315051671 43.99552371562941
endloop
endfacet
facet normal -0.9238795325112846 0.38268343236509517 0.0
outer loop
vertex 135.23644396618712 133.543500088675 43.99552371562941
vertex 134.7569219381649 132.3858315051671 45.49552371562941
vertex 135.23644396618712 133.543500088675 45.49552371562941
endloop
endfacet
facet normal 0.9238795325112876 0.38268343236508756 0.0
outer loop
vertex 125.96355603381207 133.543500088675 45.49552371562941
vertex 126.44307806183429 132.3858315051671 43.99552371562941
vertex 125.96355603381207 133.543500088675 43.99552371562941
endloop
endfacet
facet normal 0.9238795325112876 0.38268343236508756 0.0
outer loop
vertex 126.44307806183429 132.3858315051671 43.99552371562941
vertex 125.96355603381207 133.543500088675 45.49552371562941
vertex 126.44307806183429 132.3858315051671 45.49552371562941
endloop
endfacet
facet normal 0.7933533402912343 0.6087614290087218 0.0
outer loop
vertex 126.44307806183429 132.3858315051671 45.49552371562941
vertex 127.20588745030417 131.39171895547167 43.99552371562941
vertex 126.44307806183429 132.3858315051671 43.99552371562941
endloop
endfacet
facet normal 0.7933533402912343 0.6087614290087218 0.0
outer loop
vertex 127.20588745030417 131.39171895547167 43.99552371562941
vertex 126.44307806183429 132.3858315051671 45.49552371562941
vertex 127.20588745030417 131.39171895547167 45.49552371562941
endloop
endfacet
facet normal -0.923879532511289 -0.3826834323650847 0.0
outer loop
vertex 125.40384757729295 130.8858315051671 45.49552371562941
vertex 124.80444504226519 132.33291723455196 43.99552371562941
vertex 125.40384757729295 130.8858315051671 43.99552371562941
endloop
endfacet
facet normal -0.923879532511289 -0.3826834323650847 0.0
outer loop
vertex 124.80444504226519 132.33291723455196 43.99552371562941
vertex 125.40384757729295 130.8858315051671 45.49552371562941
vertex 124.80444504226519 132.33291723455196 45.49552371562941
endloop
endfacet
facet normal 0.608761429008723 0.7933533402912334 0.0
outer loop
vertex 128.1999999999996 130.62890956700178 45.49552371562941
vertex 127.20588745030417 131.39171895547167 43.99552371562941
vertex 127.20588745030417 131.39171895547167 45.49552371562941
endloop
endfacet
facet normal 0.608761429008723 0.7933533402912334 0.0
outer loop
vertex 127.20588745030417 131.39171895547167 43.99552371562941
vertex 128.1999999999996 130.62890956700178 45.49552371562941
vertex 128.1999999999996 130.62890956700178 43.99552371562941
endloop
endfacet
facet normal 0.38268343236509245 0.9238795325112857 0.0
outer loop
vertex 129.3576685835075 130.14938753897954 45.49552371562941
vertex 128.1999999999996 130.62890956700178 43.99552371562941
vertex 128.1999999999996 130.62890956700178 45.49552371562941
endloop
endfacet
facet normal 0.38268343236509245 0.9238795325112857 0.0
outer loop
vertex 128.1999999999996 130.62890956700178 43.99552371562941
vertex 129.3576685835075 130.14938753897954 45.49552371562941
vertex 129.3576685835075 130.14938753897954 43.99552371562941
endloop
endfacet
facet normal 0.1305261922200483 0.9914448613738109 0.0
outer loop
vertex 130.5999999999996 129.98583150516708 45.49552371562941
vertex 129.3576685835075 130.14938753897954 43.99552371562941
vertex 129.3576685835075 130.14938753897954 45.49552371562941
endloop
endfacet
facet normal 0.1305261922200483 0.9914448613738109 0.0
outer loop
vertex 129.3576685835075 130.14938753897954 43.99552371562941
vertex 130.5999999999996 129.98583150516708 45.49552371562941
vertex 130.5999999999996 129.98583150516708 43.99552371562941
endloop
endfacet
facet normal -0.9219821056073612 0.3872324843550922 0.0
outer loop
vertex 126.69999999999959 144.8858315051671 48.64552371562941
vertex 126.69999999999959 144.8858315051671 45.49552371562941
vertex 124.5999999999996 139.8858315051671 45.49552371562941
endloop
endfacet
facet normal 3.969439848631237e-18 -5.514664770447428e-18 -1.0
outer loop
vertex 136.5999999999996 133.8858315051671 43.99552371562941
vertex 135.4999999999996 144.8858315051671 43.99552371562941
vertex 136.5999999999996 144.8858315051671 43.99552371562941
endloop
endfacet
facet normal 3.969439848631237e-18 -5.514664770447428e-18 -1.0
outer loop
vertex 135.4999999999996 144.8858315051671 43.99552371562941
vertex 136.5999999999996 133.8858315051671 43.99552371562941
vertex 134.75692193816488 137.1858315051671 43.99552371562941
endloop
endfacet
facet normal 3.969439848631237e-18 -5.514664770447428e-18 -1.0
outer loop
vertex 135.4999999999996 144.8858315051671 43.99552371562941
vertex 134.75692193816488 137.1858315051671 43.99552371562941
vertex 133.99411254969505 138.17994405486252 43.99552371562941
endloop
endfacet
facet normal 3.969439848631237e-18 -5.514664770447428e-18 -1.0
outer loop
vertex 135.4999999999996 144.8858315051671 43.99552371562941
vertex 133.99411254969505 138.17994405486252 43.99552371562941
vertex 125.69999999999959 144.8858315051671 43.99552371562941
endloop
endfacet
facet normal 3.969439848631237e-18 -5.514664770447428e-18 -1.0
outer loop
vertex 125.69999999999959 144.8858315051671 43.99552371562941
vertex 133.99411254969505 138.17994405486252 43.99552371562941
vertex 132.9999999999996 138.9427534433324 43.99552371562941
endloop
endfacet
facet normal 3.969439848631237e-18 -5.514664770447428e-18 -1.0
outer loop
vertex 125.69999999999959 144.8858315051671 43.99552371562941
vertex 132.9999999999996 138.9427534433324 43.99552371562941
vertex 124.5999999999996 144.8858315051671 43.99552371562941
endloop
endfacet
facet normal 3.969439848631237e-18 -5.514664770447428e-18 -1.0
outer loop
vertex 124.5999999999996 144.8858315051671 43.99552371562941
vertex 132.9999999999996 138.9427534433324 43.99552371562941
vertex 131.8423314164917 139.42227547135462 43.99552371562941
endloop
endfacet
facet normal 3.969439848631237e-18 -5.514664770447428e-18 -1.0
outer loop
vertex 124.5999999999996 144.8858315051671 43.99552371562941
vertex 131.8423314164917 139.42227547135462 43.99552371562941
vertex 130.5999999999996 139.58583150516708 43.99552371562941
endloop
endfacet
facet normal 3.969439848631237e-18 -5.514664770447428e-18 -1.0
outer loop
vertex 134.75692193816488 137.1858315051671 43.99552371562941
vertex 136.5999999999996 133.8858315051671 43.99552371562941
vertex 135.2364439661871 136.0281629216592 43.99552371562941
endloop
endfacet
facet normal 3.969439848631237e-18 -5.514664770447428e-18 -1.0
outer loop
vertex 135.2364439661871 136.0281629216592 43.99552371562941
vertex 136.5999999999996 133.8858315051671 43.99552371562941
vertex 135.3999999999996 134.7858315051671 43.99552371562941
endloop
endfacet
facet normal 3.969439848631237e-18 -5.514664770447428e-18 -1.0
outer loop
vertex 135.3999999999996 134.7858315051671 43.99552371562941
vertex 136.5999999999996 133.8858315051671 43.99552371562941
vertex 135.23644396618712 133.543500088675 43.99552371562941
endloop
endfacet
facet normal 3.969439848631237e-18 -5.514664770447428e-18 -1.0
outer loop
vertex 135.23644396618712 133.543500088675 43.99552371562941
vertex 136.5999999999996 133.8858315051671 43.99552371562941
vertex 136.39555495773402 132.33291723455196 43.99552371562941
endloop
endfacet
facet normal 3.969439848631237e-18 -5.514664770447428e-18 -1.0
outer loop
vertex 135.23644396618712 133.543500088675 43.99552371562941
vertex 136.39555495773402 132.33291723455196 43.99552371562941
vertex 134.7569219381649 132.3858315051671 43.99552371562941
endloop
endfacet
facet normal 3.969439848631237e-18 -5.514664770447428e-18 -1.0
outer loop
vertex 134.7569219381649 132.3858315051671 43.99552371562941
vertex 136.39555495773402 132.33291723455196 43.99552371562941
vertex 133.99411254969505 131.39171895547167 43.99552371562941
endloop
endfacet
facet normal 3.969439848631237e-18 -5.514664770447428e-18 -1.0
outer loop
vertex 133.99411254969505 131.39171895547167 43.99552371562941
vertex 136.39555495773402 132.33291723455196 43.99552371562941
vertex 135.79615242270623 130.8858315051671 43.99552371562941
endloop
endfacet
facet normal 3.969439848631237e-18 -5.514664770447428e-18 -1.0
outer loop
vertex 133.99411254969505 131.39171895547167 43.99552371562941
vertex 135.79615242270623 130.8858315051671 43.99552371562941
vertex 132.9999999999996 130.62890956700178 43.99552371562941
endloop
endfacet
facet normal 3.969439848631237e-18 -5.514664770447428e-18 -1.0
outer loop
vertex 132.9999999999996 130.62890956700178 43.99552371562941
vertex 135.79615242270623 130.8858315051671 43.99552371562941
vertex 134.8426406871189 129.6431908180478 43.99552371562941
endloop
endfacet
facet normal 3.969439848631237e-18 -5.514664770447428e-18 -1.0
outer loop
vertex 132.9999999999996 130.62890956700178 43.99552371562941
vertex 134.8426406871189 129.6431908180478 43.99552371562941
vertex 131.8423314164917 130.14938753897954 43.99552371562941
endloop
endfacet
facet normal 3.969439848631237e-18 -5.514664770447428e-18 -1.0
outer loop
vertex 131.8423314164917 130.14938753897954 43.99552371562941
vertex 134.8426406871189 129.6431908180478 43.99552371562941
vertex 130.5999999999996 129.98583150516708 43.99552371562941
endloop
endfacet
facet normal 3.969439848631237e-18 -5.514664770447428e-18 -1.0
outer loop
vertex 124.5999999999996 144.8858315051671 43.99552371562941
vertex 126.44307806183429 137.1858315051671 43.99552371562941
vertex 124.5999999999996 133.8858315051671 43.99552371562941
endloop
endfacet
facet normal 3.969439848631237e-18 -5.514664770447428e-18 -1.0
outer loop
vertex 126.44307806183429 137.1858315051671 43.99552371562941
vertex 124.5999999999996 144.8858315051671 43.99552371562941
vertex 127.20588745030417 138.17994405486252 43.99552371562941
endloop
endfacet
facet normal 3.969439848631237e-18 -5.514664770447428e-18 -1.0
outer loop
vertex 127.20588745030417 138.17994405486252 43.99552371562941
vertex 124.5999999999996 144.8858315051671 43.99552371562941
vertex 128.1999999999996 138.9427534433324 43.99552371562941
endloop
endfacet
facet normal 3.969439848631237e-18 -5.514664770447428e-18 -1.0
outer loop
vertex 128.1999999999996 138.9427534433324 43.99552371562941
vertex 124.5999999999996 144.8858315051671 43.99552371562941
vertex 129.3576685835075 139.42227547135462 43.99552371562941
endloop
endfacet
facet normal 3.969439848631237e-18 -5.514664770447428e-18 -1.0
outer loop
vertex 129.3576685835075 139.42227547135462 43.99552371562941
vertex 124.5999999999996 144.8858315051671 43.99552371562941
vertex 130.5999999999996 139.58583150516708 43.99552371562941
endloop
endfacet
facet normal 3.969439848631237e-18 -5.514664770447428e-18 -1.0
outer loop
vertex 124.5999999999996 133.8858315051671 43.99552371562941
vertex 126.44307806183429 137.1858315051671 43.99552371562941
vertex 125.96355603381207 136.0281629216592 43.99552371562941
endloop
endfacet
facet normal 3.969439848631237e-18 -5.514664770447428e-18 -1.0
outer loop
vertex 124.5999999999996 133.8858315051671 43.99552371562941
vertex 125.96355603381207 136.0281629216592 43.99552371562941
vertex 125.79999999999959 134.7858315051671 43.99552371562941
endloop
endfacet
facet normal 3.969439848631237e-18 -5.514664770447428e-18 -1.0
outer loop
vertex 124.5999999999996 133.8858315051671 43.99552371562941
vertex 125.79999999999959 134.7858315051671 43.99552371562941
vertex 125.96355603381207 133.543500088675 43.99552371562941
endloop
endfacet
facet normal 3.969439848631237e-18 -5.514664770447428e-18 -1.0
outer loop
vertex 124.5999999999996 133.8858315051671 43.99552371562941
vertex 125.96355603381207 133.543500088675 43.99552371562941
vertex 124.80444504226519 132.33291723455196 43.99552371562941
endloop
endfacet
facet normal 3.969439848631237e-18 -5.514664770447428e-18 -1.0
outer loop
vertex 124.80444504226519 132.33291723455196 43.99552371562941
vertex 125.96355603381207 133.543500088675 43.99552371562941
vertex 126.44307806183429 132.3858315051671 43.99552371562941
endloop
endfacet
facet normal 3.969439848631237e-18 -5.514664770447428e-18 -1.0
outer loop
vertex 124.80444504226519 132.33291723455196 43.99552371562941
vertex 126.44307806183429 132.3858315051671 43.99552371562941
vertex 127.20588745030417 131.39171895547167 43.99552371562941
endloop
endfacet
facet normal 3.969439848631237e-18 -5.514664770447428e-18 -1.0
outer loop
vertex 124.80444504226519 132.33291723455196 43.99552371562941
vertex 127.20588745030417 131.39171895547167 43.99552371562941
vertex 125.40384757729295 130.8858315051671 43.99552371562941
endloop
endfacet
facet normal 3.969439848631237e-18 -5.514664770447428e-18 -1.0
outer loop
vertex 125.40384757729295 130.8858315051671 43.99552371562941
vertex 127.20588745030417 131.39171895547167 43.99552371562941
vertex 128.1999999999996 130.62890956700178 43.99552371562941
endloop
endfacet
facet normal 3.969439848631237e-18 -5.514664770447428e-18 -1.0
outer loop
vertex 125.40384757729295 130.8858315051671 43.99552371562941
vertex 128.1999999999996 130.62890956700178 43.99552371562941
vertex 126.3573593128803 129.6431908180478 43.99552371562941
endloop
endfacet
facet normal 3.969439848631237e-18 -5.514664770447428e-18 -1.0
outer loop
vertex 126.3573593128803 129.6431908180478 43.99552371562941
vertex 128.1999999999996 130.62890956700178 43.99552371562941
vertex 129.3576685835075 130.14938753897954 43.99552371562941
endloop
endfacet
facet normal 3.969439848631237e-18 -5.514664770447428e-18 -1.0
outer loop
vertex 126.3573593128803 129.6431908180478 43.99552371562941
vertex 129.3576685835075 130.14938753897954 43.99552371562941
vertex 130.5999999999996 129.98583150516708 43.99552371562941
endloop
endfacet
facet normal 3.969439848631237e-18 -5.514664770447428e-18 -1.0
outer loop
vertex 126.3573593128803 129.6431908180478 43.99552371562941
vertex 130.5999999999996 129.98583150516708 43.99552371562941
vertex 134.8426406871189 129.6431908180478 43.99552371562941
endloop
endfacet
facet normal 3.969439848631237e-18 -5.514664770447428e-18 -1.0
outer loop
vertex 126.3573593128803 129.6431908180478 43.99552371562941
vertex 134.8426406871189 129.6431908180478 43.99552371562941
vertex 133.5999999999996 128.68967908246046 43.99552371562941
endloop
endfacet
facet normal 3.969439848631237e-18 -5.514664770447428e-18 -1.0
outer loop
vertex 126.3573593128803 129.6431908180478 43.99552371562941
vertex 133.5999999999996 128.68967908246046 43.99552371562941
vertex 127.59999999999958 128.68967908246046 43.99552371562941
endloop
endfacet
facet normal 3.969439848631237e-18 -5.514664770447428e-18 -1.0
outer loop
vertex 127.59999999999958 128.68967908246046 43.99552371562941
vertex 133.5999999999996 128.68967908246046 43.99552371562941
vertex 132.15291427061473 128.0902765474327 43.99552371562941
endloop
endfacet
facet normal 3.969439848631237e-18 -5.514664770447428e-18 -1.0
outer loop
vertex 127.59999999999958 128.68967908246046 43.99552371562941
vertex 132.15291427061473 128.0902765474327 43.99552371562941
vertex 129.04708572938446 128.0902765474327 43.99552371562941
endloop
endfacet
facet normal 3.969439848631237e-18 -5.514664770447428e-18 -1.0
outer loop
vertex 129.04708572938446 128.0902765474327 43.99552371562941
vertex 132.15291427061473 128.0902765474327 43.99552371562941
vertex 130.5999999999996 127.88583150516709 43.99552371562941
endloop
endfacet
facet normal 3.969439848631237e-18 -5.514664770447428e-18 -1.0
outer loop
vertex 135.4999999999996 144.8858315051671 43.99552371562941
vertex 125.69999999999959 145.4858315051671 43.99552371562941
vertex 135.4999999999996 145.4858315051671 43.99552371562941
endloop
endfacet
facet normal 3.969439848631237e-18 -5.514664770447428e-18 -1.0
outer loop
vertex 125.69999999999959 145.4858315051671 43.99552371562941
vertex 135.4999999999996 144.8858315051671 43.99552371562941
vertex 125.69999999999959 144.8858315051671 43.99552371562941
endloop
endfacet
facet normal 0.9914448613738103 -0.1305261922200533 0.0
outer loop
vertex 125.96355603381207 136.0281629216592 45.49552371562941
vertex 125.79999999999959 134.7858315051671 43.99552371562941
vertex 125.96355603381207 136.0281629216592 43.99552371562941
endloop
endfacet
facet normal 0.9914448613738103 -0.1305261922200533 0.0
outer loop
vertex 125.79999999999959 134.7858315051671 43.99552371562941
vertex 125.96355603381207 136.0281629216592 45.49552371562941
vertex 125.79999999999959 134.7858315051671 45.49552371562941
endloop
endfacet
facet normal 0.9914448613738103 0.13052619222005357 0.0
outer loop
vertex 125.79999999999959 134.7858315051671 45.49552371562941
vertex 125.96355603381207 133.543500088675 43.99552371562941
vertex 125.79999999999959 134.7858315051671 43.99552371562941
endloop
endfacet
facet normal 0.9914448613738103 0.13052619222005357 0.0
outer loop
vertex 125.96355603381207 133.543500088675 43.99552371562941
vertex 125.79999999999959 134.7858315051671 45.49552371562941
vertex 125.96355603381207 133.543500088675 45.49552371562941
endloop
endfacet
facet normal -1.0 -6.123233995736766e-17 0.0
outer loop
vertex 125.69999999999959 144.8858315051671 45.49552371562941
vertex 125.69999999999959 145.4858315051671 43.99552371562941
vertex 125.69999999999959 144.8858315051671 43.99552371562941
endloop
endfacet
facet normal -1.0 -6.123233995736766e-17 0.0
outer loop
vertex 125.69999999999959 145.4858315051671 43.99552371562941
vertex 125.69999999999959 144.8858315051671 45.49552371562941
vertex 125.69999999999959 145.4858315051671 51.79552371562941
endloop
endfacet
facet normal -1.0 -6.123233995736766e-17 0.0
outer loop
vertex 125.69999999999959 145.4858315051671 51.79552371562941
vertex 125.69999999999959 144.8858315051671 45.49552371562941
vertex 125.69999999999959 144.8858315051671 51.79552371562941
endloop
endfacet
facet normal 0.13052619222005268 -0.9914448613738103 0.0
outer loop
vertex 132.15291427061473 128.0902765474327 43.99552371562941
vertex 130.5999999999996 127.88583150516709 45.49552371562941
vertex 130.5999999999996 127.88583150516709 43.99552371562941
endloop
endfacet
facet normal 0.13052619222005268 -0.9914448613738103 0.0
outer loop
vertex 130.5999999999996 127.88583150516709 45.49552371562941
vertex 132.15291427061473 128.0902765474327 43.99552371562941
vertex 132.15291427061473 128.0902765474327 45.49552371562941
endloop
endfacet
facet normal 0.9914448613738105 -0.1305261922200514 0.0
outer loop
vertex 136.5999999999996 133.8858315051671 45.49552371562941
vertex 136.39555495773402 132.33291723455196 43.99552371562941
vertex 136.5999999999996 133.8858315051671 43.99552371562941
endloop
endfacet
facet normal 0.9914448613738105 -0.1305261922200514 0.0
outer loop
vertex 136.39555495773402 132.33291723455196 43.99552371562941
vertex 136.5999999999996 133.8858315051671 45.49552371562941
vertex 136.39555495773402 132.33291723455196 45.49552371562941
endloop
endfacet
facet normal 0.9238795325112871 -0.3826834323650889 0.0
outer loop
vertex 136.39555495773402 132.33291723455196 45.49552371562941
vertex 135.79615242270623 130.8858315051671 43.99552371562941
vertex 136.39555495773402 132.33291723455196 43.99552371562941
endloop
endfacet
facet normal 0.9238795325112871 -0.3826834323650889 0.0
outer loop
vertex 135.79615242270623 130.8858315051671 43.99552371562941
vertex 136.39555495773402 132.33291723455196 45.49552371562941
vertex 135.79615242270623 130.8858315051671 45.49552371562941
endloop
endfacet
facet normal 0.7933533402912345 -0.6087614290087217 0.0
outer loop
vertex 135.79615242270623 130.8858315051671 45.49552371562941
vertex 134.8426406871189 129.6431908180478 43.99552371562941
vertex 135.79615242270623 130.8858315051671 43.99552371562941
endloop
endfacet
facet normal 0.7933533402912345 -0.6087614290087217 0.0
outer loop
vertex 134.8426406871189 129.6431908180478 43.99552371562941
vertex 135.79615242270623 130.8858315051671 45.49552371562941
vertex 134.8426406871189 129.6431908180478 45.49552371562941
endloop
endfacet
facet normal 0.6087614290087197 -0.7933533402912359 0.0
outer loop
vertex 134.8426406871189 129.6431908180478 43.99552371562941
vertex 133.5999999999996 128.68967908246046 45.49552371562941
vertex 133.5999999999996 128.68967908246046 43.99552371562941
endloop
endfacet
facet normal 0.6087614290087197 -0.7933533402912359 0.0
outer loop
vertex 133.5999999999996 128.68967908246046 45.49552371562941
vertex 134.8426406871189 129.6431908180478 43.99552371562941
vertex 134.8426406871189 129.6431908180478 45.49552371562941
endloop
endfacet
facet normal 0.38268343236508706 -0.9238795325112878 0.0
outer loop
vertex 133.5999999999996 128.68967908246046 43.99552371562941
vertex 132.15291427061473 128.0902765474327 45.49552371562941
vertex 132.15291427061473 128.0902765474327 43.99552371562941
endloop
endfacet
facet normal 0.38268343236508706 -0.9238795325112878 0.0
outer loop
vertex 132.15291427061473 128.0902765474327 45.49552371562941
vertex 133.5999999999996 128.68967908246046 43.99552371562941
vertex 133.5999999999996 128.68967908246046 45.49552371562941
endloop
endfacet
facet normal 1.0 6.123233995736766e-17 0.0
outer loop
vertex 135.4999999999996 145.4858315051671 51.79552371562941
vertex 135.4999999999996 144.8858315051671 43.99552371562941
vertex 135.4999999999996 145.4858315051671 43.99552371562941
endloop
endfacet
facet normal 1.0 6.123233995736766e-17 0.0
outer loop
vertex 135.4999999999996 144.8858315051671 43.99552371562941
vertex 135.4999999999996 145.4858315051671 51.79552371562941
vertex 135.4999999999996 144.8858315051671 45.49552371562941
endloop
endfacet
facet normal 1.0 6.123233995736766e-17 0.0
outer loop
vertex 135.4999999999996 144.8858315051671 45.49552371562941
vertex 135.4999999999996 145.4858315051671 51.79552371562941
vertex 135.4999999999996 144.8858315051671 51.79552371562941
endloop
endfacet
facet normal -0.7933533402912392 -0.6087614290087154 0.0
outer loop
vertex 134.75692193816488 137.1858315051671 45.49552371562941
vertex 133.99411254969505 138.17994405486252 43.99552371562941
vertex 134.75692193816488 137.1858315051671 43.99552371562941
endloop
endfacet
facet normal -0.7933533402912392 -0.6087614290087154 0.0
outer loop
vertex 133.99411254969505 138.17994405486252 43.99552371562941
vertex 134.75692193816488 137.1858315051671 45.49552371562941
vertex 133.99411254969505 138.17994405486252 45.49552371562941
endloop
endfacet
facet normal -0.6087614290087214 -0.7933533402912345 0.0
outer loop
vertex 133.99411254969505 138.17994405486252 43.99552371562941
vertex 132.9999999999996 138.9427534433324 45.49552371562941
vertex 132.9999999999996 138.9427534433324 43.99552371562941
endloop
endfacet
facet normal -0.6087614290087214 -0.7933533402912345 0.0
outer loop
vertex 132.9999999999996 138.9427534433324 45.49552371562941
vertex 133.99411254969505 138.17994405486252 43.99552371562941
vertex 133.99411254969505 138.17994405486252 45.49552371562941
endloop
endfacet
facet normal -0.3826834323650873 -0.9238795325112878 0.0
outer loop
vertex 132.9999999999996 138.9427534433324 43.99552371562941
vertex 131.8423314164917 139.42227547135462 45.49552371562941
vertex 131.8423314164917 139.42227547135462 43.99552371562941
endloop
endfacet
facet normal -0.3826834323650873 -0.9238795325112878 0.0
outer loop
vertex 131.8423314164917 139.42227547135462 45.49552371562941
vertex 132.9999999999996 138.9427534433324 43.99552371562941
vertex 132.9999999999996 138.9427534433324 45.49552371562941
endloop
endfacet
facet normal -3.613813760881175e-19 8.838279294113048e-18 1.0
outer loop
vertex 124.5999999999996 139.8858315051671 45.49552371562941
vertex 130.5999999999996 139.58583150516708 45.49552371562941
vertex 136.5999999999996 139.8858315051671 45.49552371562941
endloop
endfacet
facet normal -3.613813760881175e-19 8.838279294113048e-18 1.0
outer loop
vertex 130.5999999999996 139.58583150516708 45.49552371562941
vertex 124.5999999999996 139.8858315051671 45.49552371562941
vertex 129.3576685835075 139.42227547135462 45.49552371562941
endloop
endfacet
facet normal -3.613813760881175e-19 8.838279294113048e-18 1.0
outer loop
vertex 129.3576685835075 139.42227547135462 45.49552371562941
vertex 124.5999999999996 139.8858315051671 45.49552371562941
vertex 128.1999999999996 138.9427534433324 45.49552371562941
endloop
endfacet
facet normal -3.613813760881175e-19 8.838279294113048e-18 1.0
outer loop
vertex 128.1999999999996 138.9427534433324 45.49552371562941
vertex 124.5999999999996 139.8858315051671 45.49552371562941
vertex 127.20588745030417 138.17994405486252 45.49552371562941
endloop
endfacet
facet normal -3.613813760881175e-19 8.838279294113048e-18 1.0
outer loop
vertex 127.20588745030417 138.17994405486252 45.49552371562941
vertex 124.5999999999996 139.8858315051671 45.49552371562941
vertex 126.44307806183429 137.1858315051671 45.49552371562941
endloop
endfacet
facet normal -3.613813760881175e-19 8.838279294113048e-18 1.0
outer loop
vertex 126.44307806183429 137.1858315051671 45.49552371562941
vertex 124.5999999999996 139.8858315051671 45.49552371562941
vertex 124.5999999999996 133.8858315051671 45.49552371562941
endloop
endfacet
facet normal -3.613813760881175e-19 8.838279294113048e-18 1.0
outer loop
vertex 126.44307806183429 137.1858315051671 45.49552371562941
vertex 124.5999999999996 133.8858315051671 45.49552371562941
vertex 125.96355603381207 136.0281629216592 45.49552371562941
endloop
endfacet
facet normal -3.613813760881175e-19 8.838279294113048e-18 1.0
outer loop
vertex 125.96355603381207 136.0281629216592 45.49552371562941
vertex 124.5999999999996 133.8858315051671 45.49552371562941
vertex 125.79999999999959 134.7858315051671 45.49552371562941
endloop
endfacet
facet normal -3.613813760881175e-19 8.838279294113048e-18 1.0
outer loop
vertex 125.79999999999959 134.7858315051671 45.49552371562941
vertex 124.5999999999996 133.8858315051671 45.49552371562941
vertex 125.96355603381207 133.543500088675 45.49552371562941
endloop
endfacet
facet normal -3.613813760881175e-19 8.838279294113048e-18 1.0
outer loop
vertex 125.96355603381207 133.543500088675 45.49552371562941
vertex 124.5999999999996 133.8858315051671 45.49552371562941
vertex 124.80444504226519 132.33291723455196 45.49552371562941
endloop
endfacet
facet normal -3.613813760881175e-19 8.838279294113048e-18 1.0
outer loop
vertex 125.96355603381207 133.543500088675 45.49552371562941
vertex 124.80444504226519 132.33291723455196 45.49552371562941
vertex 126.44307806183429 132.3858315051671 45.49552371562941
endloop
endfacet
facet normal -3.613813760881175e-19 8.838279294113048e-18 1.0
outer loop
vertex 126.44307806183429 132.3858315051671 45.49552371562941
vertex 124.80444504226519 132.33291723455196 45.49552371562941
vertex 127.20588745030417 131.39171895547167 45.49552371562941
endloop
endfacet
facet normal -3.613813760881175e-19 8.838279294113048e-18 1.0
outer loop
vertex 127.20588745030417 131.39171895547167 45.49552371562941
vertex 124.80444504226519 132.33291723455196 45.49552371562941
vertex 125.40384757729295 130.8858315051671 45.49552371562941
endloop
endfacet
facet normal -3.613813760881175e-19 8.838279294113048e-18 1.0
outer loop
vertex 127.20588745030417 131.39171895547167 45.49552371562941
vertex 125.40384757729295 130.8858315051671 45.49552371562941
vertex 128.1999999999996 130.62890956700178 45.49552371562941
endloop
endfacet
facet normal -3.613813760881175e-19 8.838279294113048e-18 1.0
outer loop
vertex 128.1999999999996 130.62890956700178 45.49552371562941
vertex 125.40384757729295 130.8858315051671 45.49552371562941
vertex 126.3573593128803 129.6431908180478 45.49552371562941
endloop
endfacet
facet normal -3.613813760881175e-19 8.838279294113048e-18 1.0
outer loop
vertex 128.1999999999996 130.62890956700178 45.49552371562941
vertex 126.3573593128803 129.6431908180478 45.49552371562941
vertex 129.3576685835075 130.14938753897954 45.49552371562941
endloop
endfacet
facet normal -3.613813760881175e-19 8.838279294113048e-18 1.0
outer loop
vertex 129.3576685835075 130.14938753897954 45.49552371562941
vertex 126.3573593128803 129.6431908180478 45.49552371562941
vertex 130.5999999999996 129.98583150516708 45.49552371562941
endloop
endfacet
facet normal -3.613813760881175e-19 8.838279294113048e-18 1.0
outer loop
vertex 136.5999999999996 139.8858315051671 45.49552371562941
vertex 134.75692193816488 137.1858315051671 45.49552371562941
vertex 136.5999999999996 133.8858315051671 45.49552371562941
endloop
endfacet
facet normal -3.613813760881175e-19 8.838279294113048e-18 1.0
outer loop
vertex 134.75692193816488 137.1858315051671 45.49552371562941
vertex 136.5999999999996 139.8858315051671 45.49552371562941
vertex 133.99411254969505 138.17994405486252 45.49552371562941
endloop
endfacet
facet normal -3.613813760881175e-19 8.838279294113048e-18 1.0
outer loop
vertex 133.99411254969505 138.17994405486252 45.49552371562941
vertex 136.5999999999996 139.8858315051671 45.49552371562941
vertex 132.9999999999996 138.9427534433324 45.49552371562941
endloop
endfacet
facet normal -3.613813760881175e-19 8.838279294113048e-18 1.0
outer loop
vertex 132.9999999999996 138.9427534433324 45.49552371562941
vertex 136.5999999999996 139.8858315051671 45.49552371562941
vertex 131.8423314164917 139.42227547135462 45.49552371562941
endloop
endfacet
facet normal -3.613813760881175e-19 8.838279294113048e-18 1.0
outer loop
vertex 131.8423314164917 139.42227547135462 45.49552371562941
vertex 136.5999999999996 139.8858315051671 45.49552371562941
vertex 130.5999999999996 139.58583150516708 45.49552371562941
endloop
endfacet
facet normal -3.613813760881175e-19 8.838279294113048e-18 1.0
outer loop
vertex 136.5999999999996 133.8858315051671 45.49552371562941
vertex 134.75692193816488 137.1858315051671 45.49552371562941
vertex 135.2364439661871 136.0281629216592 45.49552371562941
endloop
endfacet
facet normal -3.613813760881175e-19 8.838279294113048e-18 1.0
outer loop
vertex 136.5999999999996 133.8858315051671 45.49552371562941
vertex 135.2364439661871 136.0281629216592 45.49552371562941
vertex 135.3999999999996 134.7858315051671 45.49552371562941
endloop
endfacet
facet normal -3.613813760881175e-19 8.838279294113048e-18 1.0
outer loop
vertex 136.5999999999996 133.8858315051671 45.49552371562941
vertex 135.3999999999996 134.7858315051671 45.49552371562941
vertex 135.23644396618712 133.543500088675 45.49552371562941
endloop
endfacet
facet normal -3.613813760881175e-19 8.838279294113048e-18 1.0
outer loop
vertex 136.5999999999996 133.8858315051671 45.49552371562941
vertex 135.23644396618712 133.543500088675 45.49552371562941
vertex 136.39555495773402 132.33291723455196 45.49552371562941
endloop
endfacet
facet normal -3.613813760881175e-19 8.838279294113048e-18 1.0
outer loop
vertex 136.39555495773402 132.33291723455196 45.49552371562941
vertex 135.23644396618712 133.543500088675 45.49552371562941
vertex 134.7569219381649 132.3858315051671 45.49552371562941
endloop
endfacet
facet normal -3.613813760881175e-19 8.838279294113048e-18 1.0
outer loop
vertex 136.39555495773402 132.33291723455196 45.49552371562941
vertex 134.7569219381649 132.3858315051671 45.49552371562941
vertex 133.99411254969505 131.39171895547167 45.49552371562941
endloop
endfacet
facet normal -3.613813760881175e-19 8.838279294113048e-18 1.0
outer loop
vertex 136.39555495773402 132.33291723455196 45.49552371562941
vertex 133.99411254969505 131.39171895547167 45.49552371562941
vertex 135.79615242270623 130.8858315051671 45.49552371562941
endloop
endfacet
facet normal -3.613813760881175e-19 8.838279294113048e-18 1.0
outer loop
vertex 135.79615242270623 130.8858315051671 45.49552371562941
vertex 133.99411254969505 131.39171895547167 45.49552371562941
vertex 132.9999999999996 130.62890956700178 45.49552371562941
endloop
endfacet
facet normal -3.613813760881175e-19 8.838279294113048e-18 1.0
outer loop
vertex 135.79615242270623 130.8858315051671 45.49552371562941
vertex 132.9999999999996 130.62890956700178 45.49552371562941
vertex 134.8426406871189 129.6431908180478 45.49552371562941
endloop
endfacet
facet normal -3.613813760881175e-19 8.838279294113048e-18 1.0
outer loop
vertex 134.8426406871189 129.6431908180478 45.49552371562941
vertex 132.9999999999996 130.62890956700178 45.49552371562941
vertex 131.8423314164917 130.14938753897954 45.49552371562941
endloop
endfacet
facet normal -3.613813760881175e-19 8.838279294113048e-18 1.0
outer loop
vertex 134.8426406871189 129.6431908180478 45.49552371562941
vertex 131.8423314164917 130.14938753897954 45.49552371562941
vertex 130.5999999999996 129.98583150516708 45.49552371562941
endloop
endfacet
facet normal -3.613813760881175e-19 8.838279294113048e-18 1.0
outer loop
vertex 134.8426406871189 129.6431908180478 45.49552371562941
vertex 130.5999999999996 129.98583150516708 45.49552371562941
vertex 126.3573593128803 129.6431908180478 45.49552371562941
endloop
endfacet
facet normal -3.613813760881175e-19 8.838279294113048e-18 1.0
outer loop
vertex 134.8426406871189 129.6431908180478 45.49552371562941
vertex 126.3573593128803 129.6431908180478 45.49552371562941
vertex 127.59999999999958 128.68967908246046 45.49552371562941
endloop
endfacet
facet normal -3.613813760881175e-19 8.838279294113048e-18 1.0
outer loop
vertex 134.8426406871189 129.6431908180478 45.49552371562941
vertex 127.59999999999958 128.68967908246046 45.49552371562941
vertex 133.5999999999996 128.68967908246046 45.49552371562941
endloop
endfacet
facet normal -3.613813760881175e-19 8.838279294113048e-18 1.0
outer loop
vertex 133.5999999999996 128.68967908246046 45.49552371562941
vertex 127.59999999999958 128.68967908246046 45.49552371562941
vertex 129.04708572938446 128.0902765474327 45.49552371562941
endloop
endfacet
facet normal -3.613813760881175e-19 8.838279294113048e-18 1.0
outer loop
vertex 133.5999999999996 128.68967908246046 45.49552371562941
vertex 129.04708572938446 128.0902765474327 45.49552371562941
vertex 132.15291427061473 128.0902765474327 45.49552371562941
endloop
endfacet
facet normal -3.613813760881175e-19 8.838279294113048e-18 1.0
outer loop
vertex 132.15291427061473 128.0902765474327 45.49552371562941
vertex 129.04708572938446 128.0902765474327 45.49552371562941
vertex 130.5999999999996 127.88583150516709 45.49552371562941
endloop
endfacet
facet normal -0.13052619222005166 -0.9914448613738105 0.0
outer loop
vertex 131.8423314164917 139.42227547135462 43.99552371562941
vertex 130.5999999999996 139.58583150516708 45.49552371562941
vertex 130.5999999999996 139.58583150516708 43.99552371562941
endloop
endfacet
facet normal -0.13052619222005166 -0.9914448613738105 0.0
outer loop
vertex 130.5999999999996 139.58583150516708 45.49552371562941
vertex 131.8423314164917 139.42227547135462 43.99552371562941
vertex 131.8423314164917 139.42227547135462 45.49552371562941
endloop
endfacet
facet normal -1.0 -6.123233995736766e-17 0.0
outer loop
vertex 124.5999999999996 133.8858315051671 45.49552371562941
vertex 124.5999999999996 144.8858315051671 43.99552371562941
vertex 124.5999999999996 133.8858315051671 43.99552371562941
endloop
endfacet
facet normal -1.0 -6.123233995736766e-17 0.0
outer loop
vertex 124.5999999999996 144.8858315051671 43.99552371562941
vertex 124.5999999999996 133.8858315051671 45.49552371562941
vertex 124.5999999999996 144.8858315051671 45.49552371562941
endloop
endfacet
facet normal -1.0 -6.123233995736766e-17 0.0
outer loop
vertex 124.5999999999996 144.8858315051671 45.49552371562941
vertex 124.5999999999996 133.8858315051671 45.49552371562941
vertex 124.5999999999996 139.8858315051671 45.49552371562941
endloop
endfacet
facet normal 0.1305261922200512 -0.9914448613738105 0.0
outer loop
vertex 130.5999999999996 139.58583150516708 43.99552371562941
vertex 129.3576685835075 139.42227547135462 45.49552371562941
vertex 129.3576685835075 139.42227547135462 43.99552371562941
endloop
endfacet
facet normal 0.1305261922200512 -0.9914448613738105 0.0
outer loop
vertex 129.3576685835075 139.42227547135462 45.49552371562941
vertex 130.5999999999996 139.58583150516708 43.99552371562941
vertex 130.5999999999996 139.58583150516708 45.49552371562941
endloop
endfacet
facet normal -6.123233995736766e-17 1.0 0.0
outer loop
vertex 125.69999999999959 144.8858315051671 45.49552371562941
vertex 124.5999999999996 144.8858315051671 43.99552371562941
vertex 124.5999999999996 144.8858315051671 45.49552371562941
endloop
endfacet
facet normal -6.123233995736766e-17 1.0 0.0
outer loop
vertex 124.5999999999996 144.8858315051671 43.99552371562941
vertex 125.69999999999959 144.8858315051671 45.49552371562941
vertex 125.69999999999959 144.8858315051671 43.99552371562941
endloop
endfacet
facet normal -6.123233995736766e-17 1.0 -1.334569474162542e-15
outer loop
vertex 135.4999999999996 145.4858315051671 51.79552371562941
vertex 125.69999999999959 145.4858315051671 43.99552371562941
vertex 125.69999999999959 145.4858315051671 51.79552371562941
endloop
endfacet
facet normal -6.123233995736766e-17 1.0 -1.334569474162542e-15
outer loop
vertex 125.69999999999959 145.4858315051671 43.99552371562941
vertex 135.4999999999996 145.4858315051671 51.79552371562941
vertex 135.4999999999996 145.4858315051671 43.99552371562941
endloop
endfacet
facet normal 0.0 0.0 1.0
outer loop
vertex 124.5999999999996 139.8858315051671 45.49552371562941
vertex 125.69999999999959 144.8858315051671 45.49552371562941
vertex 124.5999999999996 144.8858315051671 45.49552371562941
endloop
endfacet
facet normal 0.0 0.0 1.0
outer loop
vertex 125.69999999999959 144.8858315051671 45.49552371562941
vertex 124.5999999999996 139.8858315051671 45.49552371562941
vertex 126.69999999999959 144.8858315051671 45.49552371562941
endloop
endfacet
facet normal -6.123233995736766e-17 1.0 0.0
outer loop
vertex 136.5999999999996 144.8858315051671 45.49552371562941
vertex 135.4999999999996 144.8858315051671 43.99552371562941
vertex 135.4999999999996 144.8858315051671 45.49552371562941
endloop
endfacet
facet normal -6.123233995736766e-17 1.0 0.0
outer loop
vertex 135.4999999999996 144.8858315051671 43.99552371562941
vertex 136.5999999999996 144.8858315051671 45.49552371562941
vertex 136.5999999999996 144.8858315051671 43.99552371562941
endloop
endfacet
facet normal 0.6087614290087244 -0.7933533402912323 0.0
outer loop
vertex 128.1999999999996 138.9427534433324 43.99552371562941
vertex 127.20588745030417 138.17994405486252 45.49552371562941
vertex 127.20588745030417 138.17994405486252 43.99552371562941
endloop
endfacet
facet normal 0.6087614290087244 -0.7933533402912323 0.0
outer loop
vertex 127.20588745030417 138.17994405486252 45.49552371562941
vertex 128.1999999999996 138.9427534433324 43.99552371562941
vertex 128.1999999999996 138.9427534433324 45.49552371562941
endloop
endfacet
facet normal 0.0 0.0 1.0
outer loop
vertex 136.5999999999996 139.8858315051671 45.49552371562941
vertex 135.4999999999996 144.8858315051671 45.49552371562941
vertex 134.4999999999996 144.8858315051671 45.49552371562941
endloop
endfacet
facet normal 0.0 0.0 1.0
outer loop
vertex 135.4999999999996 144.8858315051671 45.49552371562941
vertex 136.5999999999996 139.8858315051671 45.49552371562941
vertex 136.5999999999996 144.8858315051671 45.49552371562941
endloop
endfacet
facet normal -0.9914448613738114 -0.13052619222004502 0.0
outer loop
vertex 135.3999999999996 134.7858315051671 45.49552371562941
vertex 135.2364439661871 136.0281629216592 43.99552371562941
vertex 135.3999999999996 134.7858315051671 43.99552371562941
endloop
endfacet
facet normal -0.9914448613738114 -0.13052619222004502 0.0
outer loop
vertex 135.2364439661871 136.0281629216592 43.99552371562941
vertex 135.3999999999996 134.7858315051671 45.49552371562941
vertex 135.2364439661871 136.0281629216592 45.49552371562941
endloop
endfacet
facet normal -0.6087614290087164 0.7933533402912383 0.0
outer loop
vertex 133.99411254969505 131.39171895547167 45.49552371562941
vertex 132.9999999999996 130.62890956700178 43.99552371562941
vertex 132.9999999999996 130.62890956700178 45.49552371562941
endloop
endfacet
facet normal -0.6087614290087164 0.7933533402912383 0.0
outer loop
vertex 132.9999999999996 130.62890956700178 43.99552371562941
vertex 133.99411254969505 131.39171895547167 45.49552371562941
vertex 133.99411254969505 131.39171895547167 43.99552371562941
endloop
endfacet
endsolid Plotter
