solid Plotter
facet normal 0.923879532511289 -0.38268343236508456 0.0
outer loop
vertex 138.32740661031212 133.715279144347 72.48515319444955
vertex 137.52820323027512 131.78583150516715 76.48515319444955
vertex 137.52820323027512 131.78583150516715 72.48515319444955
endloop
endfacet
facet normal 0.923879532511289 -0.38268343236508456 0.0
outer loop
vertex 137.52820323027512 131.78583150516715 76.48515319444955
vertex 138.32740661031212 133.715279144347 72.48515319444955
vertex 138.32740661031212 133.715279144347 76.48515319444955
endloop
endfacet
facet normal -0.38268343236509006 0.9238795325112866 0.0
outer loop
vertex 126.59999999999961 142.71403473544265 76.48515319444955
vertex 128.52944763917944 143.51323811547968 72.48515319444955
vertex 126.59999999999961 142.71403473544265 72.48515319444955
endloop
endfacet
facet normal -0.38268343236509006 0.9238795325112866 0.0
outer loop
vertex 128.52944763917944 143.51323811547968 72.48515319444955
vertex 126.59999999999961 142.71403473544265 76.48515319444955
vertex 128.52944763917944 143.51323811547968 76.48515319444955
endloop
endfacet
facet normal 0.99144486137381 0.13052619222005413 -2.4960871859783248e-15
outer loop
vertex 125.8499999999996 135.78583150516715 72.48515319444955
vertex 126.01185232512655 134.55644104093017 76.48515319444957
vertex 126.01185232512654 134.55644104093017 72.48515319444955
endloop
endfacet
facet normal 0.99144486137381 0.13052619222005413 -2.4960871859783248e-15
outer loop
vertex 126.01185232512655 134.55644104093017 76.48515319444957
vertex 125.8499999999996 135.78583150516715 72.48515319444955
vertex 125.8499999999996 135.78583150516715 76.48515319444955
endloop
endfacet
facet normal 0.382683432365082 -0.9238795325112901 0.0
outer loop
vertex 134.59999999999962 128.85762827489165 76.48515319444955
vertex 132.67055236081976 128.0584248948546 72.48515319444955
vertex 134.59999999999962 128.85762827489165 72.48515319444955
endloop
endfacet
facet normal 0.382683432365082 -0.9238795325112901 0.0
outer loop
vertex 132.67055236081976 128.0584248948546 72.48515319444955
vertex 134.59999999999962 128.85762827489165 76.48515319444955
vertex 132.67055236081976 128.0584248948546 76.48515319444955
endloop
endfacet
facet normal 0.9914448613738093 -0.13052619222005982 0.0
outer loop
vertex 138.59999999999962 135.78583150516715 72.48515319444955
vertex 138.32740661031212 133.715279144347 76.48515319444955
vertex 138.32740661031212 133.715279144347 72.48515319444955
endloop
endfacet
facet normal 0.9914448613738093 -0.13052619222005982 0.0
outer loop
vertex 138.32740661031212 133.715279144347 76.48515319444955
vertex 138.59999999999962 135.78583150516715 72.48515319444955
vertex 138.59999999999962 135.78583150516715 76.48515319444955
endloop
endfacet
facet normal 0.7933533402912318 -0.6087614290087251 0.0
outer loop
vertex 137.52820323027512 131.78583150516715 72.48515319444955
vertex 136.25685424949197 130.12897725567476 76.48515319444955
vertex 136.25685424949197 130.12897725567476 72.48515319444955
endloop
endfacet
facet normal 0.7933533402912318 -0.6087614290087251 0.0
outer loop
vertex 136.25685424949197 130.12897725567476 76.48515319444955
vertex 137.52820323027512 131.78583150516715 72.48515319444955
vertex 137.52820323027512 131.78583150516715 76.48515319444955
endloop
endfacet
facet normal -0.38268343236509117 -0.9238795325112862 0.0
outer loop
vertex 132.9749999999996 139.89945217314323 76.48515319444955
vertex 131.82939046423658 140.37397918004024 72.48515319444955
vertex 132.9749999999996 139.89945217314323 72.48515319444955
endloop
endfacet
facet normal -0.38268343236509117 -0.9238795325112862 0.0
outer loop
vertex 131.82939046423658 140.37397918004024 72.48515319444955
vertex 132.9749999999996 139.89945217314323 76.48515319444955
vertex 131.82939046423658 140.37397918004024 76.48515319444955
endloop
endfacet
facet normal -2.4424906541753444e-15 -1.0 -9.63466361745544e-16
outer loop
vertex 128.2249999999996 131.67221083719107 72.48515319444955
vertex 125.8499999999996 131.67221083719107 76.48515319444955
vertex 125.8499999999996 131.67221083719107 72.48515319444955
endloop
endfacet
facet normal -2.4424906541753444e-15 -1.0 -9.63466361745544e-16
outer loop
vertex 125.8499999999996 131.67221083719107 76.48515319444955
vertex 128.2249999999996 131.67221083719107 72.48515319444955
vertex 128.22499999999962 131.67221083719107 76.48515319444957
endloop
endfacet
facet normal 0.7933533402912368 0.6087614290087187 0.0
outer loop
vertex 136.256854249492 141.44268575465952 72.48515319444955
vertex 137.52820323027512 139.78583150516715 76.48515319444955
vertex 137.52820323027512 139.78583150516715 72.48515319444955
endloop
endfacet
facet normal 0.7933533402912368 0.6087614290087187 0.0
outer loop
vertex 137.52820323027512 139.78583150516715 76.48515319444955
vertex 136.256854249492 141.44268575465952 72.48515319444955
vertex 136.256854249492 141.44268575465952 76.48515319444955
endloop
endfacet
facet normal 0.9238795325112867 0.38268343236509017 -3.200508855944686e-15
outer loop
vertex 126.01185232512654 134.55644104093017 72.48515319444955
vertex 126.48637933202353 133.41083150516715 76.48515319444957
vertex 126.48637933202353 133.41083150516715 72.48515319444955
endloop
endfacet
facet normal 0.9238795325112867 0.38268343236509017 -3.200508855944686e-15
outer loop
vertex 126.48637933202353 133.41083150516715 76.48515319444957
vertex 126.01185232512654 134.55644104093017 72.48515319444955
vertex 126.01185232512655 134.55644104093017 76.48515319444957
endloop
endfacet
facet normal -7.049916206369744e-15 -1.0 -2.3428267381236413e-18
outer loop
vertex 130.5999999999996 127.78583150516715 72.48515319444955
vertex 125.84999999999954 127.78583150516718 76.48515319444955
vertex 125.84999999999954 127.78583150516718 72.48515319444955
endloop
endfacet
facet normal -7.049916206369744e-15 -1.0 -2.3428267381236413e-18
outer loop
vertex 125.84999999999954 127.78583150516718 76.48515319444955
vertex 130.5999999999996 127.78583150516715 72.48515319444955
vertex 130.5999999999996 127.78583150516715 76.48515319444955
endloop
endfacet
facet normal -0.13052619222005266 0.9914448613738103 0.0
outer loop
vertex 128.52944763917944 143.51323811547968 76.48515319444955
vertex 130.5999999999996 143.78583150516715 72.48515319444955
vertex 128.52944763917944 143.51323811547968 72.48515319444955
endloop
endfacet
facet normal -0.13052619222005266 0.9914448613738103 0.0
outer loop
vertex 130.5999999999996 143.78583150516715 72.48515319444955
vertex 128.52944763917944 143.51323811547968 76.48515319444955
vertex 130.5999999999996 143.78583150516715 76.48515319444955
endloop
endfacet
facet normal -0.3826834323650963 0.9238795325112841 0.0
outer loop
vertex 131.82939046423658 131.19768383029407 76.48515319444955
vertex 132.9749999999996 131.67221083719107 72.48515319444955
vertex 131.82939046423658 131.19768383029407 72.48515319444955
endloop
endfacet
facet normal -0.3826834323650963 0.9238795325112841 0.0
outer loop
vertex 132.9749999999996 131.67221083719107 72.48515319444955
vertex 131.82939046423658 131.19768383029407 76.48515319444955
vertex 132.9749999999996 131.67221083719107 76.48515319444955
endloop
endfacet
facet normal -0.13052619222004946 0.9914448613738108 0.0
outer loop
vertex 130.5999999999996 131.03583150516715 76.48515319444955
vertex 131.82939046423658 131.19768383029407 72.48515319444955
vertex 130.5999999999996 131.03583150516715 72.48515319444955
endloop
endfacet
facet normal -0.13052619222004946 0.9914448613738108 0.0
outer loop
vertex 131.82939046423658 131.19768383029407 72.48515319444955
vertex 130.5999999999996 131.03583150516715 76.48515319444955
vertex 131.82939046423658 131.19768383029407 76.48515319444955
endloop
endfacet
facet normal -0.7933533402912321 0.6087614290087248 0.0
outer loop
vertex 124.94314575050723 141.44268575465952 76.48515319444955
vertex 123.6717967697241 139.78583150516715 72.48515319444955
vertex 123.6717967697241 139.78583150516715 76.48515319444955
endloop
endfacet
facet normal -0.7933533402912321 0.6087614290087248 0.0
outer loop
vertex 123.6717967697241 139.78583150516715 72.48515319444955
vertex 124.94314575050723 141.44268575465952 76.48515319444955
vertex 124.94314575050723 141.44268575465952 72.48515319444955
endloop
endfacet
facet normal -0.6087614290087197 0.793353340291236 0.0
outer loop
vertex 124.94314575050723 141.44268575465952 76.48515319444955
vertex 126.59999999999961 142.71403473544265 72.48515319444955
vertex 124.94314575050723 141.44268575465952 72.48515319444955
endloop
endfacet
facet normal -0.6087614290087197 0.793353340291236 0.0
outer loop
vertex 126.59999999999961 142.71403473544265 72.48515319444955
vertex 124.94314575050723 141.44268575465952 76.48515319444955
vertex 126.59999999999961 142.71403473544265 76.48515319444955
endloop
endfacet
facet normal 1.6508062596666675e-16 1.1623685473449325e-16 1.0
outer loop
vertex 125.8499999999996 131.67221083719107 76.48515319444955
vertex 126.01185232512655 134.55644104093017 76.48515319444957
vertex 125.8499999999996 135.78583150516715 76.48515319444955
endloop
endfacet
facet normal 1.6508062596666675e-16 1.1623685473449325e-16 1.0
outer loop
vertex 126.01185232512655 134.55644104093017 76.48515319444957
vertex 125.8499999999996 131.67221083719107 76.48515319444955
vertex 126.48637933202353 133.41083150516715 76.48515319444957
endloop
endfacet
facet normal 1.6508062596666675e-16 1.1623685473449325e-16 1.0
outer loop
vertex 126.48637933202353 133.41083150516715 76.48515319444957
vertex 125.8499999999996 131.67221083719107 76.48515319444955
vertex 127.24124278936353 132.42707429453105 76.48515319444957
endloop
endfacet
facet normal 1.6508062596666675e-16 1.1623685473449325e-16 1.0
outer loop
vertex 127.24124278936353 132.42707429453105 76.48515319444957
vertex 125.8499999999996 131.67221083719107 76.48515319444955
vertex 128.22499999999962 131.67221083719107 76.48515319444957
endloop
endfacet
facet normal 1.6508062596666675e-16 1.1623685473449325e-16 1.0
outer loop
vertex 130.5999999999996 127.78583150516715 76.48515319444955
vertex 125.84999999999954 128.78583150516718 76.48515319444955
vertex 125.84999999999954 127.78583150516718 76.48515319444955
endloop
endfacet
facet normal 1.6508062596666675e-16 1.1623685473449325e-16 1.0
outer loop
vertex 125.84999999999954 128.78583150516718 76.48515319444955
vertex 130.5999999999996 127.78583150516715 76.48515319444955
vertex 130.5999999999996 128.78583150516715 76.48515319444955
endloop
endfacet
facet normal 1.6508062596666675e-16 1.1623685473449325e-16 1.0
outer loop
vertex 130.5999999999996 128.78583150516715 76.48515319444955
vertex 130.5999999999996 127.78583150516715 76.48515319444955
vertex 132.67055236081976 128.0584248948546 76.48515319444955
endloop
endfacet
facet normal 1.6508062596666675e-16 1.1623685473449325e-16 1.0
outer loop
vertex 130.5999999999996 128.78583150516715 76.48515319444955
vertex 132.67055236081976 128.0584248948546 76.48515319444955
vertex 131.82939046423658 131.19768383029407 76.48515319444955
endloop
endfacet
facet normal 1.6508062596666675e-16 1.1623685473449325e-16 1.0
outer loop
vertex 131.82939046423658 131.19768383029407 76.48515319444955
vertex 132.67055236081976 128.0584248948546 76.48515319444955
vertex 132.9749999999996 131.67221083719107 76.48515319444955
endloop
endfacet
facet normal 1.6508062596666675e-16 1.1623685473449325e-16 1.0
outer loop
vertex 132.9749999999996 131.67221083719107 76.48515319444955
vertex 132.67055236081976 128.0584248948546 76.48515319444955
vertex 134.59999999999962 128.85762827489165 76.48515319444955
endloop
endfacet
facet normal 1.6508062596666675e-16 1.1623685473449325e-16 1.0
outer loop
vertex 132.9749999999996 131.67221083719107 76.48515319444955
vertex 134.59999999999962 128.85762827489165 76.48515319444955
vertex 133.9587572106357 132.42707429453105 76.48515319444955
endloop
endfacet
facet normal 1.6508062596666675e-16 1.1623685473449325e-16 1.0
outer loop
vertex 133.9587572106357 132.42707429453105 76.48515319444955
vertex 134.59999999999962 128.85762827489165 76.48515319444955
vertex 134.7136206679757 133.41083150516715 76.48515319444955
endloop
endfacet
facet normal 1.6508062596666675e-16 1.1623685473449325e-16 1.0
outer loop
vertex 134.7136206679757 133.41083150516715 76.48515319444955
vertex 134.59999999999962 128.85762827489165 76.48515319444955
vertex 136.25685424949197 130.12897725567476 76.48515319444955
endloop
endfacet
facet normal 1.6508062596666675e-16 1.1623685473449325e-16 1.0
outer loop
vertex 134.7136206679757 133.41083150516715 76.48515319444955
vertex 136.25685424949197 130.12897725567476 76.48515319444955
vertex 135.18814767487268 134.55644104093017 76.48515319444955
endloop
endfacet
facet normal 1.6508062596666675e-16 1.1623685473449325e-16 1.0
outer loop
vertex 135.18814767487268 134.55644104093017 76.48515319444955
vertex 136.25685424949197 130.12897725567476 76.48515319444955
vertex 135.3499999999996 135.78583150516715 76.48515319444955
endloop
endfacet
facet normal 1.6508062596666675e-16 1.1623685473449325e-16 1.0
outer loop
vertex 125.8499999999996 131.03583150516715 76.48515319444955
vertex 122.5999999999996 135.78583150516715 76.48515319444955
vertex 122.5999999999996 131.03583150516718 76.48515319444955
endloop
endfacet
facet normal 1.6508062596666675e-16 1.1623685473449325e-16 1.0
outer loop
vertex 122.5999999999996 135.78583150516715 76.48515319444955
vertex 125.8499999999996 131.03583150516715 76.48515319444955
vertex 122.87259338968707 137.8563838659873 76.48515319444955
endloop
endfacet
facet normal 1.6508062596666675e-16 1.1623685473449325e-16 1.0
outer loop
vertex 122.87259338968707 137.8563838659873 76.48515319444955
vertex 125.8499999999996 131.03583150516715 76.48515319444955
vertex 123.6717967697241 139.78583150516715 76.48515319444955
endloop
endfacet
facet normal 1.6508062596666675e-16 1.1623685473449325e-16 1.0
outer loop
vertex 123.6717967697241 139.78583150516715 76.48515319444955
vertex 125.8499999999996 131.03583150516715 76.48515319444955
vertex 124.94314575050723 141.44268575465952 76.48515319444955
endloop
endfacet
facet normal 1.6508062596666675e-16 1.1623685473449325e-16 1.0
outer loop
vertex 124.94314575050723 141.44268575465952 76.48515319444955
vertex 125.8499999999996 131.03583150516715 76.48515319444955
vertex 125.8499999999996 135.78583150516715 76.48515319444955
endloop
endfacet
facet normal 1.6508062596666675e-16 1.1623685473449325e-16 1.0
outer loop
vertex 124.94314575050723 141.44268575465952 76.48515319444955
vertex 125.8499999999996 135.78583150516715 76.48515319444955
vertex 126.59999999999961 142.71403473544265 76.48515319444955
endloop
endfacet
facet normal 1.6508062596666675e-16 1.1623685473449325e-16 1.0
outer loop
vertex 125.8499999999996 135.78583150516715 76.48515319444955
vertex 125.8499999999996 131.03583150516715 76.48515319444955
vertex 125.8499999999996 131.67221083719107 76.48515319444955
endloop
endfacet
facet normal 1.6508062596666675e-16 1.1623685473449325e-16 1.0
outer loop
vertex 126.59999999999961 142.71403473544265 76.48515319444955
vertex 125.8499999999996 135.78583150516715 76.48515319444955
vertex 126.01185232512651 137.01522196940414 76.48515319444955
endloop
endfacet
facet normal 1.6508062596666675e-16 1.1623685473449325e-16 1.0
outer loop
vertex 126.59999999999961 142.71403473544265 76.48515319444955
vertex 126.01185232512651 137.01522196940414 76.48515319444955
vertex 126.48637933202353 138.16083150516715 76.48515319444955
endloop
endfacet
facet normal 1.6508062596666675e-16 1.1623685473449325e-16 1.0
outer loop
vertex 126.59999999999961 142.71403473544265 76.48515319444955
vertex 126.48637933202353 138.16083150516715 76.48515319444955
vertex 127.24124278936351 139.14458871580325 76.48515319444955
endloop
endfacet
facet normal 1.6508062596666675e-16 1.1623685473449325e-16 1.0
outer loop
vertex 126.59999999999961 142.71403473544265 76.48515319444955
vertex 127.24124278936351 139.14458871580325 76.48515319444955
vertex 128.52944763917944 143.51323811547968 76.48515319444955
endloop
endfacet
facet normal 1.6508062596666675e-16 1.1623685473449325e-16 1.0
outer loop
vertex 128.52944763917944 143.51323811547968 76.48515319444955
vertex 127.24124278936351 139.14458871580325 76.48515319444955
vertex 128.2249999999996 139.89945217314323 76.48515319444955
endloop
endfacet
facet normal 1.6508062596666675e-16 1.1623685473449325e-16 1.0
outer loop
vertex 128.52944763917944 143.51323811547968 76.48515319444955
vertex 128.2249999999996 139.89945217314323 76.48515319444955
vertex 129.37060953576264 140.37397918004024 76.48515319444955
endloop
endfacet
facet normal 1.6508062596666675e-16 1.1623685473449325e-16 1.0
outer loop
vertex 128.52944763917944 143.51323811547968 76.48515319444955
vertex 129.37060953576264 140.37397918004024 76.48515319444955
vertex 130.5999999999996 143.78583150516715 76.48515319444955
endloop
endfacet
facet normal 1.6508062596666675e-16 1.1623685473449325e-16 1.0
outer loop
vertex 130.5999999999996 143.78583150516715 76.48515319444955
vertex 129.37060953576264 140.37397918004024 76.48515319444955
vertex 130.5999999999996 140.53583150516715 76.48515319444955
endloop
endfacet
facet normal 1.6508062596666675e-16 1.1623685473449325e-16 1.0
outer loop
vertex 130.5999999999996 143.78583150516715 76.48515319444955
vertex 130.5999999999996 140.53583150516715 76.48515319444955
vertex 132.67055236081978 143.51323811547968 76.48515319444955
endloop
endfacet
facet normal 1.6508062596666675e-16 1.1623685473449325e-16 1.0
outer loop
vertex 132.67055236081978 143.51323811547968 76.48515319444955
vertex 130.5999999999996 140.53583150516715 76.48515319444955
vertex 131.82939046423658 140.37397918004024 76.48515319444955
endloop
endfacet
facet normal 1.6508062596666675e-16 1.1623685473449325e-16 1.0
outer loop
vertex 132.67055236081978 143.51323811547968 76.48515319444955
vertex 131.82939046423658 140.37397918004024 76.48515319444955
vertex 132.9749999999996 139.89945217314323 76.48515319444955
endloop
endfacet
facet normal 1.6508062596666675e-16 1.1623685473449325e-16 1.0
outer loop
vertex 132.67055236081978 143.51323811547968 76.48515319444955
vertex 132.9749999999996 139.89945217314323 76.48515319444955
vertex 134.59999999999962 142.71403473544265 76.48515319444955
endloop
endfacet
facet normal 1.6508062596666675e-16 1.1623685473449325e-16 1.0
outer loop
vertex 134.59999999999962 142.71403473544265 76.48515319444955
vertex 132.9749999999996 139.89945217314323 76.48515319444955
vertex 133.95875721063572 139.14458871580325 76.48515319444955
endloop
endfacet
facet normal 1.6508062596666675e-16 1.1623685473449325e-16 1.0
outer loop
vertex 134.59999999999962 142.71403473544265 76.48515319444955
vertex 133.95875721063572 139.14458871580325 76.48515319444955
vertex 134.7136206679757 138.16083150516715 76.48515319444955
endloop
endfacet
facet normal 1.6508062596666675e-16 1.1623685473449325e-16 1.0
outer loop
vertex 134.59999999999962 142.71403473544265 76.48515319444955
vertex 134.7136206679757 138.16083150516715 76.48515319444955
vertex 136.256854249492 141.44268575465952 76.48515319444955
endloop
endfacet
facet normal 1.6508062596666675e-16 1.1623685473449325e-16 1.0
outer loop
vertex 136.256854249492 141.44268575465952 76.48515319444955
vertex 134.7136206679757 138.16083150516715 76.48515319444955
vertex 135.18814767487268 137.01522196940414 76.48515319444955
endloop
endfacet
facet normal 1.6508062596666675e-16 1.1623685473449325e-16 1.0
outer loop
vertex 136.256854249492 141.44268575465952 76.48515319444955
vertex 135.18814767487268 137.01522196940414 76.48515319444955
vertex 135.3499999999996 135.78583150516715 76.48515319444955
endloop
endfacet
facet normal 1.6508062596666675e-16 1.1623685473449325e-16 1.0
outer loop
vertex 136.256854249492 141.44268575465952 76.48515319444955
vertex 135.3499999999996 135.78583150516715 76.48515319444955
vertex 136.25685424949197 130.12897725567476 76.48515319444955
endloop
endfacet
facet normal 1.6508062596666675e-16 1.1623685473449325e-16 1.0
outer loop
vertex 136.256854249492 141.44268575465952 76.48515319444955
vertex 136.25685424949197 130.12897725567476 76.48515319444955
vertex 137.52820323027512 131.78583150516715 76.48515319444955
endloop
endfacet
facet normal 1.6508062596666675e-16 1.1623685473449325e-16 1.0
outer loop
vertex 136.256854249492 141.44268575465952 76.48515319444955
vertex 137.52820323027512 131.78583150516715 76.48515319444955
vertex 137.52820323027512 139.78583150516715 76.48515319444955
endloop
endfacet
facet normal 1.6508062596666675e-16 1.1623685473449325e-16 1.0
outer loop
vertex 137.52820323027512 139.78583150516715 76.48515319444955
vertex 137.52820323027512 131.78583150516715 76.48515319444955
vertex 138.32740661031215 137.8563838659873 76.48515319444955
endloop
endfacet
facet normal 1.6508062596666675e-16 1.1623685473449325e-16 1.0
outer loop
vertex 138.32740661031215 137.8563838659873 76.48515319444955
vertex 137.52820323027512 131.78583150516715 76.48515319444955
vertex 138.32740661031212 133.715279144347 76.48515319444955
endloop
endfacet
facet normal 1.6508062596666675e-16 1.1623685473449325e-16 1.0
outer loop
vertex 138.32740661031215 137.8563838659873 76.48515319444955
vertex 138.32740661031212 133.715279144347 76.48515319444955
vertex 138.59999999999962 135.78583150516715 76.48515319444955
endloop
endfacet
facet normal 1.6508062596666675e-16 1.1623685473449325e-16 1.0
outer loop
vertex 131.82939046423658 131.19768383029407 76.48515319444955
vertex 130.5999999999996 131.03583150516715 76.48515319444955
vertex 130.5999999999996 128.78583150516715 76.48515319444955
endloop
endfacet
facet normal -1.0 3.3306690738754686e-16 -4.371774210004673e-17
outer loop
vertex 125.84999999999954 128.78583150516718 76.48515319444955
vertex 125.84999999999954 127.78583150516718 72.48515319444955
vertex 125.84999999999954 127.78583150516718 76.48515319444955
endloop
endfacet
facet normal -1.0 3.3306690738754686e-16 -4.371774210004673e-17
outer loop
vertex 125.84999999999954 127.78583150516718 72.48515319444955
vertex 125.84999999999954 128.78583150516718 76.48515319444955
vertex 125.84999999999954 128.78583150516718 72.48515319444955
endloop
endfacet
facet normal 0.38268343236509045 0.9238795325112866 0.0
outer loop
vertex 132.67055236081978 143.51323811547968 76.48515319444955
vertex 134.59999999999962 142.71403473544265 72.48515319444955
vertex 132.67055236081978 143.51323811547968 72.48515319444955
endloop
endfacet
facet normal 0.38268343236509045 0.9238795325112866 0.0
outer loop
vertex 134.59999999999962 142.71403473544265 72.48515319444955
vertex 132.67055236081978 143.51323811547968 76.48515319444955
vertex 134.59999999999962 142.71403473544265 76.48515319444955
endloop
endfacet
facet normal 0.13052619222004908 -0.9914448613738107 0.0
outer loop
vertex 130.5999999999996 140.53583150516715 76.48515319444955
vertex 129.37060953576264 140.37397918004024 72.48515319444955
vertex 130.5999999999996 140.53583150516715 72.48515319444955
endloop
endfacet
facet normal 0.13052619222004908 -0.9914448613738107 0.0
outer loop
vertex 129.37060953576264 140.37397918004024 72.48515319444955
vertex 130.5999999999996 140.53583150516715 76.48515319444955
vertex 129.37060953576264 140.37397918004024 76.48515319444955
endloop
endfacet
facet normal 0.6087614290087195 0.793353340291236 -1.339059560790253e-15
outer loop
vertex 127.24124278936353 132.42707429453105 76.48515319444957
vertex 128.2249999999996 131.67221083719107 72.48515319444955
vertex 127.24124278936351 132.42707429453105 72.48515319444955
endloop
endfacet
facet normal 0.6087614290087195 0.793353340291236 -1.339059560790253e-15
outer loop
vertex 128.2249999999996 131.67221083719107 72.48515319444955
vertex 127.24124278936353 132.42707429453105 76.48515319444957
vertex 128.22499999999962 131.67221083719107 76.48515319444957
endloop
endfacet
facet normal 7.16093850883226e-15 1.0 7.806417724759787e-17
outer loop
vertex 125.84999999999954 128.78583150516718 76.48515319444955
vertex 130.5999999999996 128.78583150516715 72.48515319444955
vertex 125.84999999999954 128.78583150516718 72.48515319444955
endloop
endfacet
facet normal 7.16093850883226e-15 1.0 7.806417724759787e-17
outer loop
vertex 130.5999999999996 128.78583150516715 72.48515319444955
vertex 125.84999999999954 128.78583150516718 76.48515319444955
vertex 130.5999999999996 128.78583150516715 76.48515319444955
endloop
endfacet
facet normal -1.0 3.0531133177191805e-15 0.0
outer loop
vertex 122.5999999999996 135.78583150516715 76.48515319444955
vertex 122.5999999999996 131.03583150516718 72.48515319444955
vertex 122.5999999999996 131.03583150516718 76.48515319444955
endloop
endfacet
facet normal -1.0 3.0531133177191805e-15 0.0
outer loop
vertex 122.5999999999996 131.03583150516718 72.48515319444955
vertex 122.5999999999996 135.78583150516715 76.48515319444955
vertex 122.5999999999996 135.78583150516715 72.48515319444955
endloop
endfacet
facet normal -0.9238795325112859 -0.3826834323650924 0.0
outer loop
vertex 134.7136206679757 138.16083150516715 76.48515319444955
vertex 135.18814767487268 137.01522196940414 72.48515319444955
vertex 135.18814767487268 137.01522196940414 76.48515319444955
endloop
endfacet
facet normal -0.9238795325112859 -0.3826834323650924 0.0
outer loop
vertex 135.18814767487268 137.01522196940414 72.48515319444955
vertex 134.7136206679757 138.16083150516715 76.48515319444955
vertex 134.7136206679757 138.16083150516715 72.48515319444955
endloop
endfacet
facet normal -0.7933533402912362 0.6087614290087192 0.0
outer loop
vertex 134.7136206679757 133.41083150516715 76.48515319444955
vertex 133.9587572106357 132.42707429453105 72.48515319444955
vertex 133.9587572106357 132.42707429453105 76.48515319444955
endloop
endfacet
facet normal -0.7933533402912362 0.6087614290087192 0.0
outer loop
vertex 133.9587572106357 132.42707429453105 72.48515319444955
vertex 134.7136206679757 133.41083150516715 76.48515319444955
vertex 134.7136206679757 133.41083150516715 72.48515319444955
endloop
endfacet
facet normal -3.2114070083576386e-17 -2.1200869215331365e-17 -1.0
outer loop
vertex 122.5999999999996 135.78583150516715 72.48515319444955
vertex 125.8499999999996 131.03583150516715 72.48515319444955
vertex 122.5999999999996 131.03583150516718 72.48515319444955
endloop
endfacet
facet normal -3.2114070083576386e-17 -2.1200869215331365e-17 -1.0
outer loop
vertex 125.8499999999996 131.03583150516715 72.48515319444955
vertex 122.5999999999996 135.78583150516715 72.48515319444955
vertex 122.87259338968707 137.8563838659873 72.48515319444955
endloop
endfacet
facet normal -3.2114070083576386e-17 -2.1200869215331365e-17 -1.0
outer loop
vertex 125.8499999999996 131.03583150516715 72.48515319444955
vertex 122.87259338968707 137.8563838659873 72.48515319444955
vertex 123.6717967697241 139.78583150516715 72.48515319444955
endloop
endfacet
facet normal -3.2114070083576386e-17 -2.1200869215331365e-17 -1.0
outer loop
vertex 125.8499999999996 131.03583150516715 72.48515319444955
vertex 123.6717967697241 139.78583150516715 72.48515319444955
vertex 124.94314575050723 141.44268575465952 72.48515319444955
endloop
endfacet
facet normal -3.2114070083576386e-17 -2.1200869215331365e-17 -1.0
outer loop
vertex 125.8499999999996 131.03583150516715 72.48515319444955
vertex 124.94314575050723 141.44268575465952 72.48515319444955
vertex 125.8499999999996 131.67221083719107 72.48515319444955
endloop
endfacet
facet normal -3.2114070083576386e-17 -2.1200869215331365e-17 -1.0
outer loop
vertex 124.94314575050723 141.44268575465952 72.48515319444955
vertex 125.8499999999996 135.78583150516715 72.48515319444955
vertex 125.8499999999996 131.67221083719107 72.48515319444955
endloop
endfacet
facet normal -3.2114070083576386e-17 -2.1200869215331365e-17 -1.0
outer loop
vertex 125.8499999999996 135.78583150516715 72.48515319444955
vertex 124.94314575050723 141.44268575465952 72.48515319444955
vertex 126.59999999999961 142.71403473544265 72.48515319444955
endloop
endfacet
facet normal -3.2114070083576386e-17 -2.1200869215331365e-17 -1.0
outer loop
vertex 125.8499999999996 135.78583150516715 72.48515319444955
vertex 126.59999999999961 142.71403473544265 72.48515319444955
vertex 126.01185232512651 137.01522196940414 72.48515319444955
endloop
endfacet
facet normal -3.2114070083576386e-17 -2.1200869215331365e-17 -1.0
outer loop
vertex 126.01185232512651 137.01522196940414 72.48515319444955
vertex 126.59999999999961 142.71403473544265 72.48515319444955
vertex 126.48637933202353 138.16083150516715 72.48515319444955
endloop
endfacet
facet normal -3.2114070083576386e-17 -2.1200869215331365e-17 -1.0
outer loop
vertex 126.48637933202353 138.16083150516715 72.48515319444955
vertex 126.59999999999961 142.71403473544265 72.48515319444955
vertex 127.24124278936351 139.14458871580325 72.48515319444955
endloop
endfacet
facet normal -3.2114070083576386e-17 -2.1200869215331365e-17 -1.0
outer loop
vertex 127.24124278936351 139.14458871580325 72.48515319444955
vertex 126.59999999999961 142.71403473544265 72.48515319444955
vertex 128.52944763917944 143.51323811547968 72.48515319444955
endloop
endfacet
facet normal -3.2114070083576386e-17 -2.1200869215331365e-17 -1.0
outer loop
vertex 127.24124278936351 139.14458871580325 72.48515319444955
vertex 128.52944763917944 143.51323811547968 72.48515319444955
vertex 128.2249999999996 139.89945217314323 72.48515319444955
endloop
endfacet
facet normal -3.2114070083576386e-17 -2.1200869215331365e-17 -1.0
outer loop
vertex 128.2249999999996 139.89945217314323 72.48515319444955
vertex 128.52944763917944 143.51323811547968 72.48515319444955
vertex 129.37060953576264 140.37397918004024 72.48515319444955
endloop
endfacet
facet normal -3.2114070083576386e-17 -2.1200869215331365e-17 -1.0
outer loop
vertex 129.37060953576264 140.37397918004024 72.48515319444955
vertex 128.52944763917944 143.51323811547968 72.48515319444955
vertex 130.5999999999996 143.78583150516715 72.48515319444955
endloop
endfacet
facet normal -3.2114070083576386e-17 -2.1200869215331365e-17 -1.0
outer loop
vertex 129.37060953576264 140.37397918004024 72.48515319444955
vertex 130.5999999999996 143.78583150516715 72.48515319444955
vertex 130.5999999999996 140.53583150516715 72.48515319444955
endloop
endfacet
facet normal -3.2114070083576386e-17 -2.1200869215331365e-17 -1.0
outer loop
vertex 130.5999999999996 140.53583150516715 72.48515319444955
vertex 130.5999999999996 143.78583150516715 72.48515319444955
vertex 132.67055236081978 143.51323811547968 72.48515319444955
endloop
endfacet
facet normal -3.2114070083576386e-17 -2.1200869215331365e-17 -1.0
outer loop
vertex 130.5999999999996 140.53583150516715 72.48515319444955
vertex 132.67055236081978 143.51323811547968 72.48515319444955
vertex 131.82939046423658 140.37397918004024 72.48515319444955
endloop
endfacet
facet normal -3.2114070083576386e-17 -2.1200869215331365e-17 -1.0
outer loop
vertex 131.82939046423658 140.37397918004024 72.48515319444955
vertex 132.67055236081978 143.51323811547968 72.48515319444955
vertex 132.9749999999996 139.89945217314323 72.48515319444955
endloop
endfacet
facet normal -3.2114070083576386e-17 -2.1200869215331365e-17 -1.0
outer loop
vertex 132.9749999999996 139.89945217314323 72.48515319444955
vertex 132.67055236081978 143.51323811547968 72.48515319444955
vertex 134.59999999999962 142.71403473544265 72.48515319444955
endloop
endfacet
facet normal -3.2114070083576386e-17 -2.1200869215331365e-17 -1.0
outer loop
vertex 132.9749999999996 139.89945217314323 72.48515319444955
vertex 134.59999999999962 142.71403473544265 72.48515319444955
vertex 133.95875721063572 139.14458871580325 72.48515319444955
endloop
endfacet
facet normal -3.2114070083576386e-17 -2.1200869215331365e-17 -1.0
outer loop
vertex 133.95875721063572 139.14458871580325 72.48515319444955
vertex 134.59999999999962 142.71403473544265 72.48515319444955
vertex 134.7136206679757 138.16083150516715 72.48515319444955
endloop
endfacet
facet normal -3.2114070083576386e-17 -2.1200869215331365e-17 -1.0
outer loop
vertex 134.7136206679757 138.16083150516715 72.48515319444955
vertex 134.59999999999962 142.71403473544265 72.48515319444955
vertex 136.256854249492 141.44268575465952 72.48515319444955
endloop
endfacet
facet normal -3.2114070083576386e-17 -2.1200869215331365e-17 -1.0
outer loop
vertex 134.7136206679757 138.16083150516715 72.48515319444955
vertex 136.256854249492 141.44268575465952 72.48515319444955
vertex 135.18814767487268 137.01522196940414 72.48515319444955
endloop
endfacet
facet normal -3.2114070083576386e-17 -2.1200869215331365e-17 -1.0
outer loop
vertex 135.18814767487268 137.01522196940414 72.48515319444955
vertex 136.256854249492 141.44268575465952 72.48515319444955
vertex 135.3499999999996 135.78583150516715 72.48515319444955
endloop
endfacet
facet normal -3.2114070083576386e-17 -2.1200869215331365e-17 -1.0
outer loop
vertex 135.3499999999996 135.78583150516715 72.48515319444955
vertex 136.256854249492 141.44268575465952 72.48515319444955
vertex 136.25685424949197 130.12897725567476 72.48515319444955
endloop
endfacet
facet normal -3.2114070083576386e-17 -2.1200869215331365e-17 -1.0
outer loop
vertex 136.25685424949197 130.12897725567476 72.48515319444955
vertex 136.256854249492 141.44268575465952 72.48515319444955
vertex 137.52820323027512 131.78583150516715 72.48515319444955
endloop
endfacet
facet normal -3.2114070083576386e-17 -2.1200869215331365e-17 -1.0
outer loop
vertex 137.52820323027512 131.78583150516715 72.48515319444955
vertex 136.256854249492 141.44268575465952 72.48515319444955
vertex 137.52820323027512 139.78583150516715 72.48515319444955
endloop
endfacet
facet normal -3.2114070083576386e-17 -2.1200869215331365e-17 -1.0
outer loop
vertex 137.52820323027512 131.78583150516715 72.48515319444955
vertex 137.52820323027512 139.78583150516715 72.48515319444955
vertex 138.32740661031215 137.8563838659873 72.48515319444955
endloop
endfacet
facet normal -3.2114070083576386e-17 -2.1200869215331365e-17 -1.0
outer loop
vertex 137.52820323027512 131.78583150516715 72.48515319444955
vertex 138.32740661031215 137.8563838659873 72.48515319444955
vertex 138.32740661031212 133.715279144347 72.48515319444955
endloop
endfacet
facet normal -3.2114070083576386e-17 -2.1200869215331365e-17 -1.0
outer loop
vertex 138.32740661031212 133.715279144347 72.48515319444955
vertex 138.32740661031215 137.8563838659873 72.48515319444955
vertex 138.59999999999962 135.78583150516715 72.48515319444955
endloop
endfacet
facet normal -3.2114070083576386e-17 -2.1200869215331365e-17 -1.0
outer loop
vertex 131.82939046423658 131.19768383029407 72.48515319444955
vertex 130.5999999999996 128.78583150516715 72.48515319444955
vertex 130.5999999999996 131.03583150516715 72.48515319444955
endloop
endfacet
facet normal -3.2114070083576386e-17 -2.1200869215331365e-17 -1.0
outer loop
vertex 130.5999999999996 128.78583150516715 72.48515319444955
vertex 131.82939046423658 131.19768383029407 72.48515319444955
vertex 130.5999999999996 127.78583150516715 72.48515319444955
endloop
endfacet
facet normal -3.2114070083576386e-17 -2.1200869215331365e-17 -1.0
outer loop
vertex 130.5999999999996 127.78583150516715 72.48515319444955
vertex 131.82939046423658 131.19768383029407 72.48515319444955
vertex 132.67055236081976 128.0584248948546 72.48515319444955
endloop
endfacet
facet normal -3.2114070083576386e-17 -2.1200869215331365e-17 -1.0
outer loop
vertex 132.67055236081976 128.0584248948546 72.48515319444955
vertex 131.82939046423658 131.19768383029407 72.48515319444955
vertex 132.9749999999996 131.67221083719107 72.48515319444955
endloop
endfacet
facet normal -3.2114070083576386e-17 -2.1200869215331365e-17 -1.0
outer loop
vertex 132.67055236081976 128.0584248948546 72.48515319444955
vertex 132.9749999999996 131.67221083719107 72.48515319444955
vertex 134.59999999999962 128.85762827489165 72.48515319444955
endloop
endfacet
facet normal -3.2114070083576386e-17 -2.1200869215331365e-17 -1.0
outer loop
vertex 134.59999999999962 128.85762827489165 72.48515319444955
vertex 132.9749999999996 131.67221083719107 72.48515319444955
vertex 133.9587572106357 132.42707429453105 72.48515319444955
endloop
endfacet
facet normal -3.2114070083576386e-17 -2.1200869215331365e-17 -1.0
outer loop
vertex 134.59999999999962 128.85762827489165 72.48515319444955
vertex 133.9587572106357 132.42707429453105 72.48515319444955
vertex 134.7136206679757 133.41083150516715 72.48515319444955
endloop
endfacet
facet normal -3.2114070083576386e-17 -2.1200869215331365e-17 -1.0
outer loop
vertex 134.59999999999962 128.85762827489165 72.48515319444955
vertex 134.7136206679757 133.41083150516715 72.48515319444955
vertex 136.25685424949197 130.12897725567476 72.48515319444955
endloop
endfacet
facet normal -3.2114070083576386e-17 -2.1200869215331365e-17 -1.0
outer loop
vertex 136.25685424949197 130.12897725567476 72.48515319444955
vertex 134.7136206679757 133.41083150516715 72.48515319444955
vertex 135.18814767487268 134.55644104093017 72.48515319444955
endloop
endfacet
facet normal -3.2114070083576386e-17 -2.1200869215331365e-17 -1.0
outer loop
vertex 136.25685424949197 130.12897725567476 72.48515319444955
vertex 135.18814767487268 134.55644104093017 72.48515319444955
vertex 135.3499999999996 135.78583150516715 72.48515319444955
endloop
endfacet
facet normal -3.2114070083576386e-17 -2.1200869215331365e-17 -1.0
outer loop
vertex 130.5999999999996 128.78583150516715 72.48515319444955
vertex 125.84999999999954 127.78583150516718 72.48515319444955
vertex 125.84999999999954 128.78583150516718 72.48515319444955
endloop
endfacet
facet normal -3.2114070083576386e-17 -2.1200869215331365e-17 -1.0
outer loop
vertex 125.84999999999954 127.78583150516718 72.48515319444955
vertex 130.5999999999996 128.78583150516715 72.48515319444955
vertex 130.5999999999996 127.78583150516715 72.48515319444955
endloop
endfacet
facet normal -3.2114070083576386e-17 -2.1200869215331365e-17 -1.0
outer loop
vertex 125.8499999999996 131.67221083719107 72.48515319444955
vertex 127.24124278936351 132.42707429453105 72.48515319444955
vertex 128.2249999999996 131.67221083719107 72.48515319444955
endloop
endfacet
facet normal -3.2114070083576386e-17 -2.1200869215331365e-17 -1.0
outer loop
vertex 127.24124278936351 132.42707429453105 72.48515319444955
vertex 125.8499999999996 131.67221083719107 72.48515319444955
vertex 126.48637933202353 133.41083150516715 72.48515319444955
endloop
endfacet
facet normal -3.2114070083576386e-17 -2.1200869215331365e-17 -1.0
outer loop
vertex 126.48637933202353 133.41083150516715 72.48515319444955
vertex 125.8499999999996 131.67221083719107 72.48515319444955
vertex 126.01185232512654 134.55644104093017 72.48515319444955
endloop
endfacet
facet normal -3.2114070083576386e-17 -2.1200869215331365e-17 -1.0
outer loop
vertex 126.01185232512654 134.55644104093017 72.48515319444955
vertex 125.8499999999996 131.67221083719107 72.48515319444955
vertex 125.8499999999996 135.78583150516715 72.48515319444955
endloop
endfacet
facet normal 0.13052619222005488 -0.9914448613738102 0.0
outer loop
vertex 132.67055236081976 128.0584248948546 76.48515319444955
vertex 130.5999999999996 127.78583150516715 72.48515319444955
vertex 132.67055236081976 128.0584248948546 72.48515319444955
endloop
endfacet
facet normal 0.13052619222005488 -0.9914448613738102 0.0
outer loop
vertex 130.5999999999996 127.78583150516715 72.48515319444955
vertex 132.67055236081976 128.0584248948546 76.48515319444955
vertex 130.5999999999996 127.78583150516715 76.48515319444955
endloop
endfacet
facet normal 0.923879532511283 -0.38268343236509905 0.0
outer loop
vertex 126.48637933202353 138.16083150516715 72.48515319444955
vertex 126.01185232512651 137.01522196940414 76.48515319444955
vertex 126.01185232512651 137.01522196940414 72.48515319444955
endloop
endfacet
facet normal 0.923879532511283 -0.38268343236509905 0.0
outer loop
vertex 126.01185232512651 137.01522196940414 76.48515319444955
vertex 126.48637933202353 138.16083150516715 72.48515319444955
vertex 126.48637933202353 138.16083150516715 76.48515319444955
endloop
endfacet
facet normal -0.9914448613738114 -0.13052619222004436 0.0
outer loop
vertex 135.18814767487268 137.01522196940414 76.48515319444955
vertex 135.3499999999996 135.78583150516715 72.48515319444955
vertex 135.3499999999996 135.78583150516715 76.48515319444955
endloop
endfacet
facet normal -0.9914448613738114 -0.13052619222004436 0.0
outer loop
vertex 135.3499999999996 135.78583150516715 72.48515319444955
vertex 135.18814767487268 137.01522196940414 76.48515319444955
vertex 135.18814767487268 137.01522196940414 72.48515319444955
endloop
endfacet
facet normal -1.0 -2.3314683517128287e-15 0.0
outer loop
vertex 130.5999999999996 131.03583150516715 76.48515319444955
vertex 130.5999999999996 128.78583150516715 72.48515319444955
vertex 130.5999999999996 128.78583150516715 76.48515319444955
endloop
endfacet
facet normal -1.0 -2.3314683517128287e-15 0.0
outer loop
vertex 130.5999999999996 128.78583150516715 72.48515319444955
vertex 130.5999999999996 131.03583150516715 76.48515319444955
vertex 130.5999999999996 131.03583150516715 72.48515319444955
endloop
endfacet
facet normal 0.608761429008711 -0.7933533402912427 0.0
outer loop
vertex 128.2249999999996 139.89945217314323 76.48515319444955
vertex 127.24124278936351 139.14458871580325 72.48515319444955
vertex 128.2249999999996 139.89945217314323 72.48515319444955
endloop
endfacet
facet normal 0.608761429008711 -0.7933533402912427 0.0
outer loop
vertex 127.24124278936351 139.14458871580325 72.48515319444955
vertex 128.2249999999996 139.89945217314323 76.48515319444955
vertex 127.24124278936351 139.14458871580325 76.48515319444955
endloop
endfacet
facet normal -0.9238795325112864 0.3826834323650907 0.0
outer loop
vertex 135.18814767487268 134.55644104093017 76.48515319444955
vertex 134.7136206679757 133.41083150516715 72.48515319444955
vertex 134.7136206679757 133.41083150516715 76.48515319444955
endloop
endfacet
facet normal -0.9238795325112864 0.3826834323650907 0.0
outer loop
vertex 134.7136206679757 133.41083150516715 72.48515319444955
vertex 135.18814767487268 134.55644104093017 76.48515319444955
vertex 135.18814767487268 134.55644104093017 72.48515319444955
endloop
endfacet
facet normal 0.38268343236509667 -0.923879532511284 0.0
outer loop
vertex 129.37060953576264 140.37397918004024 76.48515319444955
vertex 128.2249999999996 139.89945217314323 72.48515319444955
vertex 129.37060953576264 140.37397918004024 72.48515319444955
endloop
endfacet
facet normal 0.38268343236509667 -0.923879532511284 0.0
outer loop
vertex 128.2249999999996 139.89945217314323 72.48515319444955
vertex 129.37060953576264 140.37397918004024 76.48515319444955
vertex 128.2249999999996 139.89945217314323 76.48515319444955
endloop
endfacet
facet normal 0.7933533402912349 0.6087614290087209 -2.3471810522851334e-15
outer loop
vertex 126.48637933202353 133.41083150516715 72.48515319444955
vertex 127.24124278936353 132.42707429453105 76.48515319444957
vertex 127.24124278936351 132.42707429453105 72.48515319444955
endloop
endfacet
facet normal 0.7933533402912349 0.6087614290087209 -2.3471810522851334e-15
outer loop
vertex 127.24124278936353 132.42707429453105 76.48515319444957
vertex 126.48637933202353 133.41083150516715 72.48515319444955
vertex 126.48637933202353 133.41083150516715 76.48515319444957
endloop
endfacet
facet normal -0.991444861373811 0.13052619222004758 0.0
outer loop
vertex 135.3499999999996 135.78583150516715 76.48515319444955
vertex 135.18814767487268 134.55644104093017 72.48515319444955
vertex 135.18814767487268 134.55644104093017 76.48515319444955
endloop
endfacet
facet normal -0.991444861373811 0.13052619222004758 0.0
outer loop
vertex 135.18814767487268 134.55644104093017 72.48515319444955
vertex 135.3499999999996 135.78583150516715 76.48515319444955
vertex 135.3499999999996 135.78583150516715 72.48515319444955
endloop
endfacet
facet normal 0.9238795325112855 0.382683432365093 0.0
outer loop
vertex 137.52820323027512 139.78583150516715 72.48515319444955
vertex 138.32740661031215 137.8563838659873 76.48515319444955
vertex 138.32740661031215 137.8563838659873 72.48515319444955
endloop
endfacet
facet normal 0.9238795325112855 0.382683432365093 0.0
outer loop
vertex 138.32740661031215 137.8563838659873 76.48515319444955
vertex 137.52820323027512 139.78583150516715 72.48515319444955
vertex 137.52820323027512 139.78583150516715 76.48515319444955
endloop
endfacet
facet normal -0.7933533402912396 -0.6087614290087149 0.0
outer loop
vertex 133.95875721063572 139.14458871580325 76.48515319444955
vertex 134.7136206679757 138.16083150516715 72.48515319444955
vertex 134.7136206679757 138.16083150516715 76.48515319444955
endloop
endfacet
facet normal -0.7933533402912396 -0.6087614290087149 0.0
outer loop
vertex 134.7136206679757 138.16083150516715 72.48515319444955
vertex 133.95875721063572 139.14458871580325 76.48515319444955
vertex 133.95875721063572 139.14458871580325 72.48515319444955
endloop
endfacet
facet normal -0.6087614290087161 0.7933533402912387 0.0
outer loop
vertex 132.9749999999996 131.67221083719107 76.48515319444955
vertex 133.9587572106357 132.42707429453105 72.48515319444955
vertex 132.9749999999996 131.67221083719107 72.48515319444955
endloop
endfacet
facet normal -0.6087614290087161 0.7933533402912387 0.0
outer loop
vertex 133.9587572106357 132.42707429453105 72.48515319444955
vertex 132.9749999999996 131.67221083719107 76.48515319444955
vertex 133.9587572106357 132.42707429453105 76.48515319444955
endloop
endfacet
facet normal -2.9420910152566656e-15 -1.0 0.0
outer loop
vertex 125.8499999999996 131.03583150516715 76.48515319444955
vertex 122.5999999999996 131.03583150516718 72.48515319444955
vertex 125.8499999999996 131.03583150516715 72.48515319444955
endloop
endfacet
facet normal -2.9420910152566656e-15 -1.0 0.0
outer loop
vertex 122.5999999999996 131.03583150516718 72.48515319444955
vertex 125.8499999999996 131.03583150516715 76.48515319444955
vertex 122.5999999999996 131.03583150516718 76.48515319444955
endloop
endfacet
facet normal 0.991444861373812 -0.13052619222003906 0.0
outer loop
vertex 126.01185232512651 137.01522196940414 72.48515319444955
vertex 125.8499999999996 135.78583150516715 76.48515319444955
vertex 125.8499999999996 135.78583150516715 72.48515319444955
endloop
endfacet
facet normal 0.991444861373812 -0.13052619222003906 0.0
outer loop
vertex 125.8499999999996 135.78583150516715 76.48515319444955
vertex 126.01185232512651 137.01522196940414 72.48515319444955
vertex 126.01185232512651 137.01522196940414 76.48515319444955
endloop
endfacet
facet normal -0.6087614290087193 -0.7933533402912362 0.0
outer loop
vertex 133.95875721063572 139.14458871580325 76.48515319444955
vertex 132.9749999999996 139.89945217314323 72.48515319444955
vertex 133.95875721063572 139.14458871580325 72.48515319444955
endloop
endfacet
facet normal -0.6087614290087193 -0.7933533402912362 0.0
outer loop
vertex 132.9749999999996 139.89945217314323 72.48515319444955
vertex 133.95875721063572 139.14458871580325 76.48515319444955
vertex 132.9749999999996 139.89945217314323 76.48515319444955
endloop
endfacet
facet normal 0.13052619222005302 0.9914448613738103 0.0
outer loop
vertex 130.5999999999996 143.78583150516715 76.48515319444955
vertex 132.67055236081978 143.51323811547968 72.48515319444955
vertex 130.5999999999996 143.78583150516715 72.48515319444955
endloop
endfacet
facet normal 0.13052619222005302 0.9914448613738103 0.0
outer loop
vertex 132.67055236081978 143.51323811547968 72.48515319444955
vertex 130.5999999999996 143.78583150516715 76.48515319444955
vertex 132.67055236081978 143.51323811547968 76.48515319444955
endloop
endfacet
facet normal 0.9914448613738105 0.13052619222005146 0.0
outer loop
vertex 138.32740661031215 137.8563838659873 72.48515319444955
vertex 138.59999999999962 135.78583150516715 76.48515319444955
vertex 138.59999999999962 135.78583150516715 72.48515319444955
endloop
endfacet
facet normal 0.9914448613738105 0.13052619222005146 0.0
outer loop
vertex 138.59999999999962 135.78583150516715 76.48515319444955
vertex 138.32740661031215 137.8563838659873 72.48515319444955
vertex 138.32740661031215 137.8563838659873 76.48515319444955
endloop
endfacet
facet normal 0.6087614290087194 0.793353340291236 0.0
outer loop
vertex 134.59999999999962 142.71403473544265 76.48515319444955
vertex 136.256854249492 141.44268575465952 72.48515319444955
vertex 134.59999999999962 142.71403473544265 72.48515319444955
endloop
endfacet
facet normal 0.6087614290087194 0.793353340291236 0.0
outer loop
vertex 136.256854249492 141.44268575465952 72.48515319444955
vertex 134.59999999999962 142.71403473544265 76.48515319444955
vertex 136.256854249492 141.44268575465952 76.48515319444955
endloop
endfacet
facet normal 0.7933533402912414 -0.6087614290087126 0.0
outer loop
vertex 127.24124278936351 139.14458871580325 72.48515319444955
vertex 126.48637933202353 138.16083150516715 76.48515319444955
vertex 126.48637933202353 138.16083150516715 72.48515319444955
endloop
endfacet
facet normal 0.7933533402912414 -0.6087614290087126 0.0
outer loop
vertex 126.48637933202353 138.16083150516715 76.48515319444955
vertex 127.24124278936351 139.14458871580325 72.48515319444955
vertex 127.24124278936351 139.14458871580325 76.48515319444955
endloop
endfacet
facet normal 1.0 -8.43769498715119e-15 -1.310806113827465e-15
outer loop
vertex 125.8499999999996 131.67221083719107 72.48515319444955
vertex 125.8499999999996 131.03583150516715 76.48515319444955
vertex 125.8499999999996 131.03583150516715 72.48515319444955
endloop
endfacet
facet normal 1.0 -8.43769498715119e-15 -1.310806113827465e-15
outer loop
vertex 125.8499999999996 131.03583150516715 76.48515319444955
vertex 125.8499999999996 131.67221083719107 72.48515319444955
vertex 125.8499999999996 131.67221083719107 76.48515319444955
endloop
endfacet
facet normal -0.9238795325112891 0.3826834323650843 0.0
outer loop
vertex 123.6717967697241 139.78583150516715 76.48515319444955
vertex 122.87259338968707 137.8563838659873 72.48515319444955
vertex 122.87259338968707 137.8563838659873 76.48515319444955
endloop
endfacet
facet normal -0.9238795325112891 0.3826834323650843 0.0
outer loop
vertex 122.87259338968707 137.8563838659873 72.48515319444955
vertex 123.6717967697241 139.78583150516715 76.48515319444955
vertex 123.6717967697241 139.78583150516715 72.48515319444955
endloop
endfacet
facet normal -0.99144486137381 0.13052619222005496 0.0
outer loop
vertex 122.87259338968707 137.8563838659873 76.48515319444955
vertex 122.5999999999996 135.78583150516715 72.48515319444955
vertex 122.5999999999996 135.78583150516715 76.48515319444955
endloop
endfacet
facet normal -0.99144486137381 0.13052619222005496 0.0
outer loop
vertex 122.5999999999996 135.78583150516715 72.48515319444955
vertex 122.87259338968707 137.8563838659873 76.48515319444955
vertex 122.87259338968707 137.8563838659873 72.48515319444955
endloop
endfacet
facet normal 0.6087614290087273 -0.7933533402912301 0.0
outer loop
vertex 136.25685424949197 130.12897725567476 76.48515319444955
vertex 134.59999999999962 128.85762827489165 72.48515319444955
vertex 136.25685424949197 130.12897725567476 72.48515319444955
endloop
endfacet
facet normal 0.6087614290087273 -0.7933533402912301 0.0
outer loop
vertex 134.59999999999962 128.85762827489165 72.48515319444955
vertex 136.25685424949197 130.12897725567476 76.48515319444955
vertex 134.59999999999962 128.85762827489165 76.48515319444955
endloop
endfacet
facet normal -0.13052619222004774 -0.9914448613738109 0.0
outer loop
vertex 131.82939046423658 140.37397918004024 76.48515319444955
vertex 130.5999999999996 140.53583150516715 72.48515319444955
vertex 131.82939046423658 140.37397918004024 72.48515319444955
endloop
endfacet
facet normal -0.13052619222004774 -0.9914448613738109 0.0
outer loop
vertex 130.5999999999996 140.53583150516715 72.48515319444955
vertex 131.82939046423658 140.37397918004024 76.48515319444955
vertex 130.5999999999996 140.53583150516715 76.48515319444955
endloop
endfacet
endsolid Plotter
